<svg xmlns="http://www.w3.org/2000/svg" xmlns:xlink="http://www.w3.org/1999/xlink" contentStyleType="text/css" data-diagram-type="CLASS" height="1088px" preserveAspectRatio="none" style="width:1984px;height:1088px;background:#FEFEFE;" version="1.1" viewBox="0 0 1984 1088" width="1984px" zoomAndPan="magnify"><title>Capa de Acceso a Datos (Persistencia)</title><defs/><g><rect fill="#FEFEFE" height="1088" style="stroke:transparent;stroke-width:1;" width="1984" x="0" y="0"/><text fill="#000000" font-family="sans-serif" font-size="14" font-weight="bold" lengthAdjust="spacing" textLength="258.3301" x="855.835" y="24.5332">Capa de Acceso a Datos (Persistencia)</text><text fill="#000000" font-family="sans-serif" font-size="14" font-weight="bold" lengthAdjust="spacing" textLength="222.5098" x="873.7451" y="42.1426">Patr&#243;n DAO - Data Access Object</text><!--cluster Business--><g id="cluster_Business"><path d="M59.5,62.2188 L174.0791,62.2188 A3.75,3.75 0 0 1 176.5791,64.7188 L183.5791,103.4375 L695.5,103.4375 A2.5,2.5 0 0 1 698,105.9375 L698,177.7188 A2.5,2.5 0 0 1 695.5,180.2188 L59.5,180.2188 A2.5,2.5 0 0 1 57,177.7188 L57,64.7188 A2.5,2.5 0 0 1 59.5,62.2188 " fill="#EBF5FB" style="stroke:#2E86C1;stroke-width:1.5;"/><line style="stroke:#2E86C1;stroke-width:1.5;" x1="57" x2="183.5791" y1="103.4375" y2="103.4375"/><text fill="#000000" font-family="sans-serif" font-size="14" font-weight="bold" lengthAdjust="spacing" textLength="113.5791" x="61" y="78.752">Capa de Negocio</text><text fill="#000000" font-family="sans-serif" font-size="14" font-weight="bold" lengthAdjust="spacing" textLength="112.8203" x="61.3794" y="96.3613">(Business Layer)</text></g><!--cluster DAO--><g id="cluster_DAO"><path d="M8.5,230.2188 L172.1201,230.2188 A3.75,3.75 0 0 1 174.6201,232.7188 L181.6201,271.4375 L1404.5,271.4375 A2.5,2.5 0 0 1 1407,273.9375 L1407,854.7188 A2.5,2.5 0 0 1 1404.5,857.2188 L8.5,857.2188 A2.5,2.5 0 0 1 6,854.7188 L6,232.7188 A2.5,2.5 0 0 1 8.5,230.2188 " fill="#EBF5FB" style="stroke:#2E86C1;stroke-width:1.5;"/><line style="stroke:#2E86C1;stroke-width:1.5;" x1="6" x2="181.6201" y1="271.4375" y2="271.4375"/><text fill="#000000" font-family="sans-serif" font-size="14" font-weight="bold" lengthAdjust="spacing" textLength="162.6201" x="10" y="246.752">Capa de Acceso a Datos</text><text fill="#000000" font-family="sans-serif" font-size="14" font-weight="bold" lengthAdjust="spacing" textLength="92.5586" x="45.0308" y="264.3613">(DAO Pattern)</text></g><!--cluster DAOInterfaces--><g id="cluster_DAOInterfaces"><path d="M104.5,292.2188 L206.6445,292.2188 A3.75,3.75 0 0 1 209.1445,294.7188 L216.1445,315.8281 L968.5,315.8281 A2.5,2.5 0 0 1 971,318.3281 L971,389.7188 A2.5,2.5 0 0 1 968.5,392.2188 L104.5,392.2188 A2.5,2.5 0 0 1 102,389.7188 L102,294.7188 A2.5,2.5 0 0 1 104.5,292.2188 " fill="#EBF5FB" style="stroke:#2E86C1;stroke-width:1.5;"/><line style="stroke:#2E86C1;stroke-width:1.5;" x1="102" x2="216.1445" y1="315.8281" y2="315.8281"/><text fill="#000000" font-family="sans-serif" font-size="14" font-weight="bold" lengthAdjust="spacing" textLength="101.1445" x="106" y="308.752">DAO Interfaces</text></g><!--cluster DAOImpl--><g id="cluster_DAOImpl"><path d="M32.5,425.2188 L190.6514,425.2188 A3.75,3.75 0 0 1 193.1514,427.7188 L200.1514,448.8281 L1380.5,448.8281 A2.5,2.5 0 0 1 1383,451.3281 L1383,522.7188 A2.5,2.5 0 0 1 1380.5,525.2188 L32.5,525.2188 A2.5,2.5 0 0 1 30,522.7188 L30,427.7188 A2.5,2.5 0 0 1 32.5,425.2188 " fill="#EBF5FB" style="stroke:#2E86C1;stroke-width:1.5;"/><line style="stroke:#2E86C1;stroke-width:1.5;" x1="30" x2="200.1514" y1="448.8281" y2="448.8281"/><text fill="#000000" font-family="sans-serif" font-size="14" font-weight="bold" lengthAdjust="spacing" textLength="157.1514" x="34" y="441.752">Implementaciones DAO</text></g><!--cluster Entities--><g id="cluster_Entities"><path d="M32.5,575.2188 L177.4033,575.2188 A3.75,3.75 0 0 1 179.9033,577.7188 L186.9033,598.8281 L1209.5,598.8281 A2.5,2.5 0 0 1 1212,601.3281 L1212,830.7188 A2.5,2.5 0 0 1 1209.5,833.2188 L32.5,833.2188 A2.5,2.5 0 0 1 30,830.7188 L30,577.7188 A2.5,2.5 0 0 1 32.5,575.2188 " fill="#EBF5FB" style="stroke:#2E86C1;stroke-width:1.5;"/><line style="stroke:#2E86C1;stroke-width:1.5;" x1="30" x2="186.9033" y1="598.8281" y2="598.8281"/><text fill="#000000" font-family="sans-serif" font-size="14" font-weight="bold" lengthAdjust="spacing" textLength="143.9033" x="34" y="591.752">Entidades del Modelo</text></g><!--cluster DB--><g id="cluster_DB"><polygon fill="#D5F5E3" points="1439,654.7188,1449,644.7188,1967,644.7188,1967,1061.2188,1957,1071.2188,1439,1071.2188,1439,654.7188" style="stroke:#117A65;stroke-width:1;"/><line style="stroke:#117A65;stroke-width:1;" x1="1957" x2="1967" y1="654.7188" y2="644.7188"/><line style="stroke:#117A65;stroke-width:1;" x1="1439" x2="1957" y1="654.7188" y2="654.7188"/><line style="stroke:#117A65;stroke-width:1;" x1="1957" x2="1957" y1="654.7188" y2="1071.2188"/><text fill="#000000" font-family="sans-serif" font-size="14" font-weight="bold" lengthAdjust="spacing" textLength="111.2959" x="1643.3521" y="672.252">SQL Server 2022</text></g><!--class SvcUser--><g id="elem_SvcUser"><rect codeLine="11" fill="#F1F1F1" height="48" id="SvcUser" rx="2.5" ry="2.5" style="stroke:#181818;stroke-width:0.5;" width="133.9238" x="73" y="116.2188"/><ellipse cx="88" cy="132.2188" fill="#B4A7E5" rx="11" ry="11" style="stroke:#181818;stroke-width:1;"/><path d="M88.9531,128.8594 L88.9531,135.5156 L90.6719,135.5156 Q91.2813,135.5156 91.5469,135.75 Q91.8125,135.9844 91.8125,136.375 Q91.8125,136.75 91.5469,136.9844 Q91.2813,137.2188 90.6719,137.2188 L85.5313,137.2188 Q84.9219,137.2188 84.6563,136.9844 Q84.3906,136.75 84.3906,136.3594 Q84.3906,135.9844 84.6563,135.75 Q84.9219,135.5156 85.5313,135.5156 L87.25,135.5156 L87.25,128.8594 L85.5313,128.8594 Q84.9219,128.8594 84.6563,128.625 Q84.3906,128.3906 84.3906,128 Q84.3906,127.625 84.6563,127.3906 Q84.9219,127.1563 85.5313,127.1563 L90.6719,127.1563 Q91.2813,127.1563 91.5469,127.3906 Q91.8125,127.625 91.8125,128 Q91.8125,128.3906 91.5469,128.625 Q91.2813,128.8594 90.6719,128.8594 L88.9531,128.8594 Z " fill="#000000"/><text fill="#000000" font-family="sans-serif" font-size="14" font-style="italic" lengthAdjust="spacing" textLength="101.9238" x="102" y="137.9473">Servicio Usuario</text><line style="stroke:#181818;stroke-width:0.5;" x1="74" x2="205.9238" y1="148.2188" y2="148.2188"/><line style="stroke:#181818;stroke-width:0.5;" x1="74" x2="205.9238" y1="156.2188" y2="156.2188"/></g><!--class SvcCita--><g id="elem_SvcCita"><rect codeLine="12" fill="#F1F1F1" height="48" id="SvcCita" rx="2.5" ry="2.5" style="stroke:#181818;stroke-width:0.5;" width="110.5791" x="242.5" y="116.2188"/><ellipse cx="257.5" cy="132.2188" fill="#B4A7E5" rx="11" ry="11" style="stroke:#181818;stroke-width:1;"/><path d="M258.4531,128.8594 L258.4531,135.5156 L260.1719,135.5156 Q260.7813,135.5156 261.0469,135.75 Q261.3125,135.9844 261.3125,136.375 Q261.3125,136.75 261.0469,136.9844 Q260.7813,137.2188 260.1719,137.2188 L255.0313,137.2188 Q254.4219,137.2188 254.1563,136.9844 Q253.8906,136.75 253.8906,136.3594 Q253.8906,135.9844 254.1563,135.75 Q254.4219,135.5156 255.0313,135.5156 L256.75,135.5156 L256.75,128.8594 L255.0313,128.8594 Q254.4219,128.8594 254.1563,128.625 Q253.8906,128.3906 253.8906,128 Q253.8906,127.625 254.1563,127.3906 Q254.4219,127.1563 255.0313,127.1563 L260.1719,127.1563 Q260.7813,127.1563 261.0469,127.3906 Q261.3125,127.625 261.3125,128 Q261.3125,128.3906 261.0469,128.625 Q260.7813,128.8594 260.1719,128.8594 L258.4531,128.8594 Z " fill="#000000"/><text fill="#000000" font-family="sans-serif" font-size="14" font-style="italic" lengthAdjust="spacing" textLength="78.5791" x="271.5" y="137.9473">Servicio Cita</text><line style="stroke:#181818;stroke-width:0.5;" x1="243.5" x2="352.0791" y1="148.2188" y2="148.2188"/><line style="stroke:#181818;stroke-width:0.5;" x1="243.5" x2="352.0791" y1="156.2188" y2="156.2188"/></g><!--class SvcPac--><g id="elem_SvcPac"><rect codeLine="13" fill="#F1F1F1" height="48" id="SvcPac" rx="2.5" ry="2.5" style="stroke:#181818;stroke-width:0.5;" width="140.165" x="389" y="116.2188"/><ellipse cx="404" cy="132.2188" fill="#B4A7E5" rx="11" ry="11" style="stroke:#181818;stroke-width:1;"/><path d="M404.9531,128.8594 L404.9531,135.5156 L406.6719,135.5156 Q407.2813,135.5156 407.5469,135.75 Q407.8125,135.9844 407.8125,136.375 Q407.8125,136.75 407.5469,136.9844 Q407.2813,137.2188 406.6719,137.2188 L401.5313,137.2188 Q400.9219,137.2188 400.6563,136.9844 Q400.3906,136.75 400.3906,136.3594 Q400.3906,135.9844 400.6563,135.75 Q400.9219,135.5156 401.5313,135.5156 L403.25,135.5156 L403.25,128.8594 L401.5313,128.8594 Q400.9219,128.8594 400.6563,128.625 Q400.3906,128.3906 400.3906,128 Q400.3906,127.625 400.6563,127.3906 Q400.9219,127.1563 401.5313,127.1563 L406.6719,127.1563 Q407.2813,127.1563 407.5469,127.3906 Q407.8125,127.625 407.8125,128 Q407.8125,128.3906 407.5469,128.625 Q407.2813,128.8594 406.6719,128.8594 L404.9531,128.8594 Z " fill="#000000"/><text fill="#000000" font-family="sans-serif" font-size="14" font-style="italic" lengthAdjust="spacing" textLength="108.165" x="418" y="137.9473">Servicio Paciente</text><line style="stroke:#181818;stroke-width:0.5;" x1="390" x2="528.165" y1="148.2188" y2="148.2188"/><line style="stroke:#181818;stroke-width:0.5;" x1="390" x2="528.165" y1="156.2188" y2="156.2188"/></g><!--class SvcPago--><g id="elem_SvcPago"><rect codeLine="14" fill="#F1F1F1" height="48" id="SvcPago" rx="2.5" ry="2.5" style="stroke:#181818;stroke-width:0.5;" width="118.3789" x="564" y="116.2188"/><ellipse cx="579" cy="132.2188" fill="#B4A7E5" rx="11" ry="11" style="stroke:#181818;stroke-width:1;"/><path d="M579.9531,128.8594 L579.9531,135.5156 L581.6719,135.5156 Q582.2813,135.5156 582.5469,135.75 Q582.8125,135.9844 582.8125,136.375 Q582.8125,136.75 582.5469,136.9844 Q582.2813,137.2188 581.6719,137.2188 L576.5313,137.2188 Q575.9219,137.2188 575.6563,136.9844 Q575.3906,136.75 575.3906,136.3594 Q575.3906,135.9844 575.6563,135.75 Q575.9219,135.5156 576.5313,135.5156 L578.25,135.5156 L578.25,128.8594 L576.5313,128.8594 Q575.9219,128.8594 575.6563,128.625 Q575.3906,128.3906 575.3906,128 Q575.3906,127.625 575.6563,127.3906 Q575.9219,127.1563 576.5313,127.1563 L581.6719,127.1563 Q582.2813,127.1563 582.5469,127.3906 Q582.8125,127.625 582.8125,128 Q582.8125,128.3906 582.5469,128.625 Q582.2813,128.8594 581.6719,128.8594 L579.9531,128.8594 Z " fill="#000000"/><text fill="#000000" font-family="sans-serif" font-size="14" font-style="italic" lengthAdjust="spacing" textLength="86.3789" x="593" y="137.9473">Servicio Pago</text><line style="stroke:#181818;stroke-width:0.5;" x1="565" x2="681.3789" y1="148.2188" y2="148.2188"/><line style="stroke:#181818;stroke-width:0.5;" x1="565" x2="681.3789" y1="156.2188" y2="156.2188"/></g><!--class IUserDAO--><g id="elem_IUserDAO"><rect codeLine="19" fill="#F1F1F1" height="48" id="IUserDAO" rx="2.5" ry="2.5" style="stroke:#181818;stroke-width:0.5;" width="114.4688" x="118" y="328.2188"/><ellipse cx="133" cy="344.2188" fill="#B4A7E5" rx="11" ry="11" style="stroke:#181818;stroke-width:1;"/><path d="M133.9531,340.8594 L133.9531,347.5156 L135.6719,347.5156 Q136.2813,347.5156 136.5469,347.75 Q136.8125,347.9844 136.8125,348.375 Q136.8125,348.75 136.5469,348.9844 Q136.2813,349.2188 135.6719,349.2188 L130.5313,349.2188 Q129.9219,349.2188 129.6563,348.9844 Q129.3906,348.75 129.3906,348.3594 Q129.3906,347.9844 129.6563,347.75 Q129.9219,347.5156 130.5313,347.5156 L132.25,347.5156 L132.25,340.8594 L130.5313,340.8594 Q129.9219,340.8594 129.6563,340.625 Q129.3906,340.3906 129.3906,340 Q129.3906,339.625 129.6563,339.3906 Q129.9219,339.1563 130.5313,339.1563 L135.6719,339.1563 Q136.2813,339.1563 136.5469,339.3906 Q136.8125,339.625 136.8125,340 Q136.8125,340.3906 136.5469,340.625 Q136.2813,340.8594 135.6719,340.8594 L133.9531,340.8594 Z " fill="#000000"/><text fill="#000000" font-family="sans-serif" font-size="14" font-style="italic" lengthAdjust="spacing" textLength="82.4688" x="147" y="349.9473">IUsuarioDAO</text><line style="stroke:#181818;stroke-width:0.5;" x1="119" x2="231.4688" y1="360.2188" y2="360.2188"/><line style="stroke:#181818;stroke-width:0.5;" x1="119" x2="231.4688" y1="368.2188" y2="368.2188"/></g><!--class ICitaDAO--><g id="elem_ICitaDAO"><rect codeLine="20" fill="#F1F1F1" height="48" id="ICitaDAO" rx="2.5" ry="2.5" style="stroke:#181818;stroke-width:0.5;" width="91.124" x="267.5" y="328.2188"/><ellipse cx="282.5" cy="344.2188" fill="#B4A7E5" rx="11" ry="11" style="stroke:#181818;stroke-width:1;"/><path d="M283.4531,340.8594 L283.4531,347.5156 L285.1719,347.5156 Q285.7813,347.5156 286.0469,347.75 Q286.3125,347.9844 286.3125,348.375 Q286.3125,348.75 286.0469,348.9844 Q285.7813,349.2188 285.1719,349.2188 L280.0313,349.2188 Q279.4219,349.2188 279.1563,348.9844 Q278.8906,348.75 278.8906,348.3594 Q278.8906,347.9844 279.1563,347.75 Q279.4219,347.5156 280.0313,347.5156 L281.75,347.5156 L281.75,340.8594 L280.0313,340.8594 Q279.4219,340.8594 279.1563,340.625 Q278.8906,340.3906 278.8906,340 Q278.8906,339.625 279.1563,339.3906 Q279.4219,339.1563 280.0313,339.1563 L285.1719,339.1563 Q285.7813,339.1563 286.0469,339.3906 Q286.3125,339.625 286.3125,340 Q286.3125,340.3906 286.0469,340.625 Q285.7813,340.8594 285.1719,340.8594 L283.4531,340.8594 Z " fill="#000000"/><text fill="#000000" font-family="sans-serif" font-size="14" font-style="italic" lengthAdjust="spacing" textLength="59.124" x="296.5" y="349.9473">ICitaDAO</text><line style="stroke:#181818;stroke-width:0.5;" x1="268.5" x2="357.624" y1="360.2188" y2="360.2188"/><line style="stroke:#181818;stroke-width:0.5;" x1="268.5" x2="357.624" y1="368.2188" y2="368.2188"/></g><!--class IPacDAO--><g id="elem_IPacDAO"><rect codeLine="21" fill="#F1F1F1" height="48" id="IPacDAO" rx="2.5" ry="2.5" style="stroke:#181818;stroke-width:0.5;" width="120.71" x="393.5" y="328.2188"/><ellipse cx="408.5" cy="344.2188" fill="#B4A7E5" rx="11" ry="11" style="stroke:#181818;stroke-width:1;"/><path d="M409.4531,340.8594 L409.4531,347.5156 L411.1719,347.5156 Q411.7813,347.5156 412.0469,347.75 Q412.3125,347.9844 412.3125,348.375 Q412.3125,348.75 412.0469,348.9844 Q411.7813,349.2188 411.1719,349.2188 L406.0313,349.2188 Q405.4219,349.2188 405.1563,348.9844 Q404.8906,348.75 404.8906,348.3594 Q404.8906,347.9844 405.1563,347.75 Q405.4219,347.5156 406.0313,347.5156 L407.75,347.5156 L407.75,340.8594 L406.0313,340.8594 Q405.4219,340.8594 405.1563,340.625 Q404.8906,340.3906 404.8906,340 Q404.8906,339.625 405.1563,339.3906 Q405.4219,339.1563 406.0313,339.1563 L411.1719,339.1563 Q411.7813,339.1563 412.0469,339.3906 Q412.3125,339.625 412.3125,340 Q412.3125,340.3906 412.0469,340.625 Q411.7813,340.8594 411.1719,340.8594 L409.4531,340.8594 Z " fill="#000000"/><text fill="#000000" font-family="sans-serif" font-size="14" font-style="italic" lengthAdjust="spacing" textLength="88.71" x="422.5" y="349.9473">IPacienteDAO</text><line style="stroke:#181818;stroke-width:0.5;" x1="394.5" x2="513.21" y1="360.2188" y2="360.2188"/><line style="stroke:#181818;stroke-width:0.5;" x1="394.5" x2="513.21" y1="368.2188" y2="368.2188"/></g><!--class IPagoDAO--><g id="elem_IPagoDAO"><rect codeLine="22" fill="#F1F1F1" height="48" id="IPagoDAO" rx="2.5" ry="2.5" style="stroke:#181818;stroke-width:0.5;" width="98.9238" x="549.5" y="328.2188"/><ellipse cx="564.5" cy="344.2188" fill="#B4A7E5" rx="11" ry="11" style="stroke:#181818;stroke-width:1;"/><path d="M565.4531,340.8594 L565.4531,347.5156 L567.1719,347.5156 Q567.7813,347.5156 568.0469,347.75 Q568.3125,347.9844 568.3125,348.375 Q568.3125,348.75 568.0469,348.9844 Q567.7813,349.2188 567.1719,349.2188 L562.0313,349.2188 Q561.4219,349.2188 561.1563,348.9844 Q560.8906,348.75 560.8906,348.3594 Q560.8906,347.9844 561.1563,347.75 Q561.4219,347.5156 562.0313,347.5156 L563.75,347.5156 L563.75,340.8594 L562.0313,340.8594 Q561.4219,340.8594 561.1563,340.625 Q560.8906,340.3906 560.8906,340 Q560.8906,339.625 561.1563,339.3906 Q561.4219,339.1563 562.0313,339.1563 L567.1719,339.1563 Q567.7813,339.1563 568.0469,339.3906 Q568.3125,339.625 568.3125,340 Q568.3125,340.3906 568.0469,340.625 Q567.7813,340.8594 567.1719,340.8594 L565.4531,340.8594 Z " fill="#000000"/><text fill="#000000" font-family="sans-serif" font-size="14" font-style="italic" lengthAdjust="spacing" textLength="66.9238" x="578.5" y="349.9473">IPagoDAO</text><line style="stroke:#181818;stroke-width:0.5;" x1="550.5" x2="647.4238" y1="360.2188" y2="360.2188"/><line style="stroke:#181818;stroke-width:0.5;" x1="550.5" x2="647.4238" y1="368.2188" y2="368.2188"/></g><!--class IHistDAO--><g id="elem_IHistDAO"><rect codeLine="23" fill="#F1F1F1" height="48" id="IHistDAO" rx="2.5" ry="2.5" style="stroke:#181818;stroke-width:0.5;" width="113.6826" x="684" y="328.2188"/><ellipse cx="699" cy="344.2188" fill="#B4A7E5" rx="11" ry="11" style="stroke:#181818;stroke-width:1;"/><path d="M699.9531,340.8594 L699.9531,347.5156 L701.6719,347.5156 Q702.2813,347.5156 702.5469,347.75 Q702.8125,347.9844 702.8125,348.375 Q702.8125,348.75 702.5469,348.9844 Q702.2813,349.2188 701.6719,349.2188 L696.5313,349.2188 Q695.9219,349.2188 695.6563,348.9844 Q695.3906,348.75 695.3906,348.3594 Q695.3906,347.9844 695.6563,347.75 Q695.9219,347.5156 696.5313,347.5156 L698.25,347.5156 L698.25,340.8594 L696.5313,340.8594 Q695.9219,340.8594 695.6563,340.625 Q695.3906,340.3906 695.3906,340 Q695.3906,339.625 695.6563,339.3906 Q695.9219,339.1563 696.5313,339.1563 L701.6719,339.1563 Q702.2813,339.1563 702.5469,339.3906 Q702.8125,339.625 702.8125,340 Q702.8125,340.3906 702.5469,340.625 Q702.2813,340.8594 701.6719,340.8594 L699.9531,340.8594 Z " fill="#000000"/><text fill="#000000" font-family="sans-serif" font-size="14" font-style="italic" lengthAdjust="spacing" textLength="81.6826" x="713" y="349.9473">IHistoriaDAO</text><line style="stroke:#181818;stroke-width:0.5;" x1="685" x2="796.6826" y1="360.2188" y2="360.2188"/><line style="stroke:#181818;stroke-width:0.5;" x1="685" x2="796.6826" y1="368.2188" y2="368.2188"/></g><!--class IAudDAO--><g id="elem_IAudDAO"><rect codeLine="24" fill="#F1F1F1" height="48" id="IAudDAO" rx="2.5" ry="2.5" style="stroke:#181818;stroke-width:0.5;" width="121.4824" x="833.5" y="328.2188"/><ellipse cx="848.5" cy="344.2188" fill="#B4A7E5" rx="11" ry="11" style="stroke:#181818;stroke-width:1;"/><path d="M849.4531,340.8594 L849.4531,347.5156 L851.1719,347.5156 Q851.7813,347.5156 852.0469,347.75 Q852.3125,347.9844 852.3125,348.375 Q852.3125,348.75 852.0469,348.9844 Q851.7813,349.2188 851.1719,349.2188 L846.0313,349.2188 Q845.4219,349.2188 845.1563,348.9844 Q844.8906,348.75 844.8906,348.3594 Q844.8906,347.9844 845.1563,347.75 Q845.4219,347.5156 846.0313,347.5156 L847.75,347.5156 L847.75,340.8594 L846.0313,340.8594 Q845.4219,340.8594 845.1563,340.625 Q844.8906,340.3906 844.8906,340 Q844.8906,339.625 845.1563,339.3906 Q845.4219,339.1563 846.0313,339.1563 L851.1719,339.1563 Q851.7813,339.1563 852.0469,339.3906 Q852.3125,339.625 852.3125,340 Q852.3125,340.3906 852.0469,340.625 Q851.7813,340.8594 851.1719,340.8594 L849.4531,340.8594 Z " fill="#000000"/><text fill="#000000" font-family="sans-serif" font-size="14" font-style="italic" lengthAdjust="spacing" textLength="89.4824" x="862.5" y="349.9473">IAuditoriaDAO</text><line style="stroke:#181818;stroke-width:0.5;" x1="834.5" x2="953.9824" y1="360.2188" y2="360.2188"/><line style="stroke:#181818;stroke-width:0.5;" x1="834.5" x2="953.9824" y1="368.2188" y2="368.2188"/></g><!--class UserDAOImpl--><g id="elem_UserDAOImpl"><rect codeLine="28" fill="#F1F1F1" height="48" id="UserDAOImpl" rx="2.5" ry="2.5" style="stroke:#181818;stroke-width:0.5;" width="137.0273" x="46.5" y="461.2188"/><ellipse cx="61.5" cy="477.2188" fill="#ADD1B2" rx="11" ry="11" style="stroke:#181818;stroke-width:1;"/><path d="M64.2656,473.0938 Q64.4219,472.875 64.6094,472.7656 Q64.7969,472.6563 65.0156,472.6563 Q65.3906,472.6563 65.625,472.9219 Q65.8594,473.1719 65.8594,473.7813 L65.8594,475.2344 Q65.8594,475.8438 65.625,476.1094 Q65.3906,476.375 65.0156,476.375 Q64.6719,476.375 64.4688,476.1719 Q64.2656,475.9844 64.1563,475.4688 Q64.1094,475.1094 63.9219,474.9219 Q63.5938,474.5469 62.9844,474.3281 Q62.375,474.1094 61.75,474.1094 Q60.9844,474.1094 60.3438,474.4375 Q59.7188,474.7656 59.2188,475.5156 Q58.7344,476.2656 58.7344,477.2969 L58.7344,478.3906 Q58.7344,479.625 59.625,480.4531 Q60.5156,481.2656 62.1094,481.2656 Q63.0469,481.2656 63.7031,481.0156 Q64.0938,480.8594 64.5156,480.4219 Q64.7813,480.1563 64.9219,480.0781 Q65.0781,480 65.2813,480 Q65.6094,480 65.8594,480.2656 Q66.125,480.5156 66.125,480.8594 Q66.125,481.2031 65.7813,481.6094 Q65.2813,482.1875 64.4844,482.5156 Q63.4063,482.9688 62.1094,482.9688 Q60.5938,482.9688 59.3906,482.3438 Q58.4063,481.8438 57.7188,480.7813 Q57.0313,479.7031 57.0313,478.4219 L57.0313,477.2656 Q57.0313,475.9375 57.6406,474.7969 Q58.2656,473.6406 59.3594,473.0313 Q60.4531,472.4063 61.6875,472.4063 Q62.4219,472.4063 63.0625,472.5781 Q63.7188,472.7344 64.2656,473.0938 Z " fill="#000000"/><text fill="#000000" font-family="sans-serif" font-size="14" lengthAdjust="spacing" textLength="105.0273" x="75.5" y="482.9473">UsuarioDAOImpl</text><line style="stroke:#181818;stroke-width:0.5;" x1="47.5" x2="182.5273" y1="493.2188" y2="493.2188"/><line style="stroke:#181818;stroke-width:0.5;" x1="47.5" x2="182.5273" y1="501.2188" y2="501.2188"/></g><!--class CitaDAOImpl--><g id="elem_CitaDAOImpl"><rect codeLine="29" fill="#F1F1F1" height="48" id="CitaDAOImpl" rx="2.5" ry="2.5" style="stroke:#181818;stroke-width:0.5;" width="113.6826" x="219" y="461.2188"/><ellipse cx="234" cy="477.2188" fill="#ADD1B2" rx="11" ry="11" style="stroke:#181818;stroke-width:1;"/><path d="M236.7656,473.0938 Q236.9219,472.875 237.1094,472.7656 Q237.2969,472.6563 237.5156,472.6563 Q237.8906,472.6563 238.125,472.9219 Q238.3594,473.1719 238.3594,473.7813 L238.3594,475.2344 Q238.3594,475.8438 238.125,476.1094 Q237.8906,476.375 237.5156,476.375 Q237.1719,476.375 236.9688,476.1719 Q236.7656,475.9844 236.6563,475.4688 Q236.6094,475.1094 236.4219,474.9219 Q236.0938,474.5469 235.4844,474.3281 Q234.875,474.1094 234.25,474.1094 Q233.4844,474.1094 232.8438,474.4375 Q232.2188,474.7656 231.7188,475.5156 Q231.2344,476.2656 231.2344,477.2969 L231.2344,478.3906 Q231.2344,479.625 232.125,480.4531 Q233.0156,481.2656 234.6094,481.2656 Q235.5469,481.2656 236.2031,481.0156 Q236.5938,480.8594 237.0156,480.4219 Q237.2813,480.1563 237.4219,480.0781 Q237.5781,480 237.7813,480 Q238.1094,480 238.3594,480.2656 Q238.625,480.5156 238.625,480.8594 Q238.625,481.2031 238.2813,481.6094 Q237.7813,482.1875 236.9844,482.5156 Q235.9063,482.9688 234.6094,482.9688 Q233.0938,482.9688 231.8906,482.3438 Q230.9063,481.8438 230.2188,480.7813 Q229.5313,479.7031 229.5313,478.4219 L229.5313,477.2656 Q229.5313,475.9375 230.1406,474.7969 Q230.7656,473.6406 231.8594,473.0313 Q232.9531,472.4063 234.1875,472.4063 Q234.9219,472.4063 235.5625,472.5781 Q236.2188,472.7344 236.7656,473.0938 Z " fill="#000000"/><text fill="#000000" font-family="sans-serif" font-size="14" lengthAdjust="spacing" textLength="81.6826" x="248" y="482.9473">CitaDAOImpl</text><line style="stroke:#181818;stroke-width:0.5;" x1="220" x2="331.6826" y1="493.2188" y2="493.2188"/><line style="stroke:#181818;stroke-width:0.5;" x1="220" x2="331.6826" y1="501.2188" y2="501.2188"/></g><!--class PacDAOImpl--><g id="elem_PacDAOImpl"><rect codeLine="30" fill="#F1F1F1" height="48" id="PacDAOImpl" rx="2.5" ry="2.5" style="stroke:#181818;stroke-width:0.5;" width="143.2686" x="368.5" y="461.2188"/><ellipse cx="383.5" cy="477.2188" fill="#ADD1B2" rx="11" ry="11" style="stroke:#181818;stroke-width:1;"/><path d="M386.2656,473.0938 Q386.4219,472.875 386.6094,472.7656 Q386.7969,472.6563 387.0156,472.6563 Q387.3906,472.6563 387.625,472.9219 Q387.8594,473.1719 387.8594,473.7813 L387.8594,475.2344 Q387.8594,475.8438 387.625,476.1094 Q387.3906,476.375 387.0156,476.375 Q386.6719,476.375 386.4688,476.1719 Q386.2656,475.9844 386.1563,475.4688 Q386.1094,475.1094 385.9219,474.9219 Q385.5938,474.5469 384.9844,474.3281 Q384.375,474.1094 383.75,474.1094 Q382.9844,474.1094 382.3438,474.4375 Q381.7188,474.7656 381.2188,475.5156 Q380.7344,476.2656 380.7344,477.2969 L380.7344,478.3906 Q380.7344,479.625 381.625,480.4531 Q382.5156,481.2656 384.1094,481.2656 Q385.0469,481.2656 385.7031,481.0156 Q386.0938,480.8594 386.5156,480.4219 Q386.7813,480.1563 386.9219,480.0781 Q387.0781,480 387.2813,480 Q387.6094,480 387.8594,480.2656 Q388.125,480.5156 388.125,480.8594 Q388.125,481.2031 387.7813,481.6094 Q387.2813,482.1875 386.4844,482.5156 Q385.4063,482.9688 384.1094,482.9688 Q382.5938,482.9688 381.3906,482.3438 Q380.4063,481.8438 379.7188,480.7813 Q379.0313,479.7031 379.0313,478.4219 L379.0313,477.2656 Q379.0313,475.9375 379.6406,474.7969 Q380.2656,473.6406 381.3594,473.0313 Q382.4531,472.4063 383.6875,472.4063 Q384.4219,472.4063 385.0625,472.5781 Q385.7188,472.7344 386.2656,473.0938 Z " fill="#000000"/><text fill="#000000" font-family="sans-serif" font-size="14" lengthAdjust="spacing" textLength="111.2686" x="397.5" y="482.9473">PacienteDAOImpl</text><line style="stroke:#181818;stroke-width:0.5;" x1="369.5" x2="510.7686" y1="493.2188" y2="493.2188"/><line style="stroke:#181818;stroke-width:0.5;" x1="369.5" x2="510.7686" y1="501.2188" y2="501.2188"/></g><!--class PagoDAOImpl--><g id="elem_PagoDAOImpl"><rect codeLine="31" fill="#F1F1F1" height="48" id="PagoDAOImpl" rx="2.5" ry="2.5" style="stroke:#181818;stroke-width:0.5;" width="121.4824" x="546.5" y="461.2188"/><ellipse cx="561.5" cy="477.2188" fill="#ADD1B2" rx="11" ry="11" style="stroke:#181818;stroke-width:1;"/><path d="M564.2656,473.0938 Q564.4219,472.875 564.6094,472.7656 Q564.7969,472.6563 565.0156,472.6563 Q565.3906,472.6563 565.625,472.9219 Q565.8594,473.1719 565.8594,473.7813 L565.8594,475.2344 Q565.8594,475.8438 565.625,476.1094 Q565.3906,476.375 565.0156,476.375 Q564.6719,476.375 564.4688,476.1719 Q564.2656,475.9844 564.1563,475.4688 Q564.1094,475.1094 563.9219,474.9219 Q563.5938,474.5469 562.9844,474.3281 Q562.375,474.1094 561.75,474.1094 Q560.9844,474.1094 560.3438,474.4375 Q559.7188,474.7656 559.2188,475.5156 Q558.7344,476.2656 558.7344,477.2969 L558.7344,478.3906 Q558.7344,479.625 559.625,480.4531 Q560.5156,481.2656 562.1094,481.2656 Q563.0469,481.2656 563.7031,481.0156 Q564.0938,480.8594 564.5156,480.4219 Q564.7813,480.1563 564.9219,480.0781 Q565.0781,480 565.2813,480 Q565.6094,480 565.8594,480.2656 Q566.125,480.5156 566.125,480.8594 Q566.125,481.2031 565.7813,481.6094 Q565.2813,482.1875 564.4844,482.5156 Q563.4063,482.9688 562.1094,482.9688 Q560.5938,482.9688 559.3906,482.3438 Q558.4063,481.8438 557.7188,480.7813 Q557.0313,479.7031 557.0313,478.4219 L557.0313,477.2656 Q557.0313,475.9375 557.6406,474.7969 Q558.2656,473.6406 559.3594,473.0313 Q560.4531,472.4063 561.6875,472.4063 Q562.4219,472.4063 563.0625,472.5781 Q563.7188,472.7344 564.2656,473.0938 Z " fill="#000000"/><text fill="#000000" font-family="sans-serif" font-size="14" lengthAdjust="spacing" textLength="89.4824" x="575.5" y="482.9473">PagoDAOImpl</text><line style="stroke:#181818;stroke-width:0.5;" x1="547.5" x2="666.9824" y1="493.2188" y2="493.2188"/><line style="stroke:#181818;stroke-width:0.5;" x1="547.5" x2="666.9824" y1="501.2188" y2="501.2188"/></g><!--class HistDAOImpl--><g id="elem_HistDAOImpl"><rect codeLine="32" fill="#F1F1F1" height="48" id="HistDAOImpl" rx="2.5" ry="2.5" style="stroke:#181818;stroke-width:0.5;" width="136.2412" x="703" y="461.2188"/><ellipse cx="718" cy="477.2188" fill="#ADD1B2" rx="11" ry="11" style="stroke:#181818;stroke-width:1;"/><path d="M720.7656,473.0938 Q720.9219,472.875 721.1094,472.7656 Q721.2969,472.6563 721.5156,472.6563 Q721.8906,472.6563 722.125,472.9219 Q722.3594,473.1719 722.3594,473.7813 L722.3594,475.2344 Q722.3594,475.8438 722.125,476.1094 Q721.8906,476.375 721.5156,476.375 Q721.1719,476.375 720.9688,476.1719 Q720.7656,475.9844 720.6563,475.4688 Q720.6094,475.1094 720.4219,474.9219 Q720.0938,474.5469 719.4844,474.3281 Q718.875,474.1094 718.25,474.1094 Q717.4844,474.1094 716.8438,474.4375 Q716.2188,474.7656 715.7188,475.5156 Q715.2344,476.2656 715.2344,477.2969 L715.2344,478.3906 Q715.2344,479.625 716.125,480.4531 Q717.0156,481.2656 718.6094,481.2656 Q719.5469,481.2656 720.2031,481.0156 Q720.5938,480.8594 721.0156,480.4219 Q721.2813,480.1563 721.4219,480.0781 Q721.5781,480 721.7813,480 Q722.1094,480 722.3594,480.2656 Q722.625,480.5156 722.625,480.8594 Q722.625,481.2031 722.2813,481.6094 Q721.7813,482.1875 720.9844,482.5156 Q719.9063,482.9688 718.6094,482.9688 Q717.0938,482.9688 715.8906,482.3438 Q714.9063,481.8438 714.2188,480.7813 Q713.5313,479.7031 713.5313,478.4219 L713.5313,477.2656 Q713.5313,475.9375 714.1406,474.7969 Q714.7656,473.6406 715.8594,473.0313 Q716.9531,472.4063 718.1875,472.4063 Q718.9219,472.4063 719.5625,472.5781 Q720.2188,472.7344 720.7656,473.0938 Z " fill="#000000"/><text fill="#000000" font-family="sans-serif" font-size="14" lengthAdjust="spacing" textLength="104.2412" x="732" y="482.9473">HistoriaDAOImpl</text><line style="stroke:#181818;stroke-width:0.5;" x1="704" x2="838.2412" y1="493.2188" y2="493.2188"/><line style="stroke:#181818;stroke-width:0.5;" x1="704" x2="838.2412" y1="501.2188" y2="501.2188"/></g><!--class AudDAOImpl--><g id="elem_AudDAOImpl"><rect codeLine="33" fill="#F1F1F1" height="48" id="AudDAOImpl" rx="2.5" ry="2.5" style="stroke:#181818;stroke-width:0.5;" width="144.041" x="874" y="461.2188"/><ellipse cx="889" cy="477.2188" fill="#ADD1B2" rx="11" ry="11" style="stroke:#181818;stroke-width:1;"/><path d="M891.7656,473.0938 Q891.9219,472.875 892.1094,472.7656 Q892.2969,472.6563 892.5156,472.6563 Q892.8906,472.6563 893.125,472.9219 Q893.3594,473.1719 893.3594,473.7813 L893.3594,475.2344 Q893.3594,475.8438 893.125,476.1094 Q892.8906,476.375 892.5156,476.375 Q892.1719,476.375 891.9688,476.1719 Q891.7656,475.9844 891.6563,475.4688 Q891.6094,475.1094 891.4219,474.9219 Q891.0938,474.5469 890.4844,474.3281 Q889.875,474.1094 889.25,474.1094 Q888.4844,474.1094 887.8438,474.4375 Q887.2188,474.7656 886.7188,475.5156 Q886.2344,476.2656 886.2344,477.2969 L886.2344,478.3906 Q886.2344,479.625 887.125,480.4531 Q888.0156,481.2656 889.6094,481.2656 Q890.5469,481.2656 891.2031,481.0156 Q891.5938,480.8594 892.0156,480.4219 Q892.2813,480.1563 892.4219,480.0781 Q892.5781,480 892.7813,480 Q893.1094,480 893.3594,480.2656 Q893.625,480.5156 893.625,480.8594 Q893.625,481.2031 893.2813,481.6094 Q892.7813,482.1875 891.9844,482.5156 Q890.9063,482.9688 889.6094,482.9688 Q888.0938,482.9688 886.8906,482.3438 Q885.9063,481.8438 885.2188,480.7813 Q884.5313,479.7031 884.5313,478.4219 L884.5313,477.2656 Q884.5313,475.9375 885.1406,474.7969 Q885.7656,473.6406 886.8594,473.0313 Q887.9531,472.4063 889.1875,472.4063 Q889.9219,472.4063 890.5625,472.5781 Q891.2188,472.7344 891.7656,473.0938 Z " fill="#000000"/><text fill="#000000" font-family="sans-serif" font-size="14" lengthAdjust="spacing" textLength="112.041" x="903" y="482.9473">AuditoriaDAOImpl</text><line style="stroke:#181818;stroke-width:0.5;" x1="875" x2="1017.041" y1="493.2188" y2="493.2188"/><line style="stroke:#181818;stroke-width:0.5;" x1="875" x2="1017.041" y1="501.2188" y2="501.2188"/></g><!--class RepDAOImpl--><g id="elem_RepDAOImpl"><rect codeLine="34" fill="#F1F1F1" height="48" id="RepDAOImpl" rx="2.5" ry="2.5" style="stroke:#181818;stroke-width:0.5;" width="138.5928" x="1053.5" y="461.2188"/><ellipse cx="1068.5" cy="477.2188" fill="#ADD1B2" rx="11" ry="11" style="stroke:#181818;stroke-width:1;"/><path d="M1071.2656,473.0938 Q1071.4219,472.875 1071.6094,472.7656 Q1071.7969,472.6563 1072.0156,472.6563 Q1072.3906,472.6563 1072.625,472.9219 Q1072.8594,473.1719 1072.8594,473.7813 L1072.8594,475.2344 Q1072.8594,475.8438 1072.625,476.1094 Q1072.3906,476.375 1072.0156,476.375 Q1071.6719,476.375 1071.4688,476.1719 Q1071.2656,475.9844 1071.1563,475.4688 Q1071.1094,475.1094 1070.9219,474.9219 Q1070.5938,474.5469 1069.9844,474.3281 Q1069.375,474.1094 1068.75,474.1094 Q1067.9844,474.1094 1067.3438,474.4375 Q1066.7188,474.7656 1066.2188,475.5156 Q1065.7344,476.2656 1065.7344,477.2969 L1065.7344,478.3906 Q1065.7344,479.625 1066.625,480.4531 Q1067.5156,481.2656 1069.1094,481.2656 Q1070.0469,481.2656 1070.7031,481.0156 Q1071.0938,480.8594 1071.5156,480.4219 Q1071.7813,480.1563 1071.9219,480.0781 Q1072.0781,480 1072.2813,480 Q1072.6094,480 1072.8594,480.2656 Q1073.125,480.5156 1073.125,480.8594 Q1073.125,481.2031 1072.7813,481.6094 Q1072.2813,482.1875 1071.4844,482.5156 Q1070.4063,482.9688 1069.1094,482.9688 Q1067.5938,482.9688 1066.3906,482.3438 Q1065.4063,481.8438 1064.7188,480.7813 Q1064.0313,479.7031 1064.0313,478.4219 L1064.0313,477.2656 Q1064.0313,475.9375 1064.6406,474.7969 Q1065.2656,473.6406 1066.3594,473.0313 Q1067.4531,472.4063 1068.6875,472.4063 Q1069.4219,472.4063 1070.0625,472.5781 Q1070.7188,472.7344 1071.2656,473.0938 Z " fill="#000000"/><text fill="#000000" font-family="sans-serif" font-size="14" lengthAdjust="spacing" textLength="106.5928" x="1082.5" y="482.9473">ReporteDAOImpl</text><line style="stroke:#181818;stroke-width:0.5;" x1="1054.5" x2="1191.0928" y1="493.2188" y2="493.2188"/><line style="stroke:#181818;stroke-width:0.5;" x1="1054.5" x2="1191.0928" y1="501.2188" y2="501.2188"/></g><!--class EspDAOImpl--><g id="elem_EspDAOImpl"><rect codeLine="35" fill="#F1F1F1" height="48" id="EspDAOImpl" rx="2.5" ry="2.5" style="stroke:#181818;stroke-width:0.5;" width="138.5928" x="1227.5" y="461.2188"/><ellipse cx="1242.5" cy="477.2188" fill="#ADD1B2" rx="11" ry="11" style="stroke:#181818;stroke-width:1;"/><path d="M1245.2656,473.0938 Q1245.4219,472.875 1245.6094,472.7656 Q1245.7969,472.6563 1246.0156,472.6563 Q1246.3906,472.6563 1246.625,472.9219 Q1246.8594,473.1719 1246.8594,473.7813 L1246.8594,475.2344 Q1246.8594,475.8438 1246.625,476.1094 Q1246.3906,476.375 1246.0156,476.375 Q1245.6719,476.375 1245.4688,476.1719 Q1245.2656,475.9844 1245.1563,475.4688 Q1245.1094,475.1094 1244.9219,474.9219 Q1244.5938,474.5469 1243.9844,474.3281 Q1243.375,474.1094 1242.75,474.1094 Q1241.9844,474.1094 1241.3438,474.4375 Q1240.7188,474.7656 1240.2188,475.5156 Q1239.7344,476.2656 1239.7344,477.2969 L1239.7344,478.3906 Q1239.7344,479.625 1240.625,480.4531 Q1241.5156,481.2656 1243.1094,481.2656 Q1244.0469,481.2656 1244.7031,481.0156 Q1245.0938,480.8594 1245.5156,480.4219 Q1245.7813,480.1563 1245.9219,480.0781 Q1246.0781,480 1246.2813,480 Q1246.6094,480 1246.8594,480.2656 Q1247.125,480.5156 1247.125,480.8594 Q1247.125,481.2031 1246.7813,481.6094 Q1246.2813,482.1875 1245.4844,482.5156 Q1244.4063,482.9688 1243.1094,482.9688 Q1241.5938,482.9688 1240.3906,482.3438 Q1239.4063,481.8438 1238.7188,480.7813 Q1238.0313,479.7031 1238.0313,478.4219 L1238.0313,477.2656 Q1238.0313,475.9375 1238.6406,474.7969 Q1239.2656,473.6406 1240.3594,473.0313 Q1241.4531,472.4063 1242.6875,472.4063 Q1243.4219,472.4063 1244.0625,472.5781 Q1244.7188,472.7344 1245.2656,473.0938 Z " fill="#000000"/><text fill="#000000" font-family="sans-serif" font-size="14" lengthAdjust="spacing" textLength="106.5928" x="1256.5" y="482.9473">EspacioDAOImpl</text><line style="stroke:#181818;stroke-width:0.5;" x1="1228.5" x2="1365.0928" y1="493.2188" y2="493.2188"/><line style="stroke:#181818;stroke-width:0.5;" x1="1228.5" x2="1365.0928" y1="501.2188" y2="501.2188"/></g><!--class Usuario--><g id="elem_Usuario"><rect codeLine="39" fill="#F1F1F1" height="188.875" id="Usuario" rx="2.5" ry="2.5" style="stroke:#181818;stroke-width:0.5;" width="187.0752" x="46.5" y="619.7188"/><ellipse cx="111.667" cy="635.7188" fill="#ADD1B2" rx="11" ry="11" style="stroke:#181818;stroke-width:1;"/><path d="M114.4326,631.5938 Q114.5889,631.375 114.7764,631.2656 Q114.9639,631.1563 115.1826,631.1563 Q115.5576,631.1563 115.792,631.4219 Q116.0264,631.6719 116.0264,632.2813 L116.0264,633.7344 Q116.0264,634.3438 115.792,634.6094 Q115.5576,634.875 115.1826,634.875 Q114.8389,634.875 114.6357,634.6719 Q114.4326,634.4844 114.3232,633.9688 Q114.2764,633.6094 114.0889,633.4219 Q113.7607,633.0469 113.1514,632.8281 Q112.542,632.6094 111.917,632.6094 Q111.1514,632.6094 110.5107,632.9375 Q109.8857,633.2656 109.3857,634.0156 Q108.9014,634.7656 108.9014,635.7969 L108.9014,636.8906 Q108.9014,638.125 109.792,638.9531 Q110.6826,639.7656 112.2764,639.7656 Q113.2139,639.7656 113.8701,639.5156 Q114.2607,639.3594 114.6826,638.9219 Q114.9482,638.6563 115.0889,638.5781 Q115.2451,638.5 115.4482,638.5 Q115.7764,638.5 116.0264,638.7656 Q116.292,639.0156 116.292,639.3594 Q116.292,639.7031 115.9482,640.1094 Q115.4482,640.6875 114.6514,641.0156 Q113.5732,641.4688 112.2764,641.4688 Q110.7607,641.4688 109.5576,640.8438 Q108.5732,640.3438 107.8857,639.2813 Q107.1982,638.2031 107.1982,636.9219 L107.1982,635.7656 Q107.1982,634.4375 107.8076,633.2969 Q108.4326,632.1406 109.5264,631.5313 Q110.6201,630.9063 111.8545,630.9063 Q112.5889,630.9063 113.2295,631.0781 Q113.8857,631.2344 114.4326,631.5938 Z " fill="#000000"/><text fill="#000000" font-family="sans-serif" font-size="14" lengthAdjust="spacing" textLength="48.2412" x="132.167" y="641.4473">Usuario</text><line style="stroke:#181818;stroke-width:0.5;" x1="47.5" x2="232.5752" y1="651.7188" y2="651.7188"/><ellipse cx="57.5" cy="666.0234" fill="transparent" rx="3" ry="3" style="stroke:#038048;stroke-width:1;"/><text fill="#000000" font-family="sans-serif" font-size="14" lengthAdjust="spacing" textLength="81.7031" x="66.5" y="670.252">idUsuario: int</text><ellipse cx="57.5" cy="683.6328" fill="transparent" rx="3" ry="3" style="stroke:#038048;stroke-width:1;"/><text fill="#000000" font-family="sans-serif" font-size="14" lengthAdjust="spacing" textLength="136.1787" x="66.5" y="687.8613">tipoDocumento: string</text><ellipse cx="57.5" cy="701.2422" fill="transparent" rx="3" ry="3" style="stroke:#038048;stroke-width:1;"/><text fill="#000000" font-family="sans-serif" font-size="14" lengthAdjust="spacing" textLength="161.0752" x="66.5" y="705.4707">numeroDocumento: string</text><ellipse cx="57.5" cy="718.8516" fill="transparent" rx="3" ry="3" style="stroke:#038048;stroke-width:1;"/><text fill="#000000" font-family="sans-serif" font-size="14" lengthAdjust="spacing" textLength="96.4824" x="66.5" y="723.0801">nombres: string</text><ellipse cx="57.5" cy="736.4609" fill="transparent" rx="3" ry="3" style="stroke:#038048;stroke-width:1;"/><text fill="#000000" font-family="sans-serif" font-size="14" lengthAdjust="spacing" textLength="97.2754" x="66.5" y="740.6895">apellidos: string</text><ellipse cx="57.5" cy="754.0703" fill="transparent" rx="3" ry="3" style="stroke:#038048;stroke-width:1;"/><text fill="#000000" font-family="sans-serif" font-size="14" lengthAdjust="spacing" textLength="81.6963" x="66.5" y="758.2988">correo: string</text><ellipse cx="57.5" cy="771.6797" fill="transparent" rx="3" ry="3" style="stroke:#038048;stroke-width:1;"/><text fill="#000000" font-family="sans-serif" font-size="14" lengthAdjust="spacing" textLength="91.834" x="66.5" y="775.9082">telefono: string</text><ellipse cx="57.5" cy="789.2891" fill="transparent" rx="3" ry="3" style="stroke:#038048;stroke-width:1;"/><text fill="#000000" font-family="sans-serif" font-size="14" lengthAdjust="spacing" textLength="52.124" x="66.5" y="793.5176">rolID: int</text><line style="stroke:#181818;stroke-width:0.5;" x1="47.5" x2="232.5752" y1="800.5938" y2="800.5938"/></g><!--class Cita--><g id="elem_Cita"><rect codeLine="49" fill="#F1F1F1" height="153.6563" id="Cita" rx="2.5" ry="2.5" style="stroke:#181818;stroke-width:0.5;" width="159.0547" x="268.5" y="637.2188"/><ellipse cx="331.3291" cy="653.2188" fill="#ADD1B2" rx="11" ry="11" style="stroke:#181818;stroke-width:1;"/><path d="M334.0947,649.0938 Q334.251,648.875 334.4385,648.7656 Q334.626,648.6563 334.8447,648.6563 Q335.2197,648.6563 335.4541,648.9219 Q335.6885,649.1719 335.6885,649.7813 L335.6885,651.2344 Q335.6885,651.8438 335.4541,652.1094 Q335.2197,652.375 334.8447,652.375 Q334.501,652.375 334.2979,652.1719 Q334.0947,651.9844 333.9854,651.4688 Q333.9385,651.1094 333.751,650.9219 Q333.4229,650.5469 332.8135,650.3281 Q332.2041,650.1094 331.5791,650.1094 Q330.8135,650.1094 330.1729,650.4375 Q329.5479,650.7656 329.0479,651.5156 Q328.5635,652.2656 328.5635,653.2969 L328.5635,654.3906 Q328.5635,655.625 329.4541,656.4531 Q330.3447,657.2656 331.9385,657.2656 Q332.876,657.2656 333.5322,657.0156 Q333.9229,656.8594 334.3447,656.4219 Q334.6104,656.1563 334.751,656.0781 Q334.9072,656 335.1104,656 Q335.4385,656 335.6885,656.2656 Q335.9541,656.5156 335.9541,656.8594 Q335.9541,657.2031 335.6104,657.6094 Q335.1104,658.1875 334.3135,658.5156 Q333.2354,658.9688 331.9385,658.9688 Q330.4229,658.9688 329.2197,658.3438 Q328.2354,657.8438 327.5479,656.7813 Q326.8604,655.7031 326.8604,654.4219 L326.8604,653.2656 Q326.8604,651.9375 327.4697,650.7969 Q328.0947,649.6406 329.1885,649.0313 Q330.2822,648.4063 331.5166,648.4063 Q332.251,648.4063 332.8916,648.5781 Q333.5479,648.7344 334.0947,649.0938 Z " fill="#000000"/><text fill="#000000" font-family="sans-serif" font-size="14" lengthAdjust="spacing" textLength="24.8965" x="351.8291" y="658.9473">Cita</text><line style="stroke:#181818;stroke-width:0.5;" x1="269.5" x2="426.5547" y1="669.2188" y2="669.2188"/><ellipse cx="279.5" cy="683.5234" fill="transparent" rx="3" ry="3" style="stroke:#038048;stroke-width:1;"/><text fill="#000000" font-family="sans-serif" font-size="14" lengthAdjust="spacing" textLength="58.3584" x="288.5" y="687.752">idCita: int</text><ellipse cx="279.5" cy="701.1328" fill="transparent" rx="3" ry="3" style="stroke:#038048;stroke-width:1;"/><text fill="#000000" font-family="sans-serif" font-size="14" lengthAdjust="spacing" textLength="87.9443" x="288.5" y="705.3613">idPaciente: int</text><ellipse cx="279.5" cy="718.7422" fill="transparent" rx="3" ry="3" style="stroke:#038048;stroke-width:1;"/><text fill="#000000" font-family="sans-serif" font-size="14" lengthAdjust="spacing" textLength="78.5928" x="288.5" y="722.9707">idMedico: int</text><ellipse cx="279.5" cy="736.3516" fill="transparent" rx="3" ry="3" style="stroke:#038048;stroke-width:1;"/><text fill="#000000" font-family="sans-serif" font-size="14" lengthAdjust="spacing" textLength="133.0547" x="288.5" y="740.5801">fechaHora: DateTime</text><ellipse cx="279.5" cy="753.9609" fill="transparent" rx="3" ry="3" style="stroke:#038048;stroke-width:1;"/><text fill="#000000" font-family="sans-serif" font-size="14" lengthAdjust="spacing" textLength="84.0479" x="288.5" y="758.1895">estado: string</text><ellipse cx="279.5" cy="771.5703" fill="transparent" rx="3" ry="3" style="stroke:#038048;stroke-width:1;"/><text fill="#000000" font-family="sans-serif" font-size="14" lengthAdjust="spacing" textLength="83.248" x="288.5" y="775.7988">motivo: string</text><line style="stroke:#181818;stroke-width:0.5;" x1="269.5" x2="426.5547" y1="782.875" y2="782.875"/></g><!--class Paciente--><g id="elem_Paciente"><rect codeLine="57" fill="#F1F1F1" height="206.4844" id="Paciente" rx="2.5" ry="2.5" style="stroke:#181818;stroke-width:0.5;" width="124.041" x="463" y="611.2188"/><ellipse cx="494.9014" cy="627.2188" fill="#ADD1B2" rx="11" ry="11" style="stroke:#181818;stroke-width:1;"/><path d="M497.667,623.0938 Q497.8232,622.875 498.0107,622.7656 Q498.1982,622.6563 498.417,622.6563 Q498.792,622.6563 499.0264,622.9219 Q499.2607,623.1719 499.2607,623.7813 L499.2607,625.2344 Q499.2607,625.8438 499.0264,626.1094 Q498.792,626.375 498.417,626.375 Q498.0732,626.375 497.8701,626.1719 Q497.667,625.9844 497.5576,625.4688 Q497.5107,625.1094 497.3232,624.9219 Q496.9951,624.5469 496.3857,624.3281 Q495.7764,624.1094 495.1514,624.1094 Q494.3857,624.1094 493.7451,624.4375 Q493.1201,624.7656 492.6201,625.5156 Q492.1357,626.2656 492.1357,627.2969 L492.1357,628.3906 Q492.1357,629.625 493.0264,630.4531 Q493.917,631.2656 495.5107,631.2656 Q496.4482,631.2656 497.1045,631.0156 Q497.4951,630.8594 497.917,630.4219 Q498.1826,630.1563 498.3232,630.0781 Q498.4795,630 498.6826,630 Q499.0107,630 499.2607,630.2656 Q499.5264,630.5156 499.5264,630.8594 Q499.5264,631.2031 499.1826,631.6094 Q498.6826,632.1875 497.8857,632.5156 Q496.8076,632.9688 495.5107,632.9688 Q493.9951,632.9688 492.792,632.3438 Q491.8076,631.8438 491.1201,630.7813 Q490.4326,629.7031 490.4326,628.4219 L490.4326,627.2656 Q490.4326,625.9375 491.042,624.7969 Q491.667,623.6406 492.7607,623.0313 Q493.8545,622.4063 495.0889,622.4063 Q495.8232,622.4063 496.4639,622.5781 Q497.1201,622.7344 497.667,623.0938 Z " fill="#000000"/><text fill="#000000" font-family="sans-serif" font-size="14" lengthAdjust="spacing" textLength="54.4824" x="512.6572" y="632.9473">Paciente</text><line style="stroke:#181818;stroke-width:0.5;" x1="464" x2="586.041" y1="643.2188" y2="643.2188"/><ellipse cx="474" cy="657.5234" fill="transparent" rx="3" ry="3" style="stroke:#038048;stroke-width:1;"/><text fill="#000000" font-family="sans-serif" font-size="14" lengthAdjust="spacing" textLength="87.9443" x="483" y="661.752">idPaciente: int</text><ellipse cx="474" cy="675.1328" fill="transparent" rx="3" ry="3" style="stroke:#038048;stroke-width:1;"/><text fill="#000000" font-family="sans-serif" font-size="14" lengthAdjust="spacing" textLength="89.4824" x="483" y="679.3613">tipoDoc: string</text><ellipse cx="474" cy="692.7422" fill="transparent" rx="3" ry="3" style="stroke:#038048;stroke-width:1;"/><text fill="#000000" font-family="sans-serif" font-size="14" lengthAdjust="spacing" textLength="60.6963" x="483" y="696.9707">dni: string</text><ellipse cx="474" cy="710.3516" fill="transparent" rx="3" ry="3" style="stroke:#038048;stroke-width:1;"/><text fill="#000000" font-family="sans-serif" font-size="14" lengthAdjust="spacing" textLength="96.4824" x="483" y="714.5801">nombres: string</text><ellipse cx="474" cy="727.9609" fill="transparent" rx="3" ry="3" style="stroke:#038048;stroke-width:1;"/><text fill="#000000" font-family="sans-serif" font-size="14" lengthAdjust="spacing" textLength="97.2754" x="483" y="732.1895">apellidos: string</text><ellipse cx="474" cy="745.5703" fill="transparent" rx="3" ry="3" style="stroke:#038048;stroke-width:1;"/><text fill="#000000" font-family="sans-serif" font-size="14" lengthAdjust="spacing" textLength="96.4961" x="483" y="749.7988">fechaNac: Date</text><ellipse cx="474" cy="763.1797" fill="transparent" rx="3" ry="3" style="stroke:#038048;stroke-width:1;"/><text fill="#000000" font-family="sans-serif" font-size="14" lengthAdjust="spacing" textLength="91.834" x="483" y="767.4082">telefono: string</text><ellipse cx="474" cy="780.7891" fill="transparent" rx="3" ry="3" style="stroke:#038048;stroke-width:1;"/><text fill="#000000" font-family="sans-serif" font-size="14" lengthAdjust="spacing" textLength="81.6963" x="483" y="785.0176">correo: string</text><ellipse cx="474" cy="798.3984" fill="transparent" rx="3" ry="3" style="stroke:#038048;stroke-width:1;"/><text fill="#000000" font-family="sans-serif" font-size="14" lengthAdjust="spacing" textLength="98.041" x="483" y="802.627">direccion: string</text><line style="stroke:#181818;stroke-width:0.5;" x1="464" x2="586.041" y1="809.7031" y2="809.7031"/></g><!--class Pago--><g id="elem_Pago"><rect codeLine="68" fill="#F1F1F1" height="188.875" id="Pago" rx="2.5" ry="2.5" style="stroke:#181818;stroke-width:0.5;" width="161.4063" x="622.5" y="619.7188"/><ellipse cx="682.605" cy="635.7188" fill="#ADD1B2" rx="11" ry="11" style="stroke:#181818;stroke-width:1;"/><path d="M685.3706,631.5938 Q685.5269,631.375 685.7144,631.2656 Q685.9019,631.1563 686.1206,631.1563 Q686.4956,631.1563 686.73,631.4219 Q686.9644,631.6719 686.9644,632.2813 L686.9644,633.7344 Q686.9644,634.3438 686.73,634.6094 Q686.4956,634.875 686.1206,634.875 Q685.7769,634.875 685.5737,634.6719 Q685.3706,634.4844 685.2612,633.9688 Q685.2144,633.6094 685.0269,633.4219 Q684.6987,633.0469 684.0894,632.8281 Q683.48,632.6094 682.855,632.6094 Q682.0894,632.6094 681.4487,632.9375 Q680.8237,633.2656 680.3237,634.0156 Q679.8394,634.7656 679.8394,635.7969 L679.8394,636.8906 Q679.8394,638.125 680.73,638.9531 Q681.6206,639.7656 683.2144,639.7656 Q684.1519,639.7656 684.8081,639.5156 Q685.1987,639.3594 685.6206,638.9219 Q685.8862,638.6563 686.0269,638.5781 Q686.1831,638.5 686.3862,638.5 Q686.7144,638.5 686.9644,638.7656 Q687.23,639.0156 687.23,639.3594 Q687.23,639.7031 686.8862,640.1094 Q686.3862,640.6875 685.5894,641.0156 Q684.5112,641.4688 683.2144,641.4688 Q681.6987,641.4688 680.4956,640.8438 Q679.5112,640.3438 678.8237,639.2813 Q678.1362,638.2031 678.1362,636.9219 L678.1362,635.7656 Q678.1362,634.4375 678.7456,633.2969 Q679.3706,632.1406 680.4644,631.5313 Q681.5581,630.9063 682.7925,630.9063 Q683.5269,630.9063 684.1675,631.0781 Q684.8237,631.2344 685.3706,631.5938 Z " fill="#000000"/><text fill="#000000" font-family="sans-serif" font-size="14" lengthAdjust="spacing" textLength="32.6963" x="703.105" y="641.4473">Pago</text><line style="stroke:#181818;stroke-width:0.5;" x1="623.5" x2="782.9063" y1="651.7188" y2="651.7188"/><ellipse cx="633.5" cy="666.0234" fill="transparent" rx="3" ry="3" style="stroke:#038048;stroke-width:1;"/><text fill="#000000" font-family="sans-serif" font-size="14" lengthAdjust="spacing" textLength="66.1582" x="642.5" y="670.252">idPago: int</text><ellipse cx="633.5" cy="683.6328" fill="transparent" rx="3" ry="3" style="stroke:#038048;stroke-width:1;"/><text fill="#000000" font-family="sans-serif" font-size="14" lengthAdjust="spacing" textLength="85.5928" x="642.5" y="687.8613">idReserva: int</text><ellipse cx="633.5" cy="701.2422" fill="transparent" rx="3" ry="3" style="stroke:#038048;stroke-width:1;"/><text fill="#000000" font-family="sans-serif" font-size="14" lengthAdjust="spacing" textLength="94.9307" x="642.5" y="705.4707">monto: decimal</text><ellipse cx="633.5" cy="718.8516" fill="transparent" rx="3" ry="3" style="stroke:#038048;stroke-width:1;"/><text fill="#000000" font-family="sans-serif" font-size="14" lengthAdjust="spacing" textLength="112.8271" x="642.5" y="723.0801">impuesto: decimal</text><ellipse cx="633.5" cy="736.4609" fill="transparent" rx="3" ry="3" style="stroke:#038048;stroke-width:1;"/><text fill="#000000" font-family="sans-serif" font-size="14" lengthAdjust="spacing" textLength="120.627" x="642.5" y="740.6895">descuento: decimal</text><ellipse cx="633.5" cy="754.0703" fill="transparent" rx="3" ry="3" style="stroke:#038048;stroke-width:1;"/><text fill="#000000" font-family="sans-serif" font-size="14" lengthAdjust="spacing" textLength="110.4961" x="642.5" y="758.2988">formaPago: string</text><ellipse cx="633.5" cy="771.6797" fill="transparent" rx="3" ry="3" style="stroke:#038048;stroke-width:1;"/><text fill="#000000" font-family="sans-serif" font-size="14" lengthAdjust="spacing" textLength="135.4063" x="642.5" y="775.9082">fechaPago: DateTime</text><ellipse cx="633.5" cy="789.2891" fill="transparent" rx="3" ry="3" style="stroke:#038048;stroke-width:1;"/><text fill="#000000" font-family="sans-serif" font-size="14" lengthAdjust="spacing" textLength="104.2686" x="642.5" y="793.5176">referencia: string</text><line style="stroke:#181818;stroke-width:0.5;" x1="623.5" x2="782.9063" y1="800.5938" y2="800.5938"/></g><!--class HistoriaClinica--><g id="elem_HistoriaClinica"><rect codeLine="78" fill="#F1F1F1" height="206.4844" id="HistoriaClinica" rx="2.5" ry="2.5" style="stroke:#181818;stroke-width:0.5;" width="181.6406" x="819" y="611.2188"/><ellipse cx="861.0773" cy="627.2188" fill="#ADD1B2" rx="11" ry="11" style="stroke:#181818;stroke-width:1;"/><path d="M863.843,623.0938 Q863.9992,622.875 864.1867,622.7656 Q864.3742,622.6563 864.593,622.6563 Q864.968,622.6563 865.2023,622.9219 Q865.4367,623.1719 865.4367,623.7813 L865.4367,625.2344 Q865.4367,625.8438 865.2023,626.1094 Q864.968,626.375 864.593,626.375 Q864.2492,626.375 864.0461,626.1719 Q863.843,625.9844 863.7336,625.4688 Q863.6867,625.1094 863.4992,624.9219 Q863.1711,624.5469 862.5617,624.3281 Q861.9523,624.1094 861.3273,624.1094 Q860.5617,624.1094 859.9211,624.4375 Q859.2961,624.7656 858.7961,625.5156 Q858.3117,626.2656 858.3117,627.2969 L858.3117,628.3906 Q858.3117,629.625 859.2023,630.4531 Q860.093,631.2656 861.6867,631.2656 Q862.6242,631.2656 863.2805,631.0156 Q863.6711,630.8594 864.093,630.4219 Q864.3586,630.1563 864.4992,630.0781 Q864.6555,630 864.8586,630 Q865.1867,630 865.4367,630.2656 Q865.7023,630.5156 865.7023,630.8594 Q865.7023,631.2031 865.3586,631.6094 Q864.8586,632.1875 864.0617,632.5156 Q862.9836,632.9688 861.6867,632.9688 Q860.1711,632.9688 858.968,632.3438 Q857.9836,631.8438 857.2961,630.7813 Q856.6086,629.7031 856.6086,628.4219 L856.6086,627.2656 Q856.6086,625.9375 857.218,624.7969 Q857.843,623.6406 858.9367,623.0313 Q860.0305,622.4063 861.2648,622.4063 Q861.9992,622.4063 862.6398,622.5781 Q863.2961,622.7344 863.843,623.0938 Z " fill="#000000"/><text fill="#000000" font-family="sans-serif" font-size="14" lengthAdjust="spacing" textLength="89.4688" x="881.0945" y="632.9473">HistoriaClinica</text><line style="stroke:#181818;stroke-width:0.5;" x1="820" x2="999.6406" y1="643.2188" y2="643.2188"/><ellipse cx="830" cy="657.5234" fill="transparent" rx="3" ry="3" style="stroke:#038048;stroke-width:1;"/><text fill="#000000" font-family="sans-serif" font-size="14" lengthAdjust="spacing" textLength="80.917" x="839" y="661.752">idHistoria: int</text><ellipse cx="830" cy="675.1328" fill="transparent" rx="3" ry="3" style="stroke:#038048;stroke-width:1;"/><text fill="#000000" font-family="sans-serif" font-size="14" lengthAdjust="spacing" textLength="87.9443" x="839" y="679.3613">idPaciente: int</text><ellipse cx="830" cy="692.7422" fill="transparent" rx="3" ry="3" style="stroke:#038048;stroke-width:1;"/><text fill="#000000" font-family="sans-serif" font-size="14" lengthAdjust="spacing" textLength="78.5928" x="839" y="696.9707">idMedico: int</text><ellipse cx="830" cy="710.3516" fill="transparent" rx="3" ry="3" style="stroke:#038048;stroke-width:1;"/><text fill="#000000" font-family="sans-serif" font-size="14" lengthAdjust="spacing" textLength="138.5029" x="839" y="714.5801">motivoConsulta: string</text><ellipse cx="830" cy="727.9609" fill="transparent" rx="3" ry="3" style="stroke:#038048;stroke-width:1;"/><text fill="#000000" font-family="sans-serif" font-size="14" lengthAdjust="spacing" textLength="155.6406" x="839" y="732.1895">enfermedadActual: string</text><ellipse cx="830" cy="745.5703" fill="transparent" rx="3" ry="3" style="stroke:#038048;stroke-width:1;"/><text fill="#000000" font-family="sans-serif" font-size="14" lengthAdjust="spacing" textLength="128.3789" x="839" y="749.7988">examenFisico: string</text><ellipse cx="830" cy="763.1797" fill="transparent" rx="3" ry="3" style="stroke:#038048;stroke-width:1;"/><text fill="#000000" font-family="sans-serif" font-size="14" lengthAdjust="spacing" textLength="151.751" x="839" y="767.4082">diagnosticoCIE10: string</text><ellipse cx="830" cy="780.7891" fill="transparent" rx="3" ry="3" style="stroke:#038048;stroke-width:1;"/><text fill="#000000" font-family="sans-serif" font-size="14" lengthAdjust="spacing" textLength="143.1787" x="839" y="785.0176">planTratamiento: string</text><ellipse cx="830" cy="798.3984" fill="transparent" rx="3" ry="3" style="stroke:#038048;stroke-width:1;"/><text fill="#000000" font-family="sans-serif" font-size="14" lengthAdjust="spacing" textLength="102.71" x="839" y="802.627">fecha: DateTime</text><line style="stroke:#181818;stroke-width:0.5;" x1="820" x2="999.6406" y1="809.7031" y2="809.7031"/></g><!--class Auditoria--><g id="elem_Auditoria"><rect codeLine="89" fill="#F1F1F1" height="188.875" id="Auditoria" rx="2.5" ry="2.5" style="stroke:#181818;stroke-width:0.5;" width="159.0547" x="1036.5" y="619.7188"/><ellipse cx="1084.1499" cy="635.7188" fill="#ADD1B2" rx="11" ry="11" style="stroke:#181818;stroke-width:1;"/><path d="M1086.9155,631.5938 Q1087.0718,631.375 1087.2593,631.2656 Q1087.4468,631.1563 1087.6655,631.1563 Q1088.0405,631.1563 1088.2749,631.4219 Q1088.5093,631.6719 1088.5093,632.2813 L1088.5093,633.7344 Q1088.5093,634.3438 1088.2749,634.6094 Q1088.0405,634.875 1087.6655,634.875 Q1087.3218,634.875 1087.1187,634.6719 Q1086.9155,634.4844 1086.8062,633.9688 Q1086.7593,633.6094 1086.5718,633.4219 Q1086.2437,633.0469 1085.6343,632.8281 Q1085.0249,632.6094 1084.3999,632.6094 Q1083.6343,632.6094 1082.9937,632.9375 Q1082.3687,633.2656 1081.8687,634.0156 Q1081.3843,634.7656 1081.3843,635.7969 L1081.3843,636.8906 Q1081.3843,638.125 1082.2749,638.9531 Q1083.1655,639.7656 1084.7593,639.7656 Q1085.6968,639.7656 1086.353,639.5156 Q1086.7437,639.3594 1087.1655,638.9219 Q1087.4312,638.6563 1087.5718,638.5781 Q1087.728,638.5 1087.9312,638.5 Q1088.2593,638.5 1088.5093,638.7656 Q1088.7749,639.0156 1088.7749,639.3594 Q1088.7749,639.7031 1088.4312,640.1094 Q1087.9312,640.6875 1087.1343,641.0156 Q1086.0562,641.4688 1084.7593,641.4688 Q1083.2437,641.4688 1082.0405,640.8438 Q1081.0562,640.3438 1080.3687,639.2813 Q1079.6812,638.2031 1079.6812,636.9219 L1079.6812,635.7656 Q1079.6812,634.4375 1080.2905,633.2969 Q1080.9155,632.1406 1082.0093,631.5313 Q1083.103,630.9063 1084.3374,630.9063 Q1085.0718,630.9063 1085.7124,631.0781 Q1086.3687,631.2344 1086.9155,631.5938 Z " fill="#000000"/><text fill="#000000" font-family="sans-serif" font-size="14" lengthAdjust="spacing" textLength="55.2549" x="1104.6499" y="641.4473">Auditoria</text><line style="stroke:#181818;stroke-width:0.5;" x1="1037.5" x2="1194.5547" y1="651.7188" y2="651.7188"/><ellipse cx="1047.5" cy="666.0234" fill="transparent" rx="3" ry="3" style="stroke:#038048;stroke-width:1;"/><text fill="#000000" font-family="sans-serif" font-size="14" lengthAdjust="spacing" textLength="88.7168" x="1056.5" y="670.252">idAuditoria: int</text><ellipse cx="1047.5" cy="683.6328" fill="transparent" rx="3" ry="3" style="stroke:#038048;stroke-width:1;"/><text fill="#000000" font-family="sans-serif" font-size="14" lengthAdjust="spacing" textLength="81.7031" x="1056.5" y="687.8613">idUsuario: int</text><ellipse cx="1047.5" cy="701.2422" fill="transparent" rx="3" ry="3" style="stroke:#038048;stroke-width:1;"/><text fill="#000000" font-family="sans-serif" font-size="14" lengthAdjust="spacing" textLength="82.4824" x="1056.5" y="705.4707">accion: string</text><ellipse cx="1047.5" cy="718.8516" fill="transparent" rx="3" ry="3" style="stroke:#038048;stroke-width:1;"/><text fill="#000000" font-family="sans-serif" font-size="14" lengthAdjust="spacing" textLength="87.9307" x="1056.5" y="723.0801">modulo: string</text><ellipse cx="1047.5" cy="736.4609" fill="transparent" rx="3" ry="3" style="stroke:#038048;stroke-width:1;"/><text fill="#000000" font-family="sans-serif" font-size="14" lengthAdjust="spacing" textLength="83.2686" x="1056.5" y="740.6895">detalle: string</text><ellipse cx="1047.5" cy="754.0703" fill="transparent" rx="3" ry="3" style="stroke:#038048;stroke-width:1;"/><text fill="#000000" font-family="sans-serif" font-size="14" lengthAdjust="spacing" textLength="133.0547" x="1056.5" y="758.2988">fechaHora: DateTime</text><ellipse cx="1047.5" cy="771.6797" fill="transparent" rx="3" ry="3" style="stroke:#038048;stroke-width:1;"/><text fill="#000000" font-family="sans-serif" font-size="14" lengthAdjust="spacing" textLength="111.2686" x="1056.5" y="775.9082">direccionIP: string</text><ellipse cx="1047.5" cy="789.2891" fill="transparent" rx="3" ry="3" style="stroke:#038048;stroke-width:1;"/><text fill="#000000" font-family="sans-serif" font-size="14" lengthAdjust="spacing" textLength="107.3789" x="1056.5" y="793.5176">dispositivo: string</text><line style="stroke:#181818;stroke-width:0.5;" x1="1037.5" x2="1194.5547" y1="800.5938" y2="800.5938"/></g><!--entity T1--><g id="elem_T1"><rect fill="#F1F1F1" height="40.6094" rx="2.5" ry="2.5" style="stroke:#181818;stroke-width:0.5;" width="128.041" x="1482" y="693.7188"/><polygon fill="#F1F1F1" points="1593.041,698.7188,1593.041,712.7188,1605.041,712.7188,1605.041,704.7188,1599.041,698.7188,1593.041,698.7188" style="stroke:#181818;stroke-width:0.5;"/><line style="stroke:#181818;stroke-width:0.5;" x1="1599.041" x2="1599.041" y1="698.7188" y2="704.7188"/><line style="stroke:#181818;stroke-width:0.5;" x1="1605.041" x2="1599.041" y1="704.7188" y2="704.7188"/><text fill="#000000" font-family="sans-serif" font-size="14" lengthAdjust="spacing" textLength="98.041" x="1492" y="721.252">Tabla: Usuarios</text></g><!--entity T2--><g id="elem_T2"><rect fill="#F1F1F1" height="40.6094" rx="2.5" ry="2.5" style="stroke:#181818;stroke-width:0.5;" width="104.6963" x="1645.5" y="693.7188"/><polygon fill="#F1F1F1" points="1733.1963,698.7188,1733.1963,712.7188,1745.1963,712.7188,1745.1963,704.7188,1739.1963,698.7188,1733.1963,698.7188" style="stroke:#181818;stroke-width:0.5;"/><line style="stroke:#181818;stroke-width:0.5;" x1="1739.1963" x2="1739.1963" y1="698.7188" y2="704.7188"/><line style="stroke:#181818;stroke-width:0.5;" x1="1745.1963" x2="1739.1963" y1="704.7188" y2="704.7188"/><text fill="#000000" font-family="sans-serif" font-size="14" lengthAdjust="spacing" textLength="74.6963" x="1655.5" y="721.252">Tabla: Citas</text></g><!--entity T3--><g id="elem_T3"><rect fill="#F1F1F1" height="40.6094" rx="2.5" ry="2.5" style="stroke:#181818;stroke-width:0.5;" width="134.2822" x="1786" y="693.7188"/><polygon fill="#F1F1F1" points="1903.2822,698.7188,1903.2822,712.7188,1915.2822,712.7188,1915.2822,704.7188,1909.2822,698.7188,1903.2822,698.7188" style="stroke:#181818;stroke-width:0.5;"/><line style="stroke:#181818;stroke-width:0.5;" x1="1909.2822" x2="1909.2822" y1="698.7188" y2="704.7188"/><line style="stroke:#181818;stroke-width:0.5;" x1="1915.2822" x2="1909.2822" y1="704.7188" y2="704.7188"/><text fill="#000000" font-family="sans-serif" font-size="14" lengthAdjust="spacing" textLength="104.2822" x="1796" y="721.252">Tabla: Pacientes</text></g><!--entity T4--><g id="elem_T4"><rect fill="#F1F1F1" height="40.6094" rx="2.5" ry="2.5" style="stroke:#181818;stroke-width:0.5;" width="112.4961" x="1471" y="904.2188"/><polygon fill="#F1F1F1" points="1566.4961,909.2188,1566.4961,923.2188,1578.4961,923.2188,1578.4961,915.2188,1572.4961,909.2188,1566.4961,909.2188" style="stroke:#181818;stroke-width:0.5;"/><line style="stroke:#181818;stroke-width:0.5;" x1="1572.4961" x2="1572.4961" y1="909.2188" y2="915.2188"/><line style="stroke:#181818;stroke-width:0.5;" x1="1578.4961" x2="1572.4961" y1="915.2188" y2="915.2188"/><text fill="#000000" font-family="sans-serif" font-size="14" lengthAdjust="spacing" textLength="82.4961" x="1481" y="931.752">Tabla: Pagos</text></g><!--entity T5--><g id="elem_T5"><rect fill="#F1F1F1" height="40.6094" rx="2.5" ry="2.5" style="stroke:#181818;stroke-width:0.5;" width="162.2686" x="1618" y="904.2188"/><polygon fill="#F1F1F1" points="1763.2686,909.2188,1763.2686,923.2188,1775.2686,923.2188,1775.2686,915.2188,1769.2686,909.2188,1763.2686,909.2188" style="stroke:#181818;stroke-width:0.5;"/><line style="stroke:#181818;stroke-width:0.5;" x1="1769.2686" x2="1769.2686" y1="909.2188" y2="915.2188"/><line style="stroke:#181818;stroke-width:0.5;" x1="1775.2686" x2="1769.2686" y1="915.2188" y2="915.2188"/><text fill="#000000" font-family="sans-serif" font-size="14" lengthAdjust="spacing" textLength="132.2686" x="1628" y="931.752">Tabla: HistoriaClinica</text></g><!--entity T6--><g id="elem_T6"><rect fill="#F1F1F1" height="40.6094" rx="2.5" ry="2.5" style="stroke:#181818;stroke-width:0.5;" width="128.0547" x="1815" y="904.2188"/><polygon fill="#F1F1F1" points="1926.0547,909.2188,1926.0547,923.2188,1938.0547,923.2188,1938.0547,915.2188,1932.0547,909.2188,1926.0547,909.2188" style="stroke:#181818;stroke-width:0.5;"/><line style="stroke:#181818;stroke-width:0.5;" x1="1932.0547" x2="1932.0547" y1="909.2188" y2="915.2188"/><line style="stroke:#181818;stroke-width:0.5;" x1="1938.0547" x2="1932.0547" y1="915.2188" y2="915.2188"/><text fill="#000000" font-family="sans-serif" font-size="14" lengthAdjust="spacing" textLength="98.0547" x="1825" y="931.752">Tabla: Auditoria</text></g><!--entity T7--><g id="elem_T7"><rect fill="#F1F1F1" height="40.6094" rx="2.5" ry="2.5" style="stroke:#181818;stroke-width:0.5;" width="129.6064" x="1471" y="1006.2188"/><polygon fill="#F1F1F1" points="1583.6064,1011.2188,1583.6064,1025.2188,1595.6064,1025.2188,1595.6064,1017.2188,1589.6064,1011.2188,1583.6064,1011.2188" style="stroke:#181818;stroke-width:0.5;"/><line style="stroke:#181818;stroke-width:0.5;" x1="1589.6064" x2="1589.6064" y1="1011.2188" y2="1017.2188"/><line style="stroke:#181818;stroke-width:0.5;" x1="1595.6064" x2="1589.6064" y1="1017.2188" y2="1017.2188"/><text fill="#000000" font-family="sans-serif" font-size="14" lengthAdjust="spacing" textLength="99.6064" x="1481" y="1033.752">Tabla: Espacios</text></g><!--entity T8--><g id="elem_T8"><rect fill="#F1F1F1" height="40.6094" rx="2.5" ry="2.5" style="stroke:#181818;stroke-width:0.5;" width="119.4824" x="1636.5" y="1006.2188"/><polygon fill="#F1F1F1" points="1738.9824,1011.2188,1738.9824,1025.2188,1750.9824,1025.2188,1750.9824,1017.2188,1744.9824,1011.2188,1738.9824,1011.2188" style="stroke:#181818;stroke-width:0.5;"/><line style="stroke:#181818;stroke-width:0.5;" x1="1744.9824" x2="1744.9824" y1="1011.2188" y2="1017.2188"/><line style="stroke:#181818;stroke-width:0.5;" x1="1750.9824" x2="1744.9824" y1="1017.2188" y2="1017.2188"/><text fill="#000000" font-family="sans-serif" font-size="14" lengthAdjust="spacing" textLength="89.4824" x="1646.5" y="1033.752">Tabla: Precios</text></g><!--link SvcUser to IUserDAO--><g id="link_SvcUser_IUserDAO"><path codeLine="114" d="M143.88,164.4987 C150.62,204.9688 163.4536,281.9204 170.1736,322.2404 " fill="transparent" id="SvcUser-to-IUserDAO" style="stroke:#181818;stroke-width:1;"/><polygon fill="#181818" points="171.16,328.1588,173.626,318.6236,170.338,323.2268,165.7348,319.9388,171.16,328.1588" style="stroke:#181818;stroke-width:1;"/><text fill="#000000" font-family="sans-serif" font-size="13" lengthAdjust="spacing" textLength="20.96" x="153" y="210.7139">usa</text></g><!--link SvcCita to ICitaDAO--><g id="link_SvcCita_ICitaDAO"><path codeLine="115" d="M299.66,164.4987 C302.55,204.9688 308.0425,281.854 310.9225,322.174 " fill="transparent" id="SvcCita-to-ICitaDAO" style="stroke:#181818;stroke-width:1;"/><polygon fill="#181818" points="311.35,328.1588,314.6986,318.8966,310.9938,323.1715,306.7189,319.4666,311.35,328.1588" style="stroke:#181818;stroke-width:1;"/><text fill="#000000" font-family="sans-serif" font-size="13" lengthAdjust="spacing" textLength="20.96" x="303" y="210.7139">usa</text></g><!--link SvcPac to IPacDAO--><g id="link_SvcPac_IPacDAO"><path codeLine="116" d="M458.45,164.4987 C457.48,204.9688 455.6528,281.8404 454.6928,322.1604 " fill="transparent" id="SvcPac-to-IPacDAO" style="stroke:#181818;stroke-width:1;"/><polygon fill="#181818" points="454.55,328.1588,458.7631,319.2565,454.669,323.1602,450.7654,319.0661,454.55,328.1588" style="stroke:#181818;stroke-width:1;"/><text fill="#000000" font-family="sans-serif" font-size="13" lengthAdjust="spacing" textLength="20.96" x="458" y="210.7139">usa</text></g><!--link SvcPago to IPagoDAO--><g id="link_SvcPago_IPagoDAO"><path codeLine="117" d="M620.34,164.4987 C615.71,204.9688 606.9201,281.8774 602.3201,322.1974 " fill="transparent" id="SvcPago-to-IPagoDAO" style="stroke:#181818;stroke-width:1;"/><polygon fill="#181818" points="601.64,328.1588,606.6344,319.6702,602.2068,323.191,598.6859,318.7633,601.64,328.1588" style="stroke:#181818;stroke-width:1;"/><text fill="#000000" font-family="sans-serif" font-size="13" lengthAdjust="spacing" textLength="20.96" x="617" y="210.7139">usa</text></g><!--reverse link IUserDAO to UserDAOImpl--><g id="link_IUserDAO_UserDAOImpl"><path codeLine="120" d="M156.915,392.7041 C146.015,416.5041 136.62,437.0187 125.68,460.8887 " fill="transparent" id="IUserDAO-backto-UserDAOImpl" style="stroke:#181818;stroke-width:1;stroke-dasharray:7.0,7.0;"/><polygon fill="transparent" points="164.41,376.3388,151.4598,390.2057,162.3701,395.2024,164.41,376.3388" style="stroke:#181818;stroke-width:1;"/></g><!--reverse link ICitaDAO to CitaDAOImpl--><g id="link_ICitaDAO_CitaDAOImpl"><path codeLine="121" d="M301.5789,393.6615 C294.8589,417.4615 289.33,437.0187 282.59,460.8887 " fill="transparent" id="ICitaDAO-backto-CitaDAOImpl" style="stroke:#181818;stroke-width:1;stroke-dasharray:7.0,7.0;"/><polygon fill="transparent" points="306.47,376.3388,295.8046,392.0311,307.3531,395.2919,306.47,376.3388" style="stroke:#181818;stroke-width:1;"/></g><!--reverse link IPacDAO to PacDAOImpl--><g id="link_IPacDAO_PacDAOImpl"><path codeLine="122" d="M449.6198,394.2371 C447.0798,418.0371 445.04,437.0187 442.49,460.8887 " fill="transparent" id="IPacDAO-backto-PacDAOImpl" style="stroke:#181818;stroke-width:1;stroke-dasharray:7.0,7.0;"/><polygon fill="transparent" points="451.53,376.3388,443.6537,393.6004,455.586,394.8738,451.53,376.3388" style="stroke:#181818;stroke-width:1;"/></g><!--reverse link IPagoDAO to PagoDAOImpl--><g id="link_IPagoDAO_PagoDAOImpl"><path codeLine="123" d="M601.5121,394.305 C602.9721,418.105 604.12,437.0187 605.58,460.8887 " fill="transparent" id="IPagoDAO-backto-PagoDAOImpl" style="stroke:#181818;stroke-width:1;stroke-dasharray:7.0,7.0;"/><polygon fill="transparent" points="600.41,376.3388,595.5234,394.6724,607.5009,393.9376,600.41,376.3388" style="stroke:#181818;stroke-width:1;"/></g><!--reverse link IHistDAO to HistDAOImpl--><g id="link_IHistDAO_HistDAOImpl"><path codeLine="124" d="M750.3079,393.8846 C755.7579,417.6846 760.19,437.0187 765.66,460.8887 " fill="transparent" id="IHistDAO-backto-HistDAOImpl" style="stroke:#181818;stroke-width:1;stroke-dasharray:7.0,7.0;"/><polygon fill="transparent" points="746.29,376.3388,744.4592,395.2239,756.1565,392.5453,746.29,376.3388" style="stroke:#181818;stroke-width:1;"/></g><!--reverse link IAudDAO to AudDAOImpl--><g id="link_IAudDAO_AudDAOImpl"><path codeLine="125" d="M909.8165,393.0707 C919.2565,416.8707 927.26,437.0187 936.74,460.8887 " fill="transparent" id="IAudDAO-backto-AudDAOImpl" style="stroke:#181818;stroke-width:1;stroke-dasharray:7.0,7.0;"/><polygon fill="transparent" points="903.18,376.3388,904.2392,395.2828,915.3938,390.8585,903.18,376.3388" style="stroke:#181818;stroke-width:1;"/></g><!--link UserDAOImpl to Usuario--><g id="link_UserDAOImpl_Usuario"><path codeLine="128" d="M117.53,509.2388 C120.4,535.2188 124.5724,573.1849 129.0324,613.6349 " fill="transparent" id="UserDAOImpl-to-Usuario" style="stroke:#181818;stroke-width:1;"/><polygon fill="#181818" points="129.69,619.5988,132.6795,610.2146,129.142,614.6289,124.7277,611.0913,129.69,619.5988" style="stroke:#181818;stroke-width:1;"/><text fill="#000000" font-family="sans-serif" font-size="13" lengthAdjust="spacing" textLength="37.5527" x="124" y="555.7139">CRUD</text></g><!--link CitaDAOImpl to Cita--><g id="link_CitaDAOImpl_Cita"><path codeLine="129" d="M283.3,509.2388 C292.76,539.0488 307.8961,586.7795 322.0761,631.4895 " fill="transparent" id="CitaDAOImpl-to-Cita" style="stroke:#181818;stroke-width:1;"/><polygon fill="#181818" points="323.89,637.2088,324.982,627.4206,322.3784,632.4427,317.3563,629.8391,323.89,637.2088" style="stroke:#181818;stroke-width:1;"/><text fill="#000000" font-family="sans-serif" font-size="13" lengthAdjust="spacing" textLength="37.5527" x="298" y="555.7139">CRUD</text></g><!--link PacDAOImpl to Paciente--><g id="link_PacDAOImpl_Paciente"><path codeLine="130" d="M448.62,509.2388 C457.67,533.4088 470.4471,567.5093 484.6671,605.5093 " fill="transparent" id="PacDAOImpl-to-Paciente" style="stroke:#181818;stroke-width:1;"/><polygon fill="#181818" points="486.77,611.1288,487.362,601.2977,485.0176,606.4459,479.8694,604.1015,486.77,611.1288" style="stroke:#181818;stroke-width:1;"/><text fill="#000000" font-family="sans-serif" font-size="13" lengthAdjust="spacing" textLength="37.5527" x="466" y="555.7139">CRUD</text></g><!--link PagoDAOImpl to Pago--><g id="link_PagoDAOImpl_Pago"><path codeLine="131" d="M584.94,509.4688 C573.28,524.6288 563.53,544.2988 575,559.2188 C583.41,570.1588 593.77,559.1988 605,567.2188 C624.38,581.0588 637.6024,595.1082 651.4124,614.7782 " fill="transparent" id="PagoDAOImpl-to-Pago" style="stroke:#181818;stroke-width:1;"/><polygon fill="#181818" points="654.86,619.6888,652.9623,610.0245,651.987,615.5966,646.4148,614.6213,654.86,619.6888" style="stroke:#181818;stroke-width:1;"/><text fill="#000000" font-family="sans-serif" font-size="13" lengthAdjust="spacing" textLength="37.5527" x="576" y="555.7139">CRUD</text></g><!--link HistDAOImpl to HistoriaClinica--><g id="link_HistDAOImpl_HistoriaClinica"><path codeLine="132" d="M733.45,509.3688 C718.74,517.7388 701.46,526.7188 685,533.2188 C671.77,538.4488 662.71,529.9688 654,541.2188 C649.1,547.5388 648.5,553.4088 654,559.2188 C665.25,571.0988 786.58,559.4888 801,567.2188 C820.66,577.7488 833.9112,588.9475 848.3712,606.3175 " fill="transparent" id="HistDAOImpl-to-HistoriaClinica" style="stroke:#181818;stroke-width:1;"/><polygon fill="#181818" points="852.21,610.9288,849.5261,601.4527,849.011,607.086,843.3777,606.571,852.21,610.9288" style="stroke:#181818;stroke-width:1;"/><text fill="#000000" font-family="sans-serif" font-size="13" lengthAdjust="spacing" textLength="37.5527" x="655" y="555.7139">CRUD</text></g><!--link AudDAOImpl to Auditoria--><g id="link_AudDAOImpl_Auditoria"><path codeLine="133" d="M910.65,509.2988 C894.88,518.4088 875.67,527.9488 857,533.2188 C802.81,548.5188 693.74,518.8488 733,559.2188 C744.08,570.6188 1005.1,559.5088 1019,567.2188 C1040.96,579.3888 1055.4685,593.9156 1069.6185,614.7456 " fill="transparent" id="AudDAOImpl-to-Auditoria" style="stroke:#181818;stroke-width:1;"/><polygon fill="#181818" points="1072.99,619.7088,1071.2415,610.0163,1070.1804,615.5728,1064.624,614.5117,1072.99,619.7088" style="stroke:#181818;stroke-width:1;"/><text fill="#000000" font-family="sans-serif" font-size="13" lengthAdjust="spacing" textLength="37.5527" x="734" y="555.7139">CRUD</text></g><!--link UserDAOImpl to DB--><g id="link_UserDAOImpl_DB"><path codeLine="136" d="M148.12,509.2587 C163.47,518.5988 182.4,528.3288 201,533.2188 C262.8,549.4588 714.3,524.5988 776,541.2188 C791.76,545.4588 792.26,554.9288 808,559.2188 C851.32,571.0288 1168.95,554.4688 1212,567.2188 C1270.03,584.3988 1327.865,620.0363 1371.6387,651.8 C1393.5256,667.6819 1411.8972,682.5953 1425.0202,693.7489 C1428.3009,696.5373 1431.2536,699.0907 1433.8512,701.3655 C1435.15,702.5029 1436.36,703.5707 1437.4778,704.5633 C1437.7573,704.8115 1438.031,705.0549 1438.2989,705.2936 C1438.4328,705.413 1434.0889,701.5359 1434.2199,701.6529 " fill="transparent" id="UserDAOImpl-to-DB" style="stroke:#181818;stroke-width:1;"/><polygon fill="#181818" points="1438.6964,705.6481,1434.6452,696.671,1434.966,702.3187,1429.3182,702.6396,1438.6964,705.6481" style="stroke:#181818;stroke-width:1;"/><text fill="#000000" font-family="sans-serif" font-size="13" lengthAdjust="spacing" textLength="90.2891" x="809" y="555.7139">Microsoft JDBC</text></g><!--link CitaDAOImpl to DB--><g id="link_CitaDAOImpl_DB"><path codeLine="137" d="M304.47,509.2288 C317.78,518.5688 334.35,528.2988 351,533.2188 C410.36,550.7488 848.24,525.1088 908,541.2188 C923.76,545.4688 924.28,554.8488 940,559.2188 C998.27,575.3988 1154.1,549.7688 1212,567.2188 C1269.945,584.6788 1327.78,620.3188 1371.575,652.0138 C1393.4725,667.8613 1411.86,682.7225 1424.9963,693.8319 C1428.2803,696.6092 1431.2362,699.1521 1433.8366,701.4172 C1435.1368,702.5498 1436.3482,703.6129 1437.4673,704.6013 C1437.7471,704.8483 1438.0211,705.0907 1438.2893,705.3284 C1438.4234,705.4472 1434.0686,701.582 1434.1998,701.6984 " fill="transparent" id="CitaDAOImpl-to-DB" style="stroke:#181818;stroke-width:1;"/><polygon fill="#181818" points="1438.6872,705.6813,1434.6113,696.7154,1434.9477,702.3622,1429.3009,702.6987,1438.6872,705.6813" style="stroke:#181818;stroke-width:1;"/><text fill="#000000" font-family="sans-serif" font-size="13" lengthAdjust="spacing" textLength="90.2891" x="941" y="555.7139">Microsoft JDBC</text></g><!--link PacDAOImpl to DB--><g id="link_PacDAOImpl_DB"><path codeLine="138" d="M474.38,509.2488 C490.29,518.5888 509.87,528.3188 529,533.2188 C584.01,547.3088 985.18,526.3988 1040,541.2188 C1055.75,545.4788 1056.34,554.6388 1072,559.2188 C1131.81,576.7288 1152.58,548.4188 1212,567.2188 C1269.7,585.4788 1327.53,621.1313 1371.3838,652.6325 C1393.3106,668.3831 1411.7434,683.0959 1424.9189,694.078 C1428.2128,696.8235 1431.1781,699.3358 1433.7872,701.5729 C1435.0918,702.6914 1436.3073,703.7412 1437.4304,704.7168 C1437.7111,704.9607 1437.9861,705.2 1438.2553,705.4346 C1438.3899,705.5519 1434.0028,701.7223 1434.1345,701.8372 " fill="transparent" id="PacDAOImpl-to-DB" style="stroke:#181818;stroke-width:1;"/><polygon fill="#181818" points="1438.6546,705.7829,1434.5049,696.851,1434.8878,702.4949,1429.244,702.8778,1438.6546,705.7829" style="stroke:#181818;stroke-width:1;"/><text fill="#000000" font-family="sans-serif" font-size="13" lengthAdjust="spacing" textLength="90.2891" x="1073" y="555.7139">Microsoft JDBC</text></g><!--link PagoDAOImpl to DB--><g id="link_PagoDAOImpl_DB"><path codeLine="139" d="M637.17,509.2188 C651.23,518.5588 668.65,528.2988 686,533.2188 C737.95,547.9688 1120.21,525.8988 1172,541.2188 C1176.285,542.4888 1243.9975,584.8288 1311.1513,627.1775 C1344.7281,648.3519 1378.1653,669.5284 1403.4645,685.5745 C1416.1141,693.5976 1426.7293,700.338 1434.3101,705.1542 C1435.2577,705.7563 1436.1579,706.3282 1437.0087,706.8689 C1437.4341,707.1392 1437.8472,707.4017 1438.2477,707.6562 C1438.448,707.7834 1433.5811,704.6905 1433.7751,704.8138 " fill="transparent" id="PagoDAOImpl-to-DB" style="stroke:#181818;stroke-width:1;"/><polygon fill="#181818" points="1438.839,708.0319,1433.3886,699.8287,1434.619,705.3501,1429.0976,706.5806,1438.839,708.0319" style="stroke:#181818;stroke-width:1;"/><text fill="#000000" font-family="sans-serif" font-size="13" lengthAdjust="spacing" textLength="90.2891" x="1199" y="555.7139">Microsoft JDBC</text></g><!--link HistDAOImpl to DB--><g id="link_HistDAOImpl_DB"><path codeLine="140" d="M804.13,509.2188 C819.48,518.5588 838.41,528.2988 857,533.2188 C881.01,539.5788 1281.61,530.4688 1304,541.2188 C1348.11,562.3938 1383.44,604.3913 1407.9475,641.585 C1420.2013,660.1819 1429.7494,677.5778 1436.3366,690.5695 C1437.16,692.1935 1437.9371,693.7486 1438.6675,695.2287 C1438.7588,695.4137 1436.2013,690.2135 1436.2911,690.3962 " fill="transparent" id="HistDAOImpl-to-DB" style="stroke:#181818;stroke-width:1;"/><polygon fill="#181818" points="1438.9392,695.7802,1438.5564,685.9388,1436.7325,691.2935,1431.3777,689.4695,1438.9392,695.7802" style="stroke:#181818;stroke-width:1;"/><text fill="#000000" font-family="sans-serif" font-size="13" lengthAdjust="spacing" textLength="90.2891" x="1330" y="555.7139">Microsoft JDBC</text></g><!--link AudDAOImpl to DB--><g id="link_AudDAOImpl_DB"><path codeLine="141" d="M981.24,509.4588 C997.26,518.7188 1016.87,528.3188 1036,533.2188 C1057.53,538.7288 1419.94,525.8488 1436,541.2188 C1449.62,554.2538 1452.4975,596.1238 1451.9075,635.2863 C1451.8706,637.7339 1451.8202,640.171 1451.758,642.5898 C1451.7425,643.1945 1451.8954,637.8004 1451.8784,638.4027 " fill="transparent" id="AudDAOImpl-to-DB" style="stroke:#181818;stroke-width:1;"/><polygon fill="#181818" points="1451.7092,644.4003,1455.9614,635.5167,1451.8502,639.4023,1447.9646,635.2911,1451.7092,644.4003" style="stroke:#181818;stroke-width:1;"/><text fill="#000000" font-family="sans-serif" font-size="13" lengthAdjust="spacing" textLength="90.2891" x="1446" y="555.7139">Microsoft JDBC</text></g><!--link RepDAOImpl to DB--><g id="link_RepDAOImpl_DB"><path codeLine="142" d="M1156.97,509.4288 C1172.44,518.6888 1191.41,528.2988 1210,533.2188 C1229.23,538.3088 1554.09,526.9988 1568,541.2188 C1573.59,546.9388 1573.45,553.3688 1568,559.2188 C1550.84,577.6388 1472.66,549.2788 1455,567.2188 C1432.565,590.0138 1430.2775,625.7388 1433.7388,656.1438 C1434.6041,663.745 1435.8287,671.0138 1437.1876,677.6648 C1437.5273,679.3276 1437.8755,680.9518 1438.2285,682.5329 C1438.405,683.3235 1438.5827,684.1032 1438.7612,684.8717 C1438.8058,685.0638 1437.4807,679.4137 1437.5254,679.6044 " fill="transparent" id="RepDAOImpl-to-DB" style="stroke:#181818;stroke-width:1;"/><polygon fill="#181818" points="1438.8952,685.4459,1440.7349,675.7704,1437.7537,680.578,1432.9461,677.5968,1438.8952,685.4459" style="stroke:#181818;stroke-width:1;"/><text fill="#000000" font-family="sans-serif" font-size="13" lengthAdjust="spacing" textLength="90.2891" x="1573" y="555.7139">Microsoft JDBC</text></g><!--link EspDAOImpl to DB--><g id="link_EspDAOImpl_DB"><path codeLine="143" d="M1366.51,490.7888 C1476,498.7088 1678.44,516.5188 1700,541.2188 C1705.26,547.2488 1705.56,553.4688 1700,559.2188 C1681.06,578.7888 1474.47,548.1688 1455,567.2188 C1432.135,589.5838 1429.84,625.3013 1433.405,655.81 C1434.2963,663.4372 1435.5538,670.7388 1436.9477,677.4249 C1437.2961,679.0964 1437.6531,680.7295 1438.0151,682.3195 C1438.196,683.1145 1438.3782,683.8988 1438.5612,684.6717 C1438.6527,685.0582 1438.7444,685.4419 1438.8362,685.8226 C1438.8822,686.013 1437.5092,680.3728 1437.5552,680.5617 " fill="transparent" id="EspDAOImpl-to-DB" style="stroke:#181818;stroke-width:1;"/><polygon fill="#181818" points="1438.9741,686.3916,1440.7324,676.7009,1437.7917,681.5334,1432.9593,678.5927,1438.9741,686.3916" style="stroke:#181818;stroke-width:1;"/><text fill="#000000" font-family="sans-serif" font-size="13" lengthAdjust="spacing" textLength="90.2891" x="1705" y="555.7139">Microsoft JDBC</text></g><!--SRC=[fPPDRzms48Rl-XM4UsY2ma5sKpk1KHJmVXZP8avSnxxbGbDSbGr52YJbkcZzYtBCiRVqZtNu8OgYk2dGmXThtcUfcPSZSZ3dyhUMFJ3HLFeZ4nrMk4Ltc7nibEn5lPPSAlJDnTR-9KG716xeIggQgW0jjwzErui2bA-sNLsSNAmIKCXwkjHYyVByz2GdydKs9nSdsnTLPPZX51sjSOTHJT4v8LHBXD466wdHaokgDDE62iBmqm_Y2XlrzsU1DkVlqB5biF-5Hk_kVgN475LLI7nSyYrj967oWtYowZKJ5dw3VwVgwH726iNO7nL2J1YgzfZ0hzzJTS_WP-XMzrWnwU3tz-HMKtM0N3E31yp-Vm2xmeHHY0yeF1ya6pbIZQmU2-LD7OCghJVW4omdV8asOAkBFxM1tV0-FJ1ZnD6Jb7R11S0SlhCsmCECitL7A3pCeC6124AWp3KoOTp337eDxI4L6zzg0oNmlA_Pb8I81y7Nn9vTst7QGeAGfeJUGCCFh4cW1Ni8nz0sHwCpLdDSCCS-fsIm8sB9SuebxaJK6pGd6pcbudEA9Gv5D9YKewb7aVKsvUWrxQIQPWcX0hZLdJKo1I4qWbFpjyAm6jVWUaqvkeIZW_jlm0g6nURqYmVpGmoXxrWTGcTsxuUeOPtSIDBRJGL56sNFp20A2AkloBAzKrJdOTnHpbajPmAHIj7PAePokfTY5bUIxpPZhez9RROzqiBiywGgLW-jaeKlQSt8r84z9R_WrrB12d1Eq1lMqa6Ysk1wbbWh3RkVHjFaXZUd2HQp2TRdozU2_L-ZNKblCV4L_PlHvMsfcQB4VkLVARIHqo8RcTbzJU5xlv_kJIjTAzMKi1RpoBPT3tRF1UXtqjFIJ_PIjTY_j52-5_8TLNHFbRio3vOrd0bhpWGZapuRfF_SQxvrrbBedXkSvqq59DTI-CRFYUand-aF6Bx32wRTilbsuKP8RK1QxxQBvxdUSInk54m5BIjzoiwopAxKb7ZwfNR4O5PuwPp1yrvoVjGzdzT23UQS5dCiVwYnMNTNSsDq9pKhVhAFTcomCnXC5Z-_GNQwe0ejdo-N_b9RkMgnCWmkIeEERl0TXxU7-lnuSBCe8VP42lgof0yj4vWNPQOPtl5zISyQrPCd9J9kb6TEIqouYy8BNnOJ0fCZySfwzos2NgOFVXQ0UXH518OlNOLn41qV_nWd8dI6ldpgDVxoLnN6G2-7otugWq5UzVTxBiB94rHthoSov3IRKc23nn6kYldyyEUpPvE99ARYb7G86T9mGZ9on0I2C4uPmx3bbNIe2CEL5v890Z8VngWM2zRr7ADuvrT9dgxquNw7Nhk-tLH9iavszWPjpDT9yOAASimww4rSDidRQVdX6B2n2aUDfqNGaz8qj0Xi2e7qC5fjPdN1HtU6BXbHKikzGJzjLkjPSIKcAxACJ0ijCNd19IQhjeICyzv1P9pq3YB_0000]--></g></svg>