<svg xmlns="http://www.w3.org/2000/svg" xmlns:xlink="http://www.w3.org/1999/xlink" contentStyleType="text/css" data-diagram-type="DESCRIPTION" height="479px" preserveAspectRatio="none" style="width:1464px;height:479px;background:#FEFEFE;" version="1.1" viewBox="0 0 1464 479" width="1464px" zoomAndPan="magnify"><title>Diagrama de Componentes UML (APF3)</title><defs/><g><rect fill="#FEFEFE" height="479" style="stroke:transparent;stroke-width:1;" width="1464" x="0" y="0"/><text fill="#000000" font-family="sans-serif" font-size="14" font-weight="bold" lengthAdjust="spacing" textLength="264.4756" x="593.2517" y="24.5332">Diagrama de Componentes UML (APF3)</text><text fill="#000000" font-family="sans-serif" font-size="14" font-weight="bold" lengthAdjust="spacing" textLength="426.3369" x="512.321" y="42.1426">Arquitectura de Software - Sistema de Gesti&#243;n de Citas M&#233;dicas</text><!--entity Frontend--><g id="elem_Frontend"><rect fill="#EBF5FB" height="56.4141" rx="2.5" ry="2.5" style="stroke:#2E86C1;stroke-width:0.5;" width="131.083" x="537.9653" y="63.2188"/><rect fill="#EBF5FB" height="10" style="stroke:#2E86C1;stroke-width:0.5;" width="15" x="649.0483" y="68.2188"/><rect fill="#EBF5FB" height="2" style="stroke:#2E86C1;stroke-width:0.5;" width="4" x="647.0483" y="70.2188"/><rect fill="#EBF5FB" height="2" style="stroke:#2E86C1;stroke-width:0.5;" width="4" x="647.0483" y="74.2188"/><text fill="#000000" font-family="sans-serif" font-size="11" lengthAdjust="spacing" textLength="91.083" x="552.9653" y="94.6377">Frontend Web (UI)</text><text fill="#000000" font-family="sans-serif" font-size="10" lengthAdjust="spacing" textLength="85.0391" x="552.9653" y="107.4355">clinica-webapp.war</text></g><!--entity Backend--><g id="elem_Backend"><rect fill="#EBF5FB" height="56.4141" rx="2.5" ry="2.5" style="stroke:#2E86C1;stroke-width:0.5;" width="135.9868" x="656.4653" y="179.2188"/><rect fill="#EBF5FB" height="10" style="stroke:#2E86C1;stroke-width:0.5;" width="15" x="772.4521" y="184.2188"/><rect fill="#EBF5FB" height="2" style="stroke:#2E86C1;stroke-width:0.5;" width="4" x="770.4521" y="186.2188"/><rect fill="#EBF5FB" height="2" style="stroke:#2E86C1;stroke-width:0.5;" width="4" x="770.4521" y="190.2188"/><text fill="#000000" font-family="sans-serif" font-size="11" lengthAdjust="spacing" textLength="95.9868" x="671.4653" y="210.6377">Backend API REST</text><text fill="#000000" font-family="sans-serif" font-size="10" lengthAdjust="spacing" textLength="58.3545" x="671.4653" y="223.4355">clinica-api.jar</text></g><!--entity Auth--><g id="elem_Auth"><rect fill="#EBF5FB" height="56.4141" rx="2.5" ry="2.5" style="stroke:#2E86C1;stroke-width:0.5;" width="163.5137" x="1295.4653" y="295.2188"/><rect fill="#EBF5FB" height="10" style="stroke:#2E86C1;stroke-width:0.5;" width="15" x="1438.979" y="300.2188"/><rect fill="#EBF5FB" height="2" style="stroke:#2E86C1;stroke-width:0.5;" width="4" x="1436.979" y="302.2188"/><rect fill="#EBF5FB" height="2" style="stroke:#2E86C1;stroke-width:0.5;" width="4" x="1436.979" y="306.2188"/><text fill="#000000" font-family="sans-serif" font-size="11" lengthAdjust="spacing" textLength="123.5137" x="1310.4653" y="326.6377">Servicio de Autenticaci&#243;n</text><text fill="#000000" font-family="sans-serif" font-size="10" lengthAdjust="spacing" textLength="68.3594" x="1310.4653" y="339.4355">auth-service.jar</text></g><!--entity Notifier--><g id="elem_Notifier"><rect fill="#EBF5FB" height="56.4141" rx="2.5" ry="2.5" style="stroke:#2E86C1;stroke-width:0.5;" width="154.9414" x="143.9653" y="295.2188"/><rect fill="#EBF5FB" height="10" style="stroke:#2E86C1;stroke-width:0.5;" width="15" x="278.9067" y="300.2188"/><rect fill="#EBF5FB" height="2" style="stroke:#2E86C1;stroke-width:0.5;" width="4" x="276.9067" y="302.2188"/><rect fill="#EBF5FB" height="2" style="stroke:#2E86C1;stroke-width:0.5;" width="4" x="276.9067" y="306.2188"/><text fill="#000000" font-family="sans-serif" font-size="11" lengthAdjust="spacing" textLength="114.9414" x="158.9653" y="326.6377">Motor de Notificaciones</text><text fill="#000000" font-family="sans-serif" font-size="10" lengthAdjust="spacing" textLength="78.9111" x="158.9653" y="339.4355">notifier-service.jar</text></g><!--entity Reportes--><g id="elem_Reportes"><rect fill="#EBF5FB" height="56.4141" rx="2.5" ry="2.5" style="stroke:#2E86C1;stroke-width:0.5;" width="155.5698" x="1111.4653" y="179.2188"/><rect fill="#EBF5FB" height="10" style="stroke:#2E86C1;stroke-width:0.5;" width="15" x="1247.0352" y="184.2188"/><rect fill="#EBF5FB" height="2" style="stroke:#2E86C1;stroke-width:0.5;" width="4" x="1245.0352" y="186.2188"/><rect fill="#EBF5FB" height="2" style="stroke:#2E86C1;stroke-width:0.5;" width="4" x="1245.0352" y="190.2188"/><text fill="#000000" font-family="sans-serif" font-size="11" lengthAdjust="spacing" textLength="115.5698" x="1126.4653" y="210.6377">Generador de Reportes</text><text fill="#000000" font-family="sans-serif" font-size="10" lengthAdjust="spacing" textLength="73.374" x="1126.4653" y="223.4355">report-engine.jar</text></g><!--entity Pagos--><g id="elem_Pagos"><rect fill="#EBF5FB" height="56.4141" rx="2.5" ry="2.5" style="stroke:#2E86C1;stroke-width:0.5;" width="132.9521" x="546.9653" y="295.2188"/><rect fill="#EBF5FB" height="10" style="stroke:#2E86C1;stroke-width:0.5;" width="15" x="659.9175" y="300.2188"/><rect fill="#EBF5FB" height="2" style="stroke:#2E86C1;stroke-width:0.5;" width="4" x="657.9175" y="302.2188"/><rect fill="#EBF5FB" height="2" style="stroke:#2E86C1;stroke-width:0.5;" width="4" x="657.9175" y="306.2188"/><text fill="#000000" font-family="sans-serif" font-size="11" lengthAdjust="spacing" textLength="92.9521" x="561.9653" y="326.6377">Pasarela de Pagos</text><text fill="#000000" font-family="sans-serif" font-size="10" lengthAdjust="spacing" textLength="92.8223" x="561.9653" y="339.4355">payment-gateway.jar</text></g><!--entity Auditoria--><g id="elem_Auditoria"><rect fill="#EBF5FB" height="56.4141" rx="2.5" ry="2.5" style="stroke:#2E86C1;stroke-width:0.5;" width="138.4521" x="1122.4653" y="295.2188"/><rect fill="#EBF5FB" height="10" style="stroke:#2E86C1;stroke-width:0.5;" width="15" x="1240.9175" y="300.2188"/><rect fill="#EBF5FB" height="2" style="stroke:#2E86C1;stroke-width:0.5;" width="4" x="1238.9175" y="302.2188"/><rect fill="#EBF5FB" height="2" style="stroke:#2E86C1;stroke-width:0.5;" width="4" x="1238.9175" y="306.2188"/><text fill="#000000" font-family="sans-serif" font-size="11" lengthAdjust="spacing" textLength="98.4521" x="1137.4653" y="326.6377">M&#243;dulo de Auditor&#237;a</text><text fill="#000000" font-family="sans-serif" font-size="10" lengthAdjust="spacing" textLength="52.251" x="1137.4653" y="339.4355">audit-log.jar</text></g><!--entity BD--><g id="elem_BD"><rect fill="#EBF5FB" height="56.4141" rx="2.5" ry="2.5" style="stroke:#2E86C1;stroke-width:0.5;" width="158.6206" x="1113.9653" y="411.2188"/><rect fill="#EBF5FB" height="10" style="stroke:#2E86C1;stroke-width:0.5;" width="15" x="1252.5859" y="416.2188"/><rect fill="#EBF5FB" height="2" style="stroke:#2E86C1;stroke-width:0.5;" width="4" x="1250.5859" y="418.2188"/><rect fill="#EBF5FB" height="2" style="stroke:#2E86C1;stroke-width:0.5;" width="4" x="1250.5859" y="422.2188"/><text fill="#000000" font-family="sans-serif" font-size="11" lengthAdjust="spacing" textLength="118.6206" x="1128.9653" y="442.6377">Motor de Base de Datos</text><text fill="#000000" font-family="sans-serif" font-size="10" lengthAdjust="spacing" textLength="77.2656" x="1128.9653" y="455.4355">SQL Server 2022</text></g><!--entity Twilio--><g id="elem_Twilio"><rect fill="#EBF5FB" height="43.8359" rx="2.5" ry="2.5" style="stroke:#2E86C1;stroke-width:0.5;" width="123.1177" x="265.9653" y="417.2188"/><rect fill="#EBF5FB" height="10" style="stroke:#2E86C1;stroke-width:0.5;" width="15" x="369.083" y="422.2188"/><rect fill="#EBF5FB" height="2" style="stroke:#2E86C1;stroke-width:0.5;" width="4" x="367.083" y="424.2188"/><rect fill="#EBF5FB" height="2" style="stroke:#2E86C1;stroke-width:0.5;" width="4" x="367.083" y="428.2188"/><text fill="#000000" font-family="sans-serif" font-size="11" lengthAdjust="spacing" textLength="83.1177" x="280.9653" y="448.6377">Twilio API (SMS)</text></g><!--entity SMTP--><g id="elem_SMTP"><rect fill="#EBF5FB" height="43.8359" rx="2.5" ry="2.5" style="stroke:#2E86C1;stroke-width:0.5;" width="143.8984" x="424.4653" y="417.2188"/><rect fill="#EBF5FB" height="10" style="stroke:#2E86C1;stroke-width:0.5;" width="15" x="548.3638" y="422.2188"/><rect fill="#EBF5FB" height="2" style="stroke:#2E86C1;stroke-width:0.5;" width="4" x="546.3638" y="424.2188"/><rect fill="#EBF5FB" height="2" style="stroke:#2E86C1;stroke-width:0.5;" width="4" x="546.3638" y="428.2188"/><text fill="#000000" font-family="sans-serif" font-size="11" lengthAdjust="spacing" textLength="103.8984" x="439.4653" y="448.6377">SMTP Server (Email)</text></g><!--entity MPago--><g id="elem_MPago"><rect fill="#EBF5FB" height="43.8359" rx="2.5" ry="2.5" style="stroke:#2E86C1;stroke-width:0.5;" width="162.2837" x="657.4653" y="417.2188"/><rect fill="#EBF5FB" height="10" style="stroke:#2E86C1;stroke-width:0.5;" width="15" x="799.749" y="422.2188"/><rect fill="#EBF5FB" height="2" style="stroke:#2E86C1;stroke-width:0.5;" width="4" x="797.749" y="424.2188"/><rect fill="#EBF5FB" height="2" style="stroke:#2E86C1;stroke-width:0.5;" width="4" x="797.749" y="428.2188"/><text fill="#000000" font-family="sans-serif" font-size="11" lengthAdjust="spacing" textLength="122.2837" x="672.4653" y="448.6377">MercadoPago (Pasarela)</text></g><!--entity ballIL--><g id="elem_ballIL"><ellipse cx="493.4653" cy="91.2188" fill="#D5F5E3" rx="8" ry="8" style="stroke:#117A65;stroke-width:0.5;"/><text fill="#000000" font-family="sans-serif" font-size="14" lengthAdjust="spacing" textLength="38.1445" x="474.3931" y="122.752">ILogin</text></g><!--entity ballIAg--><g id="elem_ballIAg"><ellipse cx="954.4653" cy="323.2188" fill="#D5F5E3" rx="8" ry="8" style="stroke:#117A65;stroke-width:0.5;"/><text fill="#000000" font-family="sans-serif" font-size="14" lengthAdjust="spacing" textLength="94.1787" x="907.376" y="354.752">IAgendamiento</text></g><!--entity ballIP--><g id="elem_ballIP"><ellipse cx="1007.4653" cy="323.2188" fill="#D5F5E3" rx="8" ry="8" style="stroke:#117A65;stroke-width:0.5;"/><text fill="#000000" font-family="sans-serif" font-size="14" lengthAdjust="spacing" textLength="58.3721" x="978.2793" y="354.752">IPaciente</text></g><!--entity ballIM--><g id="elem_ballIM"><ellipse cx="724.4653" cy="323.2188" fill="#D5F5E3" rx="8" ry="8" style="stroke:#117A65;stroke-width:0.5;"/><text fill="#000000" font-family="sans-serif" font-size="14" lengthAdjust="spacing" textLength="49.0205" x="699.9551" y="354.752">IMedico</text></g><!--entity ballIR--><g id="elem_ballIR"><ellipse cx="901.4653" cy="323.2188" fill="#D5F5E3" rx="8" ry="8" style="stroke:#117A65;stroke-width:0.5;"/><text fill="#000000" font-family="sans-serif" font-size="14" lengthAdjust="spacing" textLength="60.6963" x="871.1172" y="354.752">IReportes</text></g><!--entity ballIGU--><g id="elem_ballIGU"><ellipse cx="488.4653" cy="207.2188" fill="#D5F5E3" rx="8" ry="8" style="stroke:#117A65;stroke-width:0.5;"/><text fill="#000000" font-family="sans-serif" font-size="14" lengthAdjust="spacing" textLength="107.3789" x="434.7759" y="238.752">IGestionUsuarios</text></g><!--entity ballIGC--><g id="elem_ballIGC"><ellipse cx="541.4653" cy="207.2188" fill="#D5F5E3" rx="8" ry="8" style="stroke:#117A65;stroke-width:0.5;"/><text fill="#000000" font-family="sans-serif" font-size="14" lengthAdjust="spacing" textLength="84.0342" x="499.4482" y="238.752">IGestionCitas</text></g><!--entity ballIGP--><g id="elem_ballIGP"><ellipse cx="329.4653" cy="207.2188" fill="#D5F5E3" rx="8" ry="8" style="stroke:#117A65;stroke-width:0.5;"/><text fill="#000000" font-family="sans-serif" font-size="14" lengthAdjust="spacing" textLength="113.6201" x="272.6553" y="238.752">IGestionPacientes</text></g><!--entity ballIPP--><g id="elem_ballIPP"><ellipse cx="382.4653" cy="207.2188" fill="#D5F5E3" rx="8" ry="8" style="stroke:#117A65;stroke-width:0.5;"/><text fill="#000000" font-family="sans-serif" font-size="14" lengthAdjust="spacing" textLength="91.834" x="336.5483" y="238.752">IGestionPagos</text></g><!--entity ballIAU--><g id="elem_ballIAU"><ellipse cx="435.4653" cy="207.2188" fill="#D5F5E3" rx="8" ry="8" style="stroke:#117A65;stroke-width:0.5;"/><text fill="#000000" font-family="sans-serif" font-size="14" lengthAdjust="spacing" textLength="59.1445" x="405.8931" y="238.752">IAuditoria</text></g><!--entity ballIGR--><g id="elem_ballIGR"><ellipse cx="848.4653" cy="323.2188" fill="#D5F5E3" rx="8" ry="8" style="stroke:#117A65;stroke-width:0.5;"/><text fill="#000000" font-family="sans-serif" font-size="14" lengthAdjust="spacing" textLength="105.0547" x="795.938" y="354.752">IGenerarReporte</text></g><!--entity ballIA--><g id="elem_ballIA"><ellipse cx="99.4653" cy="323.2188" fill="#D5F5E3" rx="8" ry="8" style="stroke:#117A65;stroke-width:0.5;"/><text fill="#000000" font-family="sans-serif" font-size="14" lengthAdjust="spacing" textLength="87.9443" x="55.4932" y="354.752">IAutenticacion</text></g><!--entity ballIAuth--><g id="elem_ballIAuth"><ellipse cx="46.4653" cy="323.2188" fill="#D5F5E3" rx="8" ry="8" style="stroke:#117A65;stroke-width:0.5;"/><text fill="#000000" font-family="sans-serif" font-size="14" lengthAdjust="spacing" textLength="80.9307" x="6" y="354.752">IAutorizacion</text></g><!--entity ballINS--><g id="elem_ballINS"><ellipse cx="396.4653" cy="323.2188" fill="#D5F5E3" rx="8" ry="8" style="stroke:#117A65;stroke-width:0.5;"/><text fill="#000000" font-family="sans-serif" font-size="14" lengthAdjust="spacing" textLength="106.5928" x="343.1689" y="354.752">INotificacionSMS</text></g><!--entity ballINE--><g id="elem_ballINE"><ellipse cx="343.4653" cy="323.2188" fill="#D5F5E3" rx="8" ry="8" style="stroke:#117A65;stroke-width:0.5;"/><text fill="#000000" font-family="sans-serif" font-size="14" lengthAdjust="spacing" textLength="111.2617" x="287.8345" y="354.752">INotificacionEmail</text></g><!--entity ballIBD--><g id="elem_ballIBD"><ellipse cx="1069.4653" cy="439.2188" fill="#D5F5E3" rx="8" ry="8" style="stroke:#117A65;stroke-width:0.5;"/><text fill="#000000" font-family="sans-serif" font-size="14" lengthAdjust="spacing" textLength="82.4893" x="1028.2207" y="470.752">IConexionBD</text></g><!--entity ballIPPEx--><g id="elem_ballIPPEx"><ellipse cx="502.4653" cy="323.2188" fill="#D5F5E3" rx="8" ry="8" style="stroke:#117A65;stroke-width:0.5;"/><text fill="#000000" font-family="sans-serif" font-size="14" lengthAdjust="spacing" textLength="92.6064" x="456.1621" y="354.752">IProcesarPago</text></g><!--entity ballIVT--><g id="elem_ballIVT"><ellipse cx="449.4653" cy="323.2188" fill="#D5F5E3" rx="8" ry="8" style="stroke:#117A65;stroke-width:0.5;"/><text fill="#000000" font-family="sans-serif" font-size="14" lengthAdjust="spacing" textLength="131.4893" x="383.7207" y="354.752">IVerificarTransaccion</text></g><!--entity ballSMS--><g id="elem_ballSMS"><ellipse cx="221.4653" cy="439.2188" fill="#D5F5E3" rx="8" ry="8" style="stroke:#117A65;stroke-width:0.5;"/><text fill="#000000" font-family="sans-serif" font-size="14" lengthAdjust="spacing" textLength="73.9102" x="184.5103" y="470.752">IEnviarSMS</text></g><!--entity ballEmail--><g id="elem_ballEmail"><ellipse cx="168.4653" cy="439.2188" fill="#D5F5E3" rx="8" ry="8" style="stroke:#117A65;stroke-width:0.5;"/><text fill="#000000" font-family="sans-serif" font-size="14" lengthAdjust="spacing" textLength="78.5791" x="129.1758" y="470.752">IEnviarEmail</text></g><!--entity ballMP--><g id="elem_ballMP"><ellipse cx="613.4653" cy="439.2188" fill="#D5F5E3" rx="8" ry="8" style="stroke:#117A65;stroke-width:0.5;"/><text fill="#000000" font-family="sans-serif" font-size="14" lengthAdjust="spacing" textLength="84.834" x="571.0483" y="470.752">IPagoExterno</text></g><!--link ballIL to Frontend--><g id="link_ballIL_Frontend"><path d="M502.4853,91.2188 C514.1953,91.2188 525.8953,91.2188 537.5953,91.2188 " fill="transparent" id="ballIL-Frontend" style="stroke:#181818;stroke-width:1;"/></g><!--link ballIAg to Frontend--><g id="link_ballIAg_Frontend"><path d="M953.2853,314.0288 C949.3353,289.6988 934.3253,217.1588 891.4653,179.2188 C829.1853,124.0888 732.9453,103.8788 669.0953,96.4787 " fill="transparent" id="ballIAg-Frontend" style="stroke:#181818;stroke-width:1;"/></g><!--link ballIP to Frontend--><g id="link_ballIP_Frontend"><path d="M1005.8653,313.9388 C1000.6553,289.3388 981.8453,216.1188 936.4653,179.2188 C859.3953,116.5388 741.9853,98.5788 669.1353,93.6888 " fill="transparent" id="ballIP-Frontend" style="stroke:#181818;stroke-width:1;"/></g><!--link ballIM to Frontend--><g id="link_ballIM_Frontend"><path d="M716.4653,314.1387 C695.5553,293.0188 640.7953,237.5988 639.4653,235.2188 C618.7753,198.2487 609.7853,149.3087 606.0253,119.3388 " fill="transparent" id="ballIM-Frontend" style="stroke:#181818;stroke-width:1;"/></g><!--link ballIR to Frontend--><g id="link_ballIR_Frontend"><path d="M900.8753,314.1588 C898.7053,290.1588 889.0553,218.4588 849.4653,179.2188 C800.8853,131.0688 724.0253,109.4488 669.1553,99.8188 " fill="transparent" id="ballIR-Frontend" style="stroke:#181818;stroke-width:1;"/></g><!--link ballIGU to Backend--><g id="link_ballIGU_Backend"><path d="M492.2753,198.0388 C498.4953,184.4388 512.2453,159.4388 532.9653,149.2188 C583.2853,124.4088 646.3253,153.9788 686.0153,179.1988 " fill="transparent" id="ballIGU-Backend" style="stroke:#181818;stroke-width:1;"/></g><!--link ballIGC to Backend--><g id="link_ballIGC_Backend"><path d="M550.7553,207.2188 C585.9253,207.2188 621.1053,207.2188 656.2753,207.2188 " fill="transparent" id="ballIGC-Backend" style="stroke:#181818;stroke-width:1;"/></g><!--link ballIGP to Backend--><g id="link_ballIGP_Backend"><path d="M333.2753,198.0388 C339.4953,184.4388 353.2453,159.4388 373.9653,149.2188 C444.5153,114.4187 473.3153,136.5888 550.9653,149.2188 C587.0153,155.0888 625.6853,167.3888 657.3553,179.1588 " fill="transparent" id="ballIGP-Backend" style="stroke:#181818;stroke-width:1;"/></g><!--link ballIPP to Backend--><g id="link_ballIPP_Backend"><path d="M386.2753,198.0388 C392.4953,184.4388 406.2453,159.4388 426.9653,149.2188 C476.3953,124.8388 496.5653,140.3687 550.9653,149.2188 C587.0153,155.0888 625.6853,167.3888 657.3553,179.1588 " fill="transparent" id="ballIPP-Backend" style="stroke:#181818;stroke-width:1;"/></g><!--link ballIAU to Backend--><g id="link_ballIAU_Backend"><path d="M439.2753,198.0388 C445.4953,184.4388 459.2453,159.4388 479.9653,149.2188 C545.1153,117.0888 628.9453,151.2888 679.5953,179.1288 " fill="transparent" id="ballIAU-Backend" style="stroke:#181818;stroke-width:1;"/></g><!--link ballIGR to Backend--><g id="link_ballIGR_Backend"><path d="M846.8553,313.8787 C835.3453,297.5588 796.7453,260.7788 765.5353,235.2388 " fill="transparent" id="ballIGR-Backend" style="stroke:#181818;stroke-width:1;"/></g><!--link Backend to ballIGR--><g id="link_Backend_ballIGR"><path d="M742.8253,235.2388 C770.0353,263.5488 817.8553,305.6588 839.3553,318.4188 " fill="transparent" id="Backend-ballIGR" style="stroke:#181818;stroke-width:1;"/></g><!--link ballIA to Auth--><g id="link_ballIA_Auth"><path d="M103.2753,314.0388 C109.4953,300.4388 123.2453,275.4388 143.9653,265.2188 C199.6253,237.7688 1200.5553,251.0088 1260.9653,265.2188 C1286.1453,271.1387 1312.1053,283.3688 1333.1153,295.0788 " fill="transparent" id="ballIA-Auth" style="stroke:#181818;stroke-width:1;"/></g><!--link ballIAuth to Auth--><g id="link_ballIAuth_Auth"><path d="M50.1353,314.0488 C56.1353,300.4588 69.4753,275.4588 89.9653,265.2188 C148.1553,236.1288 1197.6353,250.3288 1260.9653,265.2188 C1286.1453,271.1387 1312.1053,283.3688 1333.1153,295.0788 " fill="transparent" id="ballIAuth-Auth" style="stroke:#181818;stroke-width:1;"/></g><!--link ballINS to Notifier--><g id="link_ballINS_Notifier"><path d="M392.7953,314.0488 C386.7953,300.4588 373.4553,275.4588 352.9653,265.2188 C345.8053,261.6387 342.7453,263.3488 334.9653,265.2188 C310.3353,271.1488 285.0253,283.3787 264.5853,295.0788 " fill="transparent" id="ballINS-Notifier" style="stroke:#181818;stroke-width:1;"/></g><!--link ballINE to Notifier--><g id="link_ballINE_Notifier"><path d="M334.4653,323.2188 C322.6853,323.2188 310.9153,323.2188 299.1453,323.2188 " fill="transparent" id="ballINE-Notifier" style="stroke:#181818;stroke-width:1;"/></g><!--link ballIBD to BD--><g id="link_ballIBD_BD"><path d="M1078.6653,439.2188 C1090.3253,439.2188 1101.9853,439.2188 1113.6453,439.2188 " fill="transparent" id="ballIBD-BD" style="stroke:#181818;stroke-width:1;"/></g><!--link ballIPPEx to Pagos--><g id="link_ballIPPEx_Pagos"><path d="M511.5753,323.2188 C523.2453,323.2188 534.9253,323.2188 546.5953,323.2188 " fill="transparent" id="ballIPPEx-Pagos" style="stroke:#181818;stroke-width:1;"/></g><!--link ballIVT to Pagos--><g id="link_ballIVT_Pagos"><path d="M453.2753,314.0388 C459.4953,300.4388 473.2453,275.4388 493.9653,265.2188 C501.1353,261.6788 504.2353,263.1688 511.9653,265.2188 C534.3253,271.1588 556.9053,283.3088 575.0653,294.9588 " fill="transparent" id="ballIVT-Pagos" style="stroke:#181818;stroke-width:1;"/></g><!--link Frontend to ballIGU--><g id="link_Frontend_ballIGU"><path d="M575.6853,119.6087 C558.3453,136.7188 535.5753,159.2188 515.4653,179.2188 C509.0753,185.5788 501.8553,192.7987 496.4853,198.1688 " fill="transparent" id="Frontend-ballIGU" style="stroke:#181818;stroke-width:1;"/></g><!--link Frontend to ballIGC--><g id="link_Frontend_ballIGC"><path d="M588.7753,119.2387 C574.8753,144.7788 554.8753,181.5587 546.0053,197.8788 " fill="transparent" id="Frontend-ballIGC" style="stroke:#181818;stroke-width:1;"/></g><!--link Frontend to ballIGP--><g id="link_Frontend_ballIGP"><path d="M537.7353,113.6988 C470.0553,136.0688 372.3153,169.2387 356.4653,179.2188 C348.3853,184.3087 340.8553,192.2088 335.8053,198.1588 " fill="transparent" id="Frontend-ballIGP" style="stroke:#181818;stroke-width:1;"/></g><!--link Frontend to ballIPP--><g id="link_Frontend_ballIPP"><path d="M537.9053,114.7387 C498.7653,129.8087 449.1253,151.8788 409.4653,179.2188 C401.7153,184.5587 394.2553,192.2888 389.1453,198.0988 " fill="transparent" id="Frontend-ballIPP" style="stroke:#181818;stroke-width:1;"/></g><!--link Frontend to ballIAU--><g id="link_Frontend_ballIAU"><path d="M553.3053,119.3488 C525.4953,135.3087 490.8953,156.7387 462.4653,179.2188 C455.1853,184.9788 447.7953,192.5088 442.5853,198.1588 " fill="transparent" id="Frontend-ballIAU" style="stroke:#181818;stroke-width:1;"/></g><!--link Frontend to ballIGR--><g id="link_Frontend_ballIGR"><path d="M669.4053,104.0188 C715.2453,115.5788 774.3753,137.7588 810.4653,179.2188 C845.8853,219.9088 848.7653,290.0688 848.6553,313.9688 " fill="transparent" id="Frontend-ballIGR" style="stroke:#181818;stroke-width:1;"/></g><!--link Backend to ballIL--><g id="link_Backend_ballIL"><path d="M656.4153,184.6187 C615.0953,169.7487 562.4153,147.5688 520.4653,119.2188 C512.6653,113.9488 505.2153,106.2188 500.1153,100.3788 " fill="transparent" id="Backend-ballIL" style="stroke:#181818;stroke-width:1;"/></g><!--link Backend to ballIAg--><g id="link_Backend_ballIAg"><path d="M792.7053,229.5388 C834.0953,244.3088 886.7853,266.4788 928.4653,295.2188 C936.0753,300.4688 943.2353,308.1988 948.1153,314.0488 " fill="transparent" id="Backend-ballIAg" style="stroke:#181818;stroke-width:1;"/></g><!--link Backend to ballIP--><g id="link_Backend_ballIP"><path d="M792.4853,221.8588 C846.6753,234.8688 922.8953,258.0588 981.4653,295.2188 C989.3753,300.2388 996.6153,308.1588 1001.4353,314.1188 " fill="transparent" id="Backend-ballIP" style="stroke:#181818;stroke-width:1;"/></g><!--link Backend to ballIM--><g id="link_Backend_ballIM"><path d="M724.4653,235.2388 C724.4653,260.7788 724.4653,297.5588 724.4653,313.8787 " fill="transparent" id="Backend-ballIM" style="stroke:#181818;stroke-width:1;"/></g><!--link Backend to ballIR--><g id="link_Backend_ballIR"><path d="M779.9253,235.3288 C809.5553,250.9788 845.9053,272.1088 875.4653,295.2188 C882.6453,300.8288 889.7453,308.3787 894.7053,314.0688 " fill="transparent" id="Backend-ballIR" style="stroke:#181818;stroke-width:1;"/></g><!--link Backend to ballIA--><g id="link_Backend_ballIA"><path d="M656.2153,220.5888 C628.9553,225.3788 597.2553,230.7788 568.4653,235.2188 C372.5353,265.4588 304.0853,207.1787 126.4653,295.2188 C117.6753,299.5788 110.0253,307.9188 105.1353,314.1788 " fill="transparent" id="Backend-ballIA" style="stroke:#181818;stroke-width:1;"/></g><!--link Backend to ballIAuth--><g id="link_Backend_ballIAuth"><path d="M656.2453,220.7988 C628.9953,225.6288 597.2953,230.9788 568.4653,235.2188 C348.7753,267.4988 271.2053,196.1787 72.4653,295.2188 C63.8453,299.5188 56.5053,307.8688 51.8453,314.1488 " fill="transparent" id="Backend-ballIAuth" style="stroke:#181818;stroke-width:1;"/></g><!--link Backend to ballIBD--><g id="link_Backend_ballIBD"><path d="M736.4653,235.2488 C751.9753,267.2388 781.8653,320.0788 822.4653,351.2188 C901.4653,411.8188 1026.0653,432.4088 1060.4253,437.0888 " fill="transparent" id="Backend-ballIBD" style="stroke:#181818;stroke-width:1;"/></g><!--link Backend to ballINS--><g id="link_Backend_ballINS"><path d="M656.3153,217.8688 C592.6353,229.1288 496.6553,251.9988 423.4653,295.2188 C415.2453,300.0688 407.7253,308.0087 402.7253,314.0288 " fill="transparent" id="Backend-ballINS" style="stroke:#181818;stroke-width:1;"/></g><!--link Backend to ballINE--><g id="link_Backend_ballINE"><path d="M656.1953,220.4588 C567.6853,237.0988 418.9153,267.9188 370.4653,295.2188 C362.1453,299.9088 354.6453,307.8588 349.6753,313.9288 " fill="transparent" id="Backend-ballINE" style="stroke:#181818;stroke-width:1;"/></g><!--link Auth to ballIBD--><g id="link_Auth_ballIBD"><path d="M1295.2153,347.4988 C1218.6953,369.5188 1113.9053,400.6988 1096.4653,411.2188 C1088.2953,416.1488 1080.7753,424.0788 1075.7553,430.0688 " fill="transparent" id="Auth-ballIBD" style="stroke:#181818;stroke-width:1;"/></g><!--link Notifier to ballSMS--><g id="link_Notifier_ballSMS"><path d="M221.4653,351.2388 C221.4653,376.7788 221.4653,413.5588 221.4653,429.8787 " fill="transparent" id="Notifier-ballSMS" style="stroke:#181818;stroke-width:1;"/></g><!--link Notifier to ballEmail--><g id="link_Notifier_ballEmail"><path d="M208.9053,351.2388 C197.0253,376.7788 179.9253,413.5588 172.3453,429.8787 " fill="transparent" id="Notifier-ballEmail" style="stroke:#181818;stroke-width:1;"/></g><!--link Pagos to ballIBD--><g id="link_Pagos_ballIBD"><path d="M680.1353,345.9288 C686.3153,347.7788 692.4953,349.5688 698.4653,351.2188 C841.3253,390.5988 1018.2253,427.6688 1060.2253,436.3288 " fill="transparent" id="Pagos-ballIBD" style="stroke:#181818;stroke-width:1;"/></g><!--link Pagos to ballMP--><g id="link_Pagos_ballMP"><path d="M613.4653,351.2388 C613.4653,376.7788 613.4653,413.5588 613.4653,429.8787 " fill="transparent" id="Pagos-ballMP" style="stroke:#181818;stroke-width:1;"/></g><!--link Auditoria to ballIBD--><g id="link_Auditoria_ballIBD"><path d="M1161.2053,351.3188 C1142.3853,368.3188 1117.7953,390.8088 1096.4653,411.2188 C1089.9553,417.4488 1082.7353,424.6788 1077.4053,430.0888 " fill="transparent" id="Auditoria-ballIBD" style="stroke:#181818;stroke-width:1;"/></g><!--link Reportes to Backend--><g id="link_Reportes_Backend"><path d="M1111.1753,207.2188 C1004.9753,207.2188 898.7753,207.2188 792.5853,207.2188 " fill="transparent" id="Reportes-Backend" style="stroke:#181818;stroke-width:1;"/></g><!--link Reportes to ballIBD--><g id="link_Reportes_ballIBD"><path d="M1156.0053,235.2288 C1138.5353,250.9988 1118.2153,272.2788 1105.4653,295.2188 C1079.5953,341.7688 1071.9953,407.0788 1070.0553,429.9288 " fill="transparent" id="Reportes-ballIBD" style="stroke:#181818;stroke-width:1;"/></g><!--link ballSMS to Twilio--><g id="link_ballSMS_Twilio"><path d="M230.5753,439.2188 C242.3053,439.2188 254.0453,439.2188 265.7753,439.2188 " fill="transparent" id="ballSMS-Twilio" style="stroke:#181818;stroke-width:1;"/></g><!--link ballEmail to SMTP--><g id="link_ballEmail_SMTP"><path d="M172.1353,430.0488 C178.1353,416.4588 191.4753,391.4588 211.9653,381.2188 C282.3253,346.0388 312.6953,361.9588 388.9653,381.2188 C416.5153,388.1788 444.6753,403.7388 465.2653,416.9988 " fill="transparent" id="ballEmail-SMTP" style="stroke:#181818;stroke-width:1;"/></g><!--link ballMP to MPago--><g id="link_ballMP_MPago"><path d="M622.7453,439.2188 C634.1953,439.2188 645.6453,439.2188 657.0953,439.2188 " fill="transparent" id="ballMP-MPago" style="stroke:#181818;stroke-width:1;"/></g><!--SRC=[TLRDRkCs4BxhAGZtKEVWxJgBR8jYiO1iqO41osObE-sX5qPYjEpAeal9INON1VeGVOaUUjf7o9lqIJhyaoZ9XGCu_6RuSJZppT0DRqg69X6dXQH7YdA6bk9u4XMh6bQZGxn1qv2itbpzMeNozpDlMDQSfVPBnKFpH2L3CvJokc5czosh6_xojT9ClA4rYb_-pdb6wqbGV-JLYS8vw9vc7mifpbM-5AMGw9iLLX_F8tDHe2y1GYjHDId_pD1y3gk5a3cJTkSr_k7jKgD3JhnOtQmMmHyUAuTRoGUQCStQuvdFlm_VtbpYYMvMD_WDy0JVed__-XF-q78NazqMR_SujL3G1JnPIGYNLJdwcTsZwM4DoNjNG_G_pb-_pqfUGJPcJ-oUdawl887llbEsznC4kN8xVJOLZo8BoHebEDrV8ACd_kgtFfFTvHEbJ3xoZ0jLcl0CnpImDrF5yYZfkVamgxKd6tB2fWy-OImQo0-mRKN37pGPM6gFhT869l-FSMljFkijgvYakM5Es4d8fiSfDJHZLS6h4Q7pzma9hK6cfPOdeONmoKxqqn6SPWLjs1FzDAJJxhqhltpDpwLDOSxX_Y__q5xw09oLeXZdJdjpUZ612repzHtHfXTU-jC6gR8nYQvVNr_t2XnvUYJ9xWxZQ0VwGFYNFKwskql2t3_n4kglb3HDu_HA4ncm9vHuJzonKtoal3IU2k-5psG6XL99GbENPUCQAz0BS0sjagp29KQBSBD9mLsAHvwp_Cg5ERr2a_L6G54rmJqjo_N6e641IgP73eUApXWMnaf0TcfQTHPY3363kUDjY0ti9D8Pai1OzEmIrQ4-Kyc5vt1xw3dekUPPbpshYyVt80EFmcSdrjfAnBjZUx3g2Mb3zuXTw5u_2o-1OMi5tiz3esfdu-0tC0YZyzccOmUj2Cy5Mv8boE8Px8keCogLcYf9aJ5GYBgxVtNyREntJEe3v5xIggPPFzIxlQN1rIEdqWyH_lTD_U3qoica4FWPnd_LdHyJJw9XcgvljxgLrX6EEicsdMGq2UzTEwQj44SG6I7n24by9B0w0ynDRgkj4KA621aXuPWdyH3h18YMG2i61mIszB1k1xGjjGy5jiAAEGg2jg2mDdFJbgvT- -_dDZt4E47xdKjuuhBSlfwpMTjzOsnv0IDZZ5p0majyq4ZkeNNOPeJ0o1b2P8J48oGP4uqHbVWX26aTGj2G8mYF87KTKz6EAN25Sw3gd25c6YRGzV8tzm3LDksmwXtXPgidjWxo_2xya4AXVfVCwnNwBGTn0fzzfjeWrSzEzHwPW61bdfp_0000]--></g></svg>