<svg xmlns="http://www.w3.org/2000/svg" xmlns:xlink="http://www.w3.org/1999/xlink" contentStyleType="text/css" data-diagram-type="SEQUENCE" height="933px" preserveAspectRatio="none" style="width:815px;height:933px;background:#FEFEFE;" version="1.1" viewBox="0 0 815 933" width="815px" zoomAndPan="magnify"><title>Diagrama de Secuencia</title><defs/><g><rect fill="#FEFEFE" height="933" style="stroke:transparent;stroke-width:1;" width="815" x="0" y="0"/><text fill="#000000" font-family="sans-serif" font-size="14" font-weight="bold" lengthAdjust="spacing" textLength="157.1855" x="325.0435" y="29.5332">Diagrama de Secuencia</text><text fill="#000000" font-family="sans-serif" font-size="14" font-weight="bold" lengthAdjust="spacing" textLength="227.165" x="290.0537" y="47.1426">Registro de Triaje (Signos Vitales)</text><g><title>:V_Triaje</title><rect fill="#FFFFFF" height="151.7578" style="stroke:#181818;stroke-width:1;" width="10" x="240.3208" y="219.1406"/></g><g><title>:V_Triaje</title><rect fill="#FFFFFF" height="231.8125" style="stroke:#181818;stroke-width:1;" width="10" x="240.3208" y="567.0078"/></g><g><title>:CtrlTriaje</title><rect fill="#FFFFFF" height="91.0547" style="stroke:#181818;stroke-width:1;" width="10" x="426.1143" y="249.4922"/></g><g><title>:CtrlTriaje</title><rect fill="#FFFFFF" height="151.7578" style="stroke:#181818;stroke-width:1;" width="10" x="426.1143" y="597.3594"/></g><g><title>:SQL Server</title><rect fill="#FFFFFF" height="30.3516" style="stroke:#181818;stroke-width:1;" width="10" x="693.8623" y="279.8438"/></g><g><title>:SQL Server</title><rect fill="#FFFFFF" height="30.3516" style="stroke:#181818;stroke-width:1;" width="10" x="693.8623" y="688.4141"/></g><g><title>:Triaje</title><rect fill="#FFFFFF" height="30.3516" style="stroke:#181818;stroke-width:1;" width="10" x="771.8242" y="627.7109"/></g><g><title>Enfermero</title><rect fill="transparent" height="693.7344" width="8" x="36.6792" y="142.4375"/><line style="stroke:#181818;stroke-width:0.5;stroke-dasharray:5.0,5.0;" x1="40" x2="40" y1="142.4375" y2="836.1719"/></g><g><title>:V_Triaje</title><rect fill="transparent" height="693.7344" width="8" x="241.3208" y="142.4375"/><line style="stroke:#181818;stroke-width:0.5;stroke-dasharray:5.0,5.0;" x1="245.3105" x2="245.3105" y1="142.4375" y2="836.1719"/></g><g><title>:CtrlTriaje</title><rect fill="transparent" height="693.7344" width="8" x="427.1143" y="142.4375"/><line style="stroke:#181818;stroke-width:0.5;stroke-dasharray:5.0,5.0;" x1="430.7798" x2="430.7798" y1="142.4375" y2="836.1719"/></g><g><title>:SQL Server</title><rect fill="transparent" height="693.7344" width="8" x="694.8623" y="142.4375"/><line style="stroke:#181818;stroke-width:0.5;stroke-dasharray:5.0,5.0;" x1="698.3486" x2="698.3486" y1="142.4375" y2="836.1719"/></g><g><title>:Triaje</title><rect fill="transparent" height="693.7344" width="8" x="772.8242" y="142.4375"/><line style="stroke:#181818;stroke-width:0.5;stroke-dasharray:5.0,5.0;" x1="776.376" x2="776.376" y1="142.4375" y2="836.1719"/></g><text fill="#000000" font-family="sans-serif" font-size="14" lengthAdjust="spacing" textLength="65.3584" x="5" y="139.3613">Enfermero</text><ellipse cx="40.6792" cy="73.3281" fill="#AED6F1" rx="8" ry="8" style="stroke:#1B4F72;stroke-width:0.5;"/><path d="M40.6792,81.3281 L40.6792,108.3281 M27.6792,89.3281 L53.6792,89.3281 M40.6792,108.3281 L27.6792,123.3281 M40.6792,108.3281 L53.6792,123.3281 " fill="transparent" style="stroke:#1B4F72;stroke-width:0.5;"/><text fill="#000000" font-family="sans-serif" font-size="14" lengthAdjust="spacing" textLength="65.3584" x="5" y="849.7051">Enfermero</text><ellipse cx="40.6792" cy="861.2813" fill="#AED6F1" rx="8" ry="8" style="stroke:#1B4F72;stroke-width:0.5;"/><path d="M40.6792,869.2813 L40.6792,896.2813 M27.6792,877.2813 L53.6792,877.2813 M40.6792,896.2813 L27.6792,911.2813 M40.6792,896.2813 L53.6792,911.2813 " fill="transparent" style="stroke:#1B4F72;stroke-width:0.5;"/><rect fill="#EBF5FB" height="31.6094" rx="2.5" ry="2.5" style="stroke:#2E86C1;stroke-width:0.5;" width="70.0205" x="210.3105" y="109.8281"/><text fill="#000000" font-family="sans-serif" font-size="14" lengthAdjust="spacing" textLength="56.0205" x="217.3105" y="131.3613">:V_Triaje</text><rect fill="#EBF5FB" height="31.6094" rx="2.5" ry="2.5" style="stroke:#2E86C1;stroke-width:0.5;" width="70.0205" x="210.3105" y="835.1719"/><text fill="#000000" font-family="sans-serif" font-size="14" lengthAdjust="spacing" textLength="56.0205" x="217.3105" y="856.7051">:V_Triaje</text><rect fill="#EBF5FB" height="31.6094" rx="2.5" ry="2.5" style="stroke:#2E86C1;stroke-width:0.5;" width="74.6689" x="393.7798" y="109.8281"/><text fill="#000000" font-family="sans-serif" font-size="14" lengthAdjust="spacing" textLength="60.6689" x="400.7798" y="131.3613">:CtrlTriaje</text><rect fill="#EBF5FB" height="31.6094" rx="2.5" ry="2.5" style="stroke:#2E86C1;stroke-width:0.5;" width="74.6689" x="393.7798" y="835.1719"/><text fill="#000000" font-family="sans-serif" font-size="14" lengthAdjust="spacing" textLength="60.6689" x="400.7798" y="856.7051">:CtrlTriaje</text><text fill="#000000" font-family="sans-serif" font-size="14" lengthAdjust="spacing" textLength="77.0273" x="657.3486" y="121.752">:SQL Server</text><text fill="#000000" font-family="sans-serif" font-size="14" lengthAdjust="spacing" textLength="28.7725" x="681.4761" y="139.3613">(BD)</text><path d="M680.8623,71.2188 C680.8623,61.2188 698.8623,61.2188 698.8623,61.2188 C698.8623,61.2188 716.8623,61.2188 716.8623,71.2188 L716.8623,97.2188 C716.8623,107.2188 698.8623,107.2188 698.8623,107.2188 C698.8623,107.2188 680.8623,107.2188 680.8623,97.2188 L680.8623,71.2188 " fill="#D5F5E3" style="stroke:#117A65;stroke-width:1.5;"/><path d="M680.8623,71.2188 C680.8623,81.2188 698.8623,81.2188 698.8623,81.2188 C698.8623,81.2188 716.8623,81.2188 716.8623,71.2188 " fill="transparent" style="stroke:#117A65;stroke-width:1.5;"/><text fill="#000000" font-family="sans-serif" font-size="14" lengthAdjust="spacing" textLength="77.0273" x="657.3486" y="849.7051">:SQL Server</text><text fill="#000000" font-family="sans-serif" font-size="14" lengthAdjust="spacing" textLength="28.7725" x="681.4761" y="867.3145">(BD)</text><path d="M680.8623,880.3906 C680.8623,870.3906 698.8623,870.3906 698.8623,870.3906 C698.8623,870.3906 716.8623,870.3906 716.8623,880.3906 L716.8623,906.3906 C716.8623,916.3906 698.8623,916.3906 698.8623,916.3906 C698.8623,916.3906 680.8623,916.3906 680.8623,906.3906 L680.8623,880.3906 " fill="#D5F5E3" style="stroke:#117A65;stroke-width:1.5;"/><path d="M680.8623,880.3906 C680.8623,890.3906 698.8623,890.3906 698.8623,890.3906 C698.8623,890.3906 716.8623,890.3906 716.8623,880.3906 " fill="transparent" style="stroke:#117A65;stroke-width:1.5;"/><rect fill="#EBF5FB" height="31.6094" rx="2.5" ry="2.5" style="stroke:#2E86C1;stroke-width:0.5;" width="52.8965" x="750.376" y="109.8281"/><text fill="#000000" font-family="sans-serif" font-size="14" lengthAdjust="spacing" textLength="38.8965" x="757.376" y="131.3613">:Triaje</text><rect fill="#EBF5FB" height="31.6094" rx="2.5" ry="2.5" style="stroke:#2E86C1;stroke-width:0.5;" width="52.8965" x="750.376" y="835.1719"/><text fill="#000000" font-family="sans-serif" font-size="14" lengthAdjust="spacing" textLength="38.8965" x="757.376" y="856.7051">:Triaje</text><g><title>:V_Triaje</title><rect fill="#FFFFFF" height="151.7578" style="stroke:#181818;stroke-width:1;" width="10" x="240.3208" y="219.1406"/></g><g><title>:V_Triaje</title><rect fill="#FFFFFF" height="231.8125" style="stroke:#181818;stroke-width:1;" width="10" x="240.3208" y="567.0078"/></g><g><title>:CtrlTriaje</title><rect fill="#FFFFFF" height="91.0547" style="stroke:#181818;stroke-width:1;" width="10" x="426.1143" y="249.4922"/></g><g><title>:CtrlTriaje</title><rect fill="#FFFFFF" height="151.7578" style="stroke:#181818;stroke-width:1;" width="10" x="426.1143" y="597.3594"/></g><g><title>:SQL Server</title><rect fill="#FFFFFF" height="30.3516" style="stroke:#181818;stroke-width:1;" width="10" x="693.8623" y="279.8438"/></g><g><title>:SQL Server</title><rect fill="#FFFFFF" height="30.3516" style="stroke:#181818;stroke-width:1;" width="10" x="693.8623" y="688.4141"/></g><g><title>:Triaje</title><rect fill="#FFFFFF" height="30.3516" style="stroke:#181818;stroke-width:1;" width="10" x="771.8242" y="627.7109"/></g><rect fill="#EEEEEE" height="3" style="stroke:#EEEEEE;stroke-width:1;" width="808.2725" x="0" y="173.6133"/><line style="stroke:#000000;stroke-width:1;" x1="0" x2="808.2725" y1="173.6133" y2="173.6133"/><line style="stroke:#000000;stroke-width:1;" x1="0" x2="808.2725" y1="176.6133" y2="176.6133"/><rect fill="#EEEEEE" height="24.3516" style="stroke:#000000;stroke-width:2;" width="170.7744" x="318.749" y="162.4375"/><text fill="#000000" font-family="sans-serif" font-size="13" font-weight="bold" lengthAdjust="spacing" textLength="153.1626" x="324.749" y="179.9326">Carga de datos de la cita</text><polygon fill="#181818" points="228.3208,215.1406,238.3208,219.1406,228.3208,223.1406,232.3208,219.1406" style="stroke:#181818;stroke-width:1;"/><line style="stroke:#181818;stroke-width:1;" x1="40.6792" x2="234.3208" y1="219.1406" y2="219.1406"/><text fill="#000000" font-family="sans-serif" font-size="13" lengthAdjust="spacing" textLength="109.0718" x="47.6792" y="214.2842">activarFormulario()</text><polygon fill="#181818" points="414.1143,245.4922,424.1143,249.4922,414.1143,253.4922,418.1143,249.4922" style="stroke:#181818;stroke-width:1;"/><line style="stroke:#181818;stroke-width:1;" x1="250.3208" x2="420.1143" y1="249.4922" y2="249.4922"/><text fill="#000000" font-family="sans-serif" font-size="13" lengthAdjust="spacing" textLength="117.0444" x="257.3208" y="244.6357">getDatosCita(idCita)</text><polygon fill="#181818" points="681.8623,275.8438,691.8623,279.8438,681.8623,283.8438,685.8623,279.8438" style="stroke:#181818;stroke-width:1;"/><line style="stroke:#181818;stroke-width:1;" x1="436.1143" x2="687.8623" y1="279.8438" y2="279.8438"/><text fill="#000000" font-family="sans-serif" font-size="13" lengthAdjust="spacing" textLength="238.748" x="443.1143" y="274.9873">SELECT * FROM Cita WHERE idCita = ?</text><polygon fill="#181818" points="447.1143,306.1953,437.1143,310.1953,447.1143,314.1953,443.1143,310.1953" style="stroke:#181818;stroke-width:1;"/><line style="stroke:#181818;stroke-width:1;stroke-dasharray:2.0,2.0;" x1="441.1143" x2="697.8623" y1="310.1953" y2="310.1953"/><text fill="#000000" font-family="sans-serif" font-size="13" lengthAdjust="spacing" textLength="54.9199" x="453.1143" y="305.3389">datosCita</text><polygon fill="#181818" points="261.3208,336.5469,251.3208,340.5469,261.3208,344.5469,257.3208,340.5469" style="stroke:#181818;stroke-width:1;"/><line style="stroke:#181818;stroke-width:1;stroke-dasharray:2.0,2.0;" x1="255.3208" x2="430.1143" y1="340.5469" y2="340.5469"/><text fill="#000000" font-family="sans-serif" font-size="13" lengthAdjust="spacing" textLength="138.728" x="267.3208" y="335.6904">retornarDatosPaciente()</text><polygon fill="#181818" points="51.6792,366.8984,41.6792,370.8984,51.6792,374.8984,47.6792,370.8984" style="stroke:#181818;stroke-width:1;"/><line style="stroke:#181818;stroke-width:1;stroke-dasharray:2.0,2.0;" x1="45.6792" x2="244.3208" y1="370.8984" y2="370.8984"/><text fill="#000000" font-family="sans-serif" font-size="13" lengthAdjust="spacing" textLength="137.2681" x="57.6792" y="366.042">mostrarDatosPaciente()</text><rect fill="#EEEEEE" height="3" style="stroke:#EEEEEE;stroke-width:1;" width="808.2725" x="0" y="400.0742"/><line style="stroke:#000000;stroke-width:1;" x1="0" x2="808.2725" y1="400.0742" y2="400.0742"/><line style="stroke:#000000;stroke-width:1;" x1="0" x2="808.2725" y1="403.0742" y2="403.0742"/><rect fill="#EEEEEE" height="24.3516" style="stroke:#000000;stroke-width:2;" width="178.7153" x="314.7786" y="388.8984"/><text fill="#000000" font-family="sans-serif" font-size="13" font-weight="bold" lengthAdjust="spacing" textLength="161.1035" x="320.7786" y="406.3936">Registro de signos vitales</text><polygon fill="#181818" points="233.3208,441.6016,243.3208,445.6016,233.3208,449.6016,237.3208,445.6016" style="stroke:#181818;stroke-width:1;"/><line style="stroke:#181818;stroke-width:1;" x1="40.6792" x2="239.3208" y1="445.6016" y2="445.6016"/><text fill="#000000" font-family="sans-serif" font-size="13" lengthAdjust="spacing" textLength="180.6416" x="47.6792" y="440.7451">ingresarPresionArterial(120/80)</text><polygon fill="#181818" points="233.3208,471.9531,243.3208,475.9531,233.3208,479.9531,237.3208,475.9531" style="stroke:#181818;stroke-width:1;"/><line style="stroke:#181818;stroke-width:1;" x1="40.6792" x2="239.3208" y1="475.9531" y2="475.9531"/><text fill="#000000" font-family="sans-serif" font-size="13" lengthAdjust="spacing" textLength="155.3462" x="47.6792" y="471.0967">ingresarTemperatura(36.5)</text><polygon fill="#181818" points="233.3208,502.3047,243.3208,506.3047,233.3208,510.3047,237.3208,506.3047" style="stroke:#181818;stroke-width:1;"/><line style="stroke:#181818;stroke-width:1;" x1="40.6792" x2="239.3208" y1="506.3047" y2="506.3047"/><text fill="#000000" font-family="sans-serif" font-size="13" lengthAdjust="spacing" textLength="99.7153" x="47.6792" y="501.4482">ingresarPeso(72)</text><polygon fill="#181818" points="233.3208,532.6563,243.3208,536.6563,233.3208,540.6563,237.3208,536.6563" style="stroke:#181818;stroke-width:1;"/><line style="stroke:#181818;stroke-width:1;" x1="40.6792" x2="239.3208" y1="536.6563" y2="536.6563"/><text fill="#000000" font-family="sans-serif" font-size="13" lengthAdjust="spacing" textLength="132.2344" x="47.6792" y="531.7998">ingresarSaturacion(98)</text><polygon fill="#181818" points="228.3208,563.0078,238.3208,567.0078,228.3208,571.0078,232.3208,567.0078" style="stroke:#181818;stroke-width:1;"/><line style="stroke:#181818;stroke-width:1;" x1="40.6792" x2="234.3208" y1="567.0078" y2="567.0078"/><text fill="#000000" font-family="sans-serif" font-size="13" lengthAdjust="spacing" textLength="156.7935" x="47.6792" y="562.1514">guardarTriaje(datosVitales)</text><polygon fill="#181818" points="414.1143,593.3594,424.1143,597.3594,414.1143,601.3594,418.1143,597.3594" style="stroke:#181818;stroke-width:1;"/><line style="stroke:#181818;stroke-width:1;" x1="250.3208" x2="420.1143" y1="597.3594" y2="597.3594"/><text fill="#000000" font-family="sans-serif" font-size="13" lengthAdjust="spacing" textLength="156.7935" x="257.3208" y="592.5029">guardarTriaje(datosVitales)</text><polygon fill="#181818" points="759.8242,623.7109,769.8242,627.7109,759.8242,631.7109,763.8242,627.7109" style="stroke:#181818;stroke-width:1;"/><line style="stroke:#181818;stroke-width:1;" x1="436.1143" x2="765.8242" y1="627.7109" y2="627.7109"/><text fill="#000000" font-family="sans-serif" font-size="13" lengthAdjust="spacing" textLength="102.5845" x="443.1143" y="622.8545">crearTriaje(datos)</text><polygon fill="#181818" points="447.1143,654.0625,437.1143,658.0625,447.1143,662.0625,443.1143,658.0625" style="stroke:#181818;stroke-width:1;"/><line style="stroke:#181818;stroke-width:1;stroke-dasharray:2.0,2.0;" x1="441.1143" x2="775.8242" y1="658.0625" y2="658.0625"/><text fill="#000000" font-family="sans-serif" font-size="13" lengthAdjust="spacing" textLength="70.8145" x="453.1143" y="653.2061">triajeCreado</text><polygon fill="#181818" points="681.8623,684.4141,691.8623,688.4141,681.8623,692.4141,685.8623,688.4141" style="stroke:#181818;stroke-width:1;"/><line style="stroke:#181818;stroke-width:1;" x1="436.1143" x2="687.8623" y1="688.4141" y2="688.4141"/><text fill="#000000" font-family="sans-serif" font-size="13" lengthAdjust="spacing" textLength="192.8608" x="443.1143" y="683.5576">INSERT INTO Triaje VALUES(...)</text><polygon fill="#181818" points="447.1143,714.7656,437.1143,718.7656,447.1143,722.7656,443.1143,718.7656" style="stroke:#181818;stroke-width:1;"/><line style="stroke:#181818;stroke-width:1;stroke-dasharray:2.0,2.0;" x1="441.1143" x2="697.8623" y1="718.7656" y2="718.7656"/><text fill="#000000" font-family="sans-serif" font-size="13" lengthAdjust="spacing" textLength="13.73" x="453.1143" y="713.9092">ok</text><polygon fill="#181818" points="261.3208,745.1172,251.3208,749.1172,261.3208,753.1172,257.3208,749.1172" style="stroke:#181818;stroke-width:1;"/><line style="stroke:#181818;stroke-width:1;stroke-dasharray:2.0,2.0;" x1="255.3208" x2="430.1143" y1="749.1172" y2="749.1172"/><text fill="#000000" font-family="sans-serif" font-size="13" lengthAdjust="spacing" textLength="140.1753" x="267.3208" y="744.2607">confirmacionGuardado()</text><polygon fill="#181818" points="51.6792,794.8203,41.6792,798.8203,51.6792,802.8203,47.6792,798.8203" style="stroke:#181818;stroke-width:1;"/><line style="stroke:#181818;stroke-width:1;stroke-dasharray:2.0,2.0;" x1="45.6792" x2="244.3208" y1="798.8203" y2="798.8203"/><text fill="#000000" font-family="sans-serif" font-size="13" lengthAdjust="spacing" textLength="129.3018" x="57.6792" y="793.9639">mostrarConfirmacion()</text><path d="M255,762.1172 L255,821.1172 L395,821.1172 L395,772.1172 L385,762.1172 L255,762.1172 " fill="#FEFFDD" style="stroke:#181818;stroke-width:0.5;"/><path d="M385,762.1172 L385,772.1172 L395,772.1172 L385,762.1172 " fill="#FEFFDD" style="stroke:#181818;stroke-width:0.5;"/><text fill="#000000" font-family="sans-serif" font-size="13" lengthAdjust="spacing" textLength="103.3525" x="261" y="780.6123">La ventana modal</text><text fill="#000000" font-family="sans-serif" font-size="13" lengthAdjust="spacing" textLength="99.709" x="261" y="796.9639">de triaje se cierra</text><text fill="#000000" font-family="sans-serif" font-size="13" lengthAdjust="spacing" textLength="119.2217" x="261" y="813.3154">y se libera la interfaz</text><!--SRC=[bLJRRjD047tVhnY55mUfeKb9MY855Dy0AT0IX_1I2KtjhLdgx5RZJIH0_3lZIzfD6nfG9DkxEUViNCwiLRQGq0aLveGhX4n28jErrAd2IpsNkIejcMfxGGg_I_0IbMjJmb9PB6JPxGXHtYXzYqo7AqnlSZ9hdGMcC0JFugZwEGX-MfMgMzGMVWa0tr0cgKKFehDHqAzs7-f4VZoCVV7RKSBKyZ-FDFh-o_Xqi4zZ6eMZkB-ZaQ75Aopb7fd-wNGqt2SJ3kDXTC8oeecW4-bhIIj9fWDOmjrAkAbsniklJG5hq9AhYWy0WQN2WLHBSHTVPvnycd5dQ2FfKdj-sAr1VlX0n15eFeMOJ210oklMiXwtZZyAX9GR29E9k0iOZbutWS6uAgxQ8CM6Lki2IHclAvezAzleHODbKXKgSt9fmqe_O65FPTNB8TNvY1hA53zaGXBDec01po6Udt-02WzVtaNp21eoJE3DFPzJPTBH_N7PzYoHIHVLdk4aGvBxf97gw2umLL9RoGavl2QwDYEctXTb32l38_0akoq8LzeTcB8Pb4qpA7yjjT8voHBfWf_Aw2bPoPqhlFxW-CNPSVTfqaAkRYMXNHDw9wFUy03yGfR6EnqSG2MrNih1UA_Ekc8_E5yZPHn0xJAlRiRsIZZib7_XxXgclNt6a9BSPJgKrl8jrl6AhNS2fcR6RTnsHdPi-VvZ4iqN_5gSRuzTJcUVeyJhzNhT9nnfRWvQCJNwMj6gBkxRkWgP-Myd1eu8axLX6gdycsN836731aMDZCwmkDJin2Pzu7k4tKl45_kFQb6eA_PETHSejZHTuy_7flu3]--></g></svg>