<svg xmlns="http://www.w3.org/2000/svg" xmlns:xlink="http://www.w3.org/1999/xlink" contentStyleType="text/css" data-diagram-type="DESCRIPTION" height="628px" preserveAspectRatio="none" style="width:1840px;height:628px;background:#FEFEFE;" version="1.1" viewBox="0 0 1840 628" width="1840px" zoomAndPan="magnify"><title>Diagrama de Estructura Compuesta</title><defs/><g><rect fill="#FEFEFE" height="628" style="stroke:transparent;stroke-width:1;" width="1840" x="0" y="0"/><text fill="#000000" font-family="sans-serif" font-size="14" font-weight="bold" lengthAdjust="spacing" textLength="238.0684" x="794.4226" y="24.5332">Diagrama de Estructura Compuesta</text><text fill="#000000" font-family="sans-serif" font-size="14" font-weight="bold" lengthAdjust="spacing" textLength="185.8965" x="820.5085" y="42.1426">Componente: GestorClinico</text><!--cluster gestor--><g id="cluster_gestor"><rect fill="#EBF5FB" height="422" rx="2.5" ry="2.5" style="stroke:#2E86C1;stroke-width:1;" width="945" x="7" y="200.2188"/><rect fill="#EBF5FB" height="10" style="stroke:#2E86C1;stroke-width:1;" width="15" x="932" y="205.2188"/><rect fill="#EBF5FB" height="2" style="stroke:#2E86C1;stroke-width:1;" width="4" x="930" y="207.2188"/><rect fill="#EBF5FB" height="2" style="stroke:#2E86C1;stroke-width:1;" width="4" x="930" y="211.2188"/><text fill="#000000" font-family="sans-serif" font-size="11" font-weight="bold" lengthAdjust="spacing" textLength="72.123" x="443.4385" y="224.6377">GestorClinico</text></g><!--cluster auth--><g id="cluster_auth"><rect fill="#EBF5FB" height="160.5" rx="2.5" ry="2.5" style="stroke:#2E86C1;stroke-width:1;" width="118" x="27" y="437.7188"/><rect fill="#EBF5FB" height="10" style="stroke:#2E86C1;stroke-width:1;" width="15" x="125" y="442.7188"/><rect fill="#EBF5FB" height="2" style="stroke:#2E86C1;stroke-width:1;" width="4" x="123" y="444.7188"/><rect fill="#EBF5FB" height="2" style="stroke:#2E86C1;stroke-width:1;" width="4" x="123" y="448.7188"/><text fill="#000000" font-family="sans-serif" font-size="11" font-weight="bold" lengthAdjust="spacing" textLength="43.3823" x="64.3088" y="462.1377">JwtAuth</text></g><text fill="#000000" font-family="sans-serif" font-size="14" lengthAdjust="spacing" textLength="82.4756" x="246.2622" y="179.1426">api:APIREST</text><rect fill="#F1F1F1" height="12" style="stroke:#181818;stroke-width:1.5;" width="12" x="281.5" y="194.2188"/><text fill="#000000" font-family="sans-serif" font-size="14" lengthAdjust="spacing" textLength="109.7236" x="555.1382" y="179.1426">db:RepositorioBD</text><rect fill="#F1F1F1" height="12" style="stroke:#181818;stroke-width:1.5;" width="12" x="604" y="194.2188"/><!--entity agenda--><g id="elem_agenda"><rect fill="#EBF5FB" height="43.8359" rx="2.5" ry="2.5" style="stroke:#2E86C1;stroke-width:0.5;" width="139.0591" x="622.5" y="544.2188"/><rect fill="#EBF5FB" height="10" style="stroke:#2E86C1;stroke-width:0.5;" width="15" x="741.5591" y="549.2188"/><rect fill="#EBF5FB" height="2" style="stroke:#2E86C1;stroke-width:0.5;" width="4" x="739.5591" y="551.2188"/><rect fill="#EBF5FB" height="2" style="stroke:#2E86C1;stroke-width:0.5;" width="4" x="739.5591" y="555.2188"/><text fill="#000000" font-family="sans-serif" font-size="11" lengthAdjust="spacing" textLength="99.0591" x="637.5" y="575.6377">MotorAgendamiento</text></g><!--entity hce--><g id="elem_hce"><rect fill="#EBF5FB" height="57.6719" rx="2.5" ry="2.5" style="stroke:#2E86C1;stroke-width:0.5;" width="139.0376" x="796.5" y="537.2188"/><rect fill="#EBF5FB" height="10" style="stroke:#2E86C1;stroke-width:0.5;" width="15" x="915.5376" y="542.2188"/><rect fill="#EBF5FB" height="2" style="stroke:#2E86C1;stroke-width:0.5;" width="4" x="913.5376" y="544.2188"/><rect fill="#EBF5FB" height="2" style="stroke:#2E86C1;stroke-width:0.5;" width="4" x="913.5376" y="548.2188"/><text fill="#000000" font-family="sans-serif" font-size="11" lengthAdjust="spacing" textLength="99.0376" x="811.5" y="568.6377">ProcesadorHistorias</text><text fill="#000000" font-family="sans-serif" font-size="11" lengthAdjust="spacing" textLength="38.5107" x="811.5" y="582.4736">Clinicas</text></g><!--entity pagos--><g id="elem_pagos"><rect fill="#EBF5FB" height="43.8359" rx="2.5" ry="2.5" style="stroke:#2E86C1;stroke-width:0.5;" width="104.2007" x="157" y="544.2188"/><rect fill="#EBF5FB" height="10" style="stroke:#2E86C1;stroke-width:0.5;" width="15" x="241.2007" y="549.2188"/><rect fill="#EBF5FB" height="2" style="stroke:#2E86C1;stroke-width:0.5;" width="4" x="239.2007" y="551.2188"/><rect fill="#EBF5FB" height="2" style="stroke:#2E86C1;stroke-width:0.5;" width="4" x="239.2007" y="555.2188"/><text fill="#000000" font-family="sans-serif" font-size="11" lengthAdjust="spacing" textLength="64.2007" x="172" y="575.6377">GestorPagos</text></g><!--entity audit--><g id="elem_audit"><rect fill="#EBF5FB" height="43.8359" rx="2.5" ry="2.5" style="stroke:#2E86C1;stroke-width:0.5;" width="119.4922" x="296.5" y="544.2188"/><rect fill="#EBF5FB" height="10" style="stroke:#2E86C1;stroke-width:0.5;" width="15" x="395.9922" y="549.2188"/><rect fill="#EBF5FB" height="2" style="stroke:#2E86C1;stroke-width:0.5;" width="4" x="393.9922" y="551.2188"/><rect fill="#EBF5FB" height="2" style="stroke:#2E86C1;stroke-width:0.5;" width="4" x="393.9922" y="555.2188"/><text fill="#000000" font-family="sans-serif" font-size="11" lengthAdjust="spacing" textLength="79.4922" x="311.5" y="575.6377">ModuloAuditoria</text></g><!--entity reportes--><g id="elem_reportes"><rect fill="#EBF5FB" height="43.8359" rx="2.5" ry="2.5" style="stroke:#2E86C1;stroke-width:0.5;" width="137.2222" x="450.5" y="544.2188"/><rect fill="#EBF5FB" height="10" style="stroke:#2E86C1;stroke-width:0.5;" width="15" x="567.7222" y="549.2188"/><rect fill="#EBF5FB" height="2" style="stroke:#2E86C1;stroke-width:0.5;" width="4" x="565.7222" y="551.2188"/><rect fill="#EBF5FB" height="2" style="stroke:#2E86C1;stroke-width:0.5;" width="4" x="565.7222" y="555.2188"/><text fill="#000000" font-family="sans-serif" font-size="11" lengthAdjust="spacing" textLength="97.2222" x="465.5" y="575.6377">GeneradorReportes</text></g><text fill="#000000" font-family="sans-serif" font-size="14" lengthAdjust="spacing" textLength="10.8965" x="39.5518" y="416.6426">in</text><rect fill="#F1F1F1" height="12" style="stroke:#181818;stroke-width:1.5;" width="12" x="39" y="431.7188"/><text fill="#000000" font-family="sans-serif" font-size="14" lengthAdjust="spacing" textLength="19.4619" x="117.269" y="416.6426">out</text><rect fill="#F1F1F1" height="12" style="stroke:#181818;stroke-width:1.5;" width="12" x="121" y="431.7188"/><!--entity httpIn--><g id="elem_httpIn"><ellipse cx="288" cy="91.7188" fill="#D5F5E3" rx="8" ry="8" style="stroke:#117A65;stroke-width:0.5;"/><text fill="#000000" font-family="sans-serif" font-size="14" lengthAdjust="spacing" textLength="81.71" x="247.145" y="123.252">IHttpRequest</text></g><!--entity jdbcOut--><g id="elem_jdbcOut"><ellipse cx="969" cy="308.7188" fill="#D5F5E3" rx="8" ry="8" style="stroke:#117A65;stroke-width:0.5;"/><text fill="#000000" font-family="sans-serif" font-size="14" lengthAdjust="spacing" textLength="40.4482" x="948.7759" y="340.252">IJDBC</text></g><g id="elem_GMN28"><path d="M104.5,62.2188 L104.5,121.2734 A0,0 0 0 0 104.5,121.2734 L243.2998,121.2734 A0,0 0 0 0 243.2998,121.2734 L243.2998,95.7188 L278.7,91.7188 L243.2998,87.7188 L243.2998,72.2188 L233.2998,62.2188 L104.5,62.2188 A0,0 0 0 0 104.5,62.2188 " fill="#FEFFDD" style="stroke:#181818;stroke-width:0.5;"/><path d="M233.2998,62.2188 L233.2998,72.2188 L243.2998,72.2188 L233.2998,62.2188 " fill="#FEFFDD" style="stroke:#181818;stroke-width:0.5;"/><text fill="#000000" font-family="sans-serif" font-size="13" lengthAdjust="spacing" textLength="117.7998" x="110.5" y="80.7139">&#171;provided interface&#187;</text><text fill="#000000" font-family="sans-serif" font-size="13" lengthAdjust="spacing" textLength="104.0762" x="110.5" y="97.0654">Puerto de entrada</text><text fill="#000000" font-family="sans-serif" font-size="13" lengthAdjust="spacing" textLength="106.9199" x="110.5" y="113.417">(Peticiones REST)</text></g><g id="elem_GMN31"><path d="M1013,279.2188 L1013,304.7188 L978.05,308.7188 L1013,312.7188 L1013,338.2734 A0,0 0 0 0 1013,338.2734 L1169.1099,338.2734 A0,0 0 0 0 1169.1099,338.2734 L1169.1099,289.2188 L1159.1099,279.2188 L1013,279.2188 A0,0 0 0 0 1013,279.2188 " fill="#FEFFDD" style="stroke:#181818;stroke-width:0.5;"/><path d="M1159.1099,279.2188 L1159.1099,289.2188 L1169.1099,289.2188 L1159.1099,279.2188 " fill="#FEFFDD" style="stroke:#181818;stroke-width:0.5;"/><text fill="#000000" font-family="sans-serif" font-size="13" lengthAdjust="spacing" textLength="115.6289" x="1019" y="297.7139">&#171;required interface&#187;</text><text fill="#000000" font-family="sans-serif" font-size="13" lengthAdjust="spacing" textLength="93.9517" x="1019" y="314.0654">Puerto de salida</text><text fill="#000000" font-family="sans-serif" font-size="13" lengthAdjust="spacing" textLength="135.1099" x="1019" y="330.417">(Conexi&#243;n SQL Server)</text></g><g id="elem_GMN34"><path d="M960.5,416.2188 L960.5,458.9219 L1093.5298,458.9219 L1093.5298,426.2188 L1083.5298,416.2188 L960.5,416.2188 " fill="#FEFFDD" style="stroke:#181818;stroke-width:0.5;"/><path d="M1083.5298,416.2188 L1083.5298,426.2188 L1093.5298,426.2188 L1083.5298,416.2188 " fill="#FEFFDD" style="stroke:#181818;stroke-width:1;"/><text fill="#000000" font-family="sans-serif" font-size="13" lengthAdjust="spacing" textLength="112.0298" x="966.5" y="434.7139">Capa de Seguridad</text><text fill="#000000" font-family="sans-serif" font-size="13" lengthAdjust="spacing" textLength="89.9146" x="966.5" y="451.0654">(JWT + BCrypt)</text></g><g id="elem_GMN37"><path d="M1572.5,416.2188 L1572.5,458.9219 L1677.3398,458.9219 L1677.3398,426.2188 L1667.3398,416.2188 L1572.5,416.2188 " fill="#FEFFDD" style="stroke:#181818;stroke-width:0.5;"/><path d="M1667.3398,416.2188 L1667.3398,426.2188 L1677.3398,426.2188 L1667.3398,416.2188 " fill="#FEFFDD" style="stroke:#181818;stroke-width:1;"/><text fill="#000000" font-family="sans-serif" font-size="13" lengthAdjust="spacing" textLength="56.3799" x="1578.5" y="434.7139">L&#243;gica de</text><text fill="#000000" font-family="sans-serif" font-size="13" lengthAdjust="spacing" textLength="83.8398" x="1578.5" y="451.0654">Agendamiento</text></g><g id="elem_GMN40"><path d="M1712.5,416.2188 L1712.5,458.9219 L1833.9136,458.9219 L1833.9136,426.2188 L1823.9136,416.2188 L1712.5,416.2188 " fill="#FEFFDD" style="stroke:#181818;stroke-width:0.5;"/><path d="M1823.9136,416.2188 L1823.9136,426.2188 L1833.9136,426.2188 L1823.9136,416.2188 " fill="#FEFFDD" style="stroke:#181818;stroke-width:1;"/><text fill="#000000" font-family="sans-serif" font-size="13" lengthAdjust="spacing" textLength="56.3799" x="1718.5" y="434.7139">L&#243;gica de</text><text fill="#000000" font-family="sans-serif" font-size="13" lengthAdjust="spacing" textLength="100.4136" x="1718.5" y="451.0654">Historias Cl&#237;nicas</text></g><g id="elem_GMN43"><path d="M1129,416.2188 L1129,458.9219 L1268.5044,458.9219 L1268.5044,426.2188 L1258.5044,416.2188 L1129,416.2188 " fill="#FEFFDD" style="stroke:#181818;stroke-width:0.5;"/><path d="M1258.5044,416.2188 L1258.5044,426.2188 L1268.5044,426.2188 L1258.5044,416.2188 " fill="#FEFFDD" style="stroke:#181818;stroke-width:1;"/><text fill="#000000" font-family="sans-serif" font-size="13" lengthAdjust="spacing" textLength="56.3799" x="1135" y="434.7139">L&#243;gica de</text><text fill="#000000" font-family="sans-serif" font-size="13" lengthAdjust="spacing" textLength="118.5044" x="1135" y="451.0654">Pagos y Facturaci&#243;n</text></g><g id="elem_GMN46"><path d="M1304,416.2188 L1304,458.9219 L1395.8145,458.9219 L1395.8145,426.2188 L1385.8145,416.2188 L1304,416.2188 " fill="#FEFFDD" style="stroke:#181818;stroke-width:0.5;"/><path d="M1385.8145,416.2188 L1385.8145,426.2188 L1395.8145,426.2188 L1385.8145,416.2188 " fill="#FEFFDD" style="stroke:#181818;stroke-width:1;"/><text fill="#000000" font-family="sans-serif" font-size="13" lengthAdjust="spacing" textLength="66.479" x="1310" y="434.7139">Registro de</text><text fill="#000000" font-family="sans-serif" font-size="13" lengthAdjust="spacing" textLength="70.8145" x="1310" y="451.0654">Trazabilidad</text></g><g id="elem_GMN49"><path d="M1431,416.2188 L1431,458.9219 L1537.2808,458.9219 L1537.2808,426.2188 L1527.2808,416.2188 L1431,416.2188 " fill="#FEFFDD" style="stroke:#181818;stroke-width:0.5;"/><path d="M1527.2808,416.2188 L1527.2808,426.2188 L1537.2808,426.2188 L1527.2808,416.2188 " fill="#FEFFDD" style="stroke:#181818;stroke-width:1;"/><text fill="#000000" font-family="sans-serif" font-size="13" lengthAdjust="spacing" textLength="85.2808" x="1437" y="434.7139">Generaci&#243;n de</text><text fill="#000000" font-family="sans-serif" font-size="13" lengthAdjust="spacing" textLength="52.749" x="1437" y="451.0654">Reportes</text></g><!--link httpIn to portApi--><g id="link_httpIn_portApi"><path d="M288,100.7188 C288,121.4287 288,176.3488 288,193.8087 " fill="transparent" id="httpIn-portApi" style="stroke:#181818;stroke-width:1;"/></g><!--link portDb to jdbcOut--><g id="link_portDb_jdbcOut"><path d="M616.07,201.7387 C645.8,204.3988 778.73,217.5487 883,248.2188 C916.82,258.1688 930.75,254.6288 956,279.2188 C961.69,284.7588 965.12,293.2488 967.01,299.5188 " fill="transparent" id="portDb-jdbcOut" style="stroke:#181818;stroke-width:1;"/></g><!--link portApi to authIn--><g id="link_portApi_authIn"><path d="M282.47,206.5788 C249.83,238.2088 82.74,400.1387 50.42,431.4688 " fill="transparent" id="portApi-authIn" style="stroke:#181818;stroke-width:1;"/><text fill="#000000" font-family="sans-serif" font-size="13" lengthAdjust="spacing" textLength="96.0908" x="207" y="314.2139">peticiones HTTP</text></g><!--link authOut to agenda--><g id="link_authOut_agenda"><path d="M128.07,444.0288 C129.34,448.8288 131.95,455.6688 137,459.2188 C187.66,494.8088 354.6,471.7688 414,489.2188 C431.16,494.2587 433.06,501.4688 450,507.2188 C516.44,529.7887 537.04,519.7688 605,537.2188 C612.99,539.2688 621.33,541.6388 629.54,544.1188 " fill="transparent" id="authOut-agenda" style="stroke:#181818;stroke-width:1;"/><text fill="#000000" font-family="sans-serif" font-size="13" lengthAdjust="spacing" textLength="82.3799" x="451" y="503.7139">tokens v&#225;lidos</text></g><!--link authOut to hce--><g id="link_authOut_hce"><path d="M128.04,444.0688 C129.29,448.8988 131.89,455.7488 137,459.2188 C210.96,509.3688 451.5,466.8088 538,489.2188 C556.48,494.0087 558.71,501.7587 577,507.2188 C663.97,533.1688 690.62,516.5788 779,537.2188 C784.72,538.5588 790.6,540.0888 796.48,541.7388 " fill="transparent" id="authOut-hce" style="stroke:#181818;stroke-width:1;"/><text fill="#000000" font-family="sans-serif" font-size="13" lengthAdjust="spacing" textLength="82.3799" x="578" y="503.7139">tokens v&#225;lidos</text></g><!--link authOut to pagos--><g id="link_authOut_pagos"><path d="M120.73,442.3488 C104.13,452.4388 61.41,481.7288 78,507.2188 C82.8,514.5888 122.32,531.5387 156.7,545.2188 " fill="transparent" id="authOut-pagos" style="stroke:#181818;stroke-width:1;"/><text fill="#000000" font-family="sans-serif" font-size="13" lengthAdjust="spacing" textLength="82.3799" x="79" y="503.7139">tokens v&#225;lidos</text></g><!--link authOut to audit--><g id="link_authOut_audit"><path d="M128.7,443.8288 C130.35,448.2288 133.15,454.5888 137,459.2188 C159.98,486.8188 170.45,490.0588 202,507.2188 C206.63,509.7388 257.05,528.6088 298.95,544.1488 " fill="transparent" id="authOut-audit" style="stroke:#181818;stroke-width:1;"/><text fill="#000000" font-family="sans-serif" font-size="13" lengthAdjust="spacing" textLength="82.3799" x="203" y="503.7139">tokens v&#225;lidos</text></g><!--link authOut to reportes--><g id="link_authOut_reportes"><path d="M128.14,443.9388 C129.46,448.6688 132.1,455.4588 137,459.2188 C191.94,501.4488 224.41,466.8588 290,489.2188 C306.93,494.9888 309.31,500.7788 326,507.2188 C372.07,525.0088 385.73,522.9088 433,537.2188 C440.21,539.3988 447.75,541.7488 455.22,544.1288 " fill="transparent" id="authOut-reportes" style="stroke:#181818;stroke-width:1;"/><text fill="#000000" font-family="sans-serif" font-size="13" lengthAdjust="spacing" textLength="82.3799" x="327" y="503.7139">tokens v&#225;lidos</text></g><!--link agenda to portDb--><g id="link_agenda_portDb"><path d="M700.82,544.0688 C714.81,507.5088 738.65,430.4288 720,368.2188 C698.27,295.7188 633.78,225.5988 615.12,206.3687 " fill="transparent" id="agenda-portDb" style="stroke:#181818;stroke-width:1;"/><text fill="#000000" font-family="sans-serif" font-size="13" lengthAdjust="spacing" textLength="70.7827" x="725" y="382.7139">CRUD Citas</text></g><!--link hce to portDb--><g id="link_hce_portDb"><path d="M862.12,537.0288 C855.52,496.7988 839.26,421.8488 804,368.2188 C749.56,285.4088 642.76,220.1488 616.13,204.6988 " fill="transparent" id="hce-portDb" style="stroke:#181818;stroke-width:1;"/><text fill="#000000" font-family="sans-serif" font-size="13" lengthAdjust="spacing" textLength="68.6118" x="814" y="382.7139">CRUD HCE</text></g><!--link pagos to portDb--><g id="link_pagos_portDb"><path d="M256.2,544.1188 C263.71,541.4088 271.48,538.9788 279,537.2188 C320.57,527.5188 633.02,538.5588 662,507.2188 C691.72,475.0788 614.86,479.3688 576,459.2188 C526.51,433.5588 499.49,435.7988 474,386.2188 C432.45,305.3888 572.79,221.7888 603.98,204.4688 " fill="transparent" id="pagos-portDb" style="stroke:#181818;stroke-width:1;"/><text fill="#000000" font-family="sans-serif" font-size="13" lengthAdjust="spacing" textLength="78.0254" x="475" y="382.7139">CRUD Pagos</text></g><!--link audit to portDb--><g id="link_audit_portDb"><path d="M409.38,544.0888 C417.22,541.4888 425.26,539.0888 433,537.2188 C484.38,524.7788 634.05,546.8888 669,507.2188 C692.15,480.9388 581.24,418.6387 568,386.2188 C540.23,318.2288 592.71,228.3087 606.7,206.2588 " fill="transparent" id="audit-portDb" style="stroke:#181818;stroke-width:1;"/><text fill="#000000" font-family="sans-serif" font-size="13" lengthAdjust="spacing" textLength="79.4727" x="569" y="382.7139">INSERT Logs</text></g><!--link reportes to portDb--><g id="link_reportes_portDb"><path d="M581.14,544.0888 C623.71,529.3288 673.01,511.5088 676,507.2188 C694.29,480.9688 623.08,244.0587 611.55,206.2888 " fill="transparent" id="reportes-portDb" style="stroke:#181818;stroke-width:1;"/><text fill="#000000" font-family="sans-serif" font-size="13" lengthAdjust="spacing" textLength="50.5718" x="661" y="382.7139">SELECT</text></g><!--link GMN34 to auth--><g id="link_GMN34_auth"><path d="M1011.39,459.4088 C997.74,475.6988 976.32,497.2788 952,507.2188 C866.375,542.2238 701.6225,533.3238 536.6525,523.8725 C454.1675,519.1469 371.6281,514.2834 298.8981,514.7014 C262.5331,514.9104 228.6205,516.4397 198.3931,519.9668 C183.2795,521.7304 169.0871,523.9933 155.9702,526.8404 C152.691,527.5522 149.479,528.3005 146.3366,529.0866 " fill="transparent" id="GMN34-auth" style="stroke:#181818;stroke-width:1;stroke-dasharray:7.0,7.0;"/></g><!--link GMN37 to agenda--><g id="link_GMN37_agenda"><path d="M1598.92,459.4388 C1576.7,475.7587 1543.19,497.3488 1510,507.2188 C1354.17,553.5688 939.06,508.7188 779,537.2188 C769.47,538.9188 759.54,541.3888 749.95,544.1788 " fill="transparent" id="GMN37-agenda" style="stroke:#181818;stroke-width:1;stroke-dasharray:7.0,7.0;"/></g><!--link GMN40 to hce--><g id="link_GMN40_hce"><path d="M1744.56,459.4688 C1720.82,475.5688 1685.42,496.8488 1651,507.2188 C1518.11,547.2588 1101.89,560.2788 935.62,563.9388 " fill="transparent" id="GMN40-hce" style="stroke:#181818;stroke-width:1;stroke-dasharray:7.0,7.0;"/></g><!--link GMN43 to pagos--><g id="link_GMN43_pagos"><path d="M1149.82,459.2988 C1108.5,475.5388 1047.48,497.0788 992,507.2188 C680,564.2588 589.12,470.7088 279,537.2188 C271.19,538.8888 263.13,541.3588 255.38,544.1488 " fill="transparent" id="GMN43-pagos" style="stroke:#181818;stroke-width:1;stroke-dasharray:7.0,7.0;"/></g><!--link GMN46 to audit--><g id="link_GMN46_audit"><path d="M1303.73,454.4288 C1298.12,456.1387 1292.45,457.7788 1287,459.2188 C1183.93,486.4188 1157.77,493.9288 1052,507.2188 C778.71,541.5487 703.02,482.8787 433,537.2188 C424.49,538.9288 415.67,541.4188 407.16,544.2088 " fill="transparent" id="GMN46-audit" style="stroke:#181818;stroke-width:1;stroke-dasharray:7.0,7.0;"/></g><!--link GMN49 to reportes--><g id="link_GMN49_reportes"><path d="M1459.72,459.4588 C1438.99,475.7888 1407.59,497.3787 1376,507.2188 C1212.3,558.2288 773.79,507.0588 605,537.2188 C595.57,538.8988 585.75,541.3788 576.27,544.1588 " fill="transparent" id="GMN49-reportes" style="stroke:#181818;stroke-width:1;stroke-dasharray:7.0,7.0;"/></g><!--SRC=[VLL1Rjim4Bph5Gltq0P53cxXj322038j9mvSMvLKD8TSQ8bHs3YaIb5fao907z4Fz04zvGd-IL_I9IdBafC6DWnoEJkxEzobDTSh1hqnfxcYrnGo1a6fLPNgIb4WyhgeMAdfkJ1BAPZGR0Z7Q9AAhBZWgUnvvHKN1KLtMDBqAbUo4XcHAwdWnIGmdnOYtT303mzW8eME-Hs3VXzt8waofchFDy7x0sAjkvp1Q3AOZBpx5Yl7jDG5JPbbxV3q- -_yWy5JFEF1P12yHHxl9VpzzHE_C9qdGJJnIH33yMmnycUuS4VUDaHlUg9r4R6lHfaUq18kSJyL7SZfU4JisPTicIugtGf25X_2nJp0K116qpcPXlvi4sKhJwyhig7AhSMMM4Y545hmeHzEeo1EBC1O_O8tvzbo6B52bXpTk1oD6z1uwI6e5Upqc_OhVMa151Sso8Q6YyQELMxjijBDWIaHu7w7zeF4o7xEH4QlELfS7TGQkiXGoPILD9FgX9igEIsnvspnj7GYfwphuWGAQIuTe32htVXPjP9-bLa5Q9qjxdQP15Ccjb5BQURuLBtfT0Z1cpkRuayCmHasoznlEiHr0UplD_VWf3QMfxgW8R9TroAgtOsVqno6K33DKuxvbd2I9A5NQsunLax4Q7d5H0atwzyhdg4KBGoAzpp0YlSyn0htF6GZsHCehqwpbWTb6GA9Fes1S4rBpoJuwEY419vBxD6HlNRFfTG-dCxZ84fW9lFIQx9f0-9W5f2aTH7pHRALNaZDOCKkDCYBUgpHv_2mKFA6PopRlZH7H-SYh9ZIqhoPs4ROGFXClWgt5sNcSizHAfvVMiww4IofmYU4g_-JbXIbCvm4wRxpzOE0-ECCOgPkcDhp7BEMXU6rGulQqCA-uJ7BAuNE6NgVVaxWDOo8kYtqNjTfqpcpzKEEWuQUvw8zhXsqww4sj1bL8Alr7pkg7OzDKxLzxCN1BKoe_Oj9JLaxbRWsYrYEz4fQhqJHExhaHe-iWsvrd9jYIsXzDiFi_GC0]--></g></svg>