<svg xmlns="http://www.w3.org/2000/svg" xmlns:xlink="http://www.w3.org/1999/xlink" contentStyleType="text/css" data-diagram-type="DESCRIPTION" height="597px" preserveAspectRatio="none" style="width:1841px;height:597px;background:#FEFEFE;" version="1.1" viewBox="0 0 1841 597" width="1841px" zoomAndPan="magnify"><title>Diagrama de Despliegue</title><defs/><g><rect fill="#FEFEFE" height="597" style="stroke:transparent;stroke-width:1;" width="1841" x="0" y="0"/><text fill="#000000" font-family="sans-serif" font-size="14" font-weight="bold" lengthAdjust="spacing" textLength="162.6133" x="832.4434" y="24.5332">Diagrama de Despliegue</text><text fill="#000000" font-family="sans-serif" font-size="14" font-weight="bold" lengthAdjust="spacing" textLength="450.4473" x="688.5264" y="42.1426">Topolog&#237;a de Hardware - Cl&#237;nica Trinidad &amp; Especialidades M&#233;dicas</text><!--cluster Cliente--><g id="cluster_Cliente"><polygon fill="#D6EAF8" points="54.5,264.7188,64.5,254.7188,378.5,254.7188,378.5,546.7188,368.5,556.7188,54.5,556.7188,54.5,264.7188" style="stroke:#1B4F72;stroke-width:1;"/><line style="stroke:#1B4F72;stroke-width:1;" x1="368.5" x2="378.5" y1="264.7188" y2="254.7188"/><line style="stroke:#1B4F72;stroke-width:1;" x1="54.5" x2="368.5" y1="264.7188" y2="264.7188"/><line style="stroke:#1B4F72;stroke-width:1;" x1="368.5" x2="368.5" y1="264.7188" y2="556.7188"/><text fill="#000000" font-family="sans-serif" font-size="12" font-weight="bold" lengthAdjust="spacing" textLength="73.998" x="175.501" y="280.1758">Nodo Cliente</text><text fill="#000000" font-family="sans-serif" font-size="12" font-weight="bold" lengthAdjust="spacing" textLength="132.0352" x="146.4824" y="295.2695">&#171;Workstations Cl&#237;nica&#187;</text></g><!--cluster Servidor--><g id="cluster_Servidor"><polygon fill="#D6EAF8" points="418.5,204.2188,428.5,194.2188,1287.5,194.2188,1287.5,570.7188,1277.5,580.7188,418.5,580.7188,418.5,204.2188" style="stroke:#1B4F72;stroke-width:1;"/><line style="stroke:#1B4F72;stroke-width:1;" x1="1277.5" x2="1287.5" y1="204.2188" y2="194.2188"/><line style="stroke:#1B4F72;stroke-width:1;" x1="418.5" x2="1277.5" y1="204.2188" y2="204.2188"/><line style="stroke:#1B4F72;stroke-width:1;" x1="1277.5" x2="1277.5" y1="204.2188" y2="580.7188"/><text fill="#000000" font-family="sans-serif" font-size="12" font-weight="bold" lengthAdjust="spacing" textLength="188.7012" x="754.6494" y="219.6758">Nodo Servidor Web/Aplicaciones</text><text fill="#000000" font-family="sans-serif" font-size="12" font-weight="bold" lengthAdjust="spacing" textLength="123.3809" x="787.3096" y="234.7695">&#171;Data Center Cl&#237;nica&#187;</text></g><!--cluster war--><g id="cluster_war"><rect fill="#E8DAEF" height="284.5" rx="2.5" ry="2.5" style="stroke:#6C3483;stroke-width:1;" width="348" x="907.5" y="264.2188"/><polygon fill="#E8DAEF" points="1238.5,269.2188,1238.5,283.2188,1250.5,283.2188,1250.5,275.2188,1244.5,269.2188,1238.5,269.2188" style="stroke:#6C3483;stroke-width:1;"/><line style="stroke:#6C3483;stroke-width:1;" x1="1244.5" x2="1244.5" y1="269.2188" y2="275.2188"/><line style="stroke:#6C3483;stroke-width:1;" x1="1250.5" x2="1244.5" y1="275.2188" y2="275.2188"/><text fill="#000000" font-family="sans-serif" font-size="10" font-weight="bold" lengthAdjust="spacing" textLength="68.916" x="1047.042" y="276.5996">clinica-api.war</text><text fill="#000000" font-family="sans-serif" font-size="10" font-weight="bold" lengthAdjust="spacing" textLength="108.335" x="1027.3325" y="289.1777">(Backend Spring Boot)</text></g><!--cluster BD--><g id="cluster_BD"><polygon fill="#D6EAF8" points="1327.5,212.7188,1337.5,202.7188,1824.5,202.7188,1824.5,402.7188,1814.5,412.7188,1327.5,412.7188,1327.5,212.7188" style="stroke:#1B4F72;stroke-width:1;"/><line style="stroke:#1B4F72;stroke-width:1;" x1="1814.5" x2="1824.5" y1="212.7188" y2="202.7188"/><line style="stroke:#1B4F72;stroke-width:1;" x1="1327.5" x2="1814.5" y1="212.7188" y2="212.7188"/><line style="stroke:#1B4F72;stroke-width:1;" x1="1814.5" x2="1814.5" y1="212.7188" y2="412.7188"/><text fill="#000000" font-family="sans-serif" font-size="12" font-weight="bold" lengthAdjust="spacing" textLength="186.0469" x="1478.9766" y="228.1758">Nodo Servidor de Base de Datos</text><text fill="#000000" font-family="sans-serif" font-size="12" font-weight="bold" lengthAdjust="spacing" textLength="122.0156" x="1510.9922" y="243.2695">&#171;Alta Disponibilidad&#187;</text></g><!--cluster sqlserver--><g id="cluster_sqlserver"><rect fill="#E8DAEF" height="108" rx="2.5" ry="2.5" style="stroke:#6C3483;stroke-width:1;" width="128" x="1664.5" y="272.7188"/><polygon fill="#E8DAEF" points="1775.5,277.7188,1775.5,291.7188,1787.5,291.7188,1787.5,283.7188,1781.5,277.7188,1775.5,277.7188" style="stroke:#6C3483;stroke-width:1;"/><line style="stroke:#6C3483;stroke-width:1;" x1="1781.5" x2="1781.5" y1="277.7188" y2="283.7188"/><line style="stroke:#6C3483;stroke-width:1;" x1="1787.5" x2="1781.5" y1="283.7188" y2="283.7188"/><text fill="#000000" font-family="sans-serif" font-size="10" font-weight="bold" lengthAdjust="spacing" textLength="79.4971" x="1688.7515" y="285.0996">SQL Server 2022</text><text fill="#000000" font-family="sans-serif" font-size="10" font-weight="bold" lengthAdjust="spacing" textLength="92.7832" x="1682.1084" y="297.6777">(Enterprise Edition)</text></g><!--entity browser--><g id="elem_browser"><rect fill="#E8DAEF" height="48.1563" rx="2.5" ry="2.5" style="stroke:#6C3483;stroke-width:0.5;" width="103.916" x="250.5" y="316.7188"/><polygon fill="#E8DAEF" points="337.416,321.7188,337.416,335.7188,349.416,335.7188,349.416,327.7188,343.416,321.7188,337.416,321.7188" style="stroke:#6C3483;stroke-width:0.5;"/><line style="stroke:#6C3483;stroke-width:0.5;" x1="343.416" x2="343.416" y1="321.7188" y2="327.7188"/><line style="stroke:#6C3483;stroke-width:0.5;" x1="349.416" x2="343.416" y1="327.7188" y2="327.7188"/><text fill="#000000" font-family="sans-serif" font-size="10" lengthAdjust="spacing" textLength="72.2607" x="260.5" y="340.0996">Navegador Web</text><text fill="#000000" font-family="sans-serif" font-size="10" lengthAdjust="spacing" textLength="73.916" x="260.5" y="352.6777">(Chrome / Edge)</text></g><!--entity frontend--><g id="elem_frontend"><rect fill="#D5F5E3" height="65.2188" rx="2.5" ry="2.5" style="stroke:#117A65;stroke-width:0.5;" width="159.8203" x="194.5" y="467.7188"/><rect fill="#D5F5E3" height="10" style="stroke:#117A65;stroke-width:0.5;" width="15" x="334.3203" y="472.7188"/><rect fill="#D5F5E3" height="2" style="stroke:#117A65;stroke-width:0.5;" width="4" x="332.3203" y="474.7188"/><rect fill="#D5F5E3" height="2" style="stroke:#117A65;stroke-width:0.5;" width="4" x="332.3203" y="478.7188"/><text fill="#000000" font-family="sans-serif" font-size="14" lengthAdjust="spacing" textLength="118.2822" x="209.5" y="502.252">Interfaz de Usuario</text><text fill="#000000" font-family="sans-serif" font-size="14" lengthAdjust="spacing" textLength="119.8203" x="209.5" y="519.8613">(Frontend React.js)</text></g><!--entity soCli--><g id="elem_soCli"><rect fill="#E8DAEF" height="48.1563" rx="2.5" ry="2.5" style="stroke:#6C3483;stroke-width:0.5;" width="116.709" x="98" y="316.7188"/><polygon fill="#E8DAEF" points="197.709,321.7188,197.709,335.7188,209.709,335.7188,209.709,327.7188,203.709,321.7188,197.709,321.7188" style="stroke:#6C3483;stroke-width:0.5;"/><line style="stroke:#6C3483;stroke-width:0.5;" x1="203.709" x2="203.709" y1="321.7188" y2="327.7188"/><line style="stroke:#6C3483;stroke-width:0.5;" x1="209.709" x2="203.709" y1="327.7188" y2="327.7188"/><text fill="#000000" font-family="sans-serif" font-size="10" lengthAdjust="spacing" textLength="82.2559" x="108" y="340.0996">Sistema Operativo</text><text fill="#000000" font-family="sans-serif" font-size="10" lengthAdjust="spacing" textLength="86.709" x="108" y="352.6777">Windows 10/11 Pro</text></g><!--entity soSrv--><g id="elem_soSrv"><rect fill="#E8DAEF" height="48.1563" rx="2.5" ry="2.5" style="stroke:#6C3483;stroke-width:0.5;" width="143.3984" x="462" y="316.7188"/><polygon fill="#E8DAEF" points="588.3984,321.7188,588.3984,335.7188,600.3984,335.7188,600.3984,327.7188,594.3984,321.7188,588.3984,321.7188" style="stroke:#6C3483;stroke-width:0.5;"/><line style="stroke:#6C3483;stroke-width:0.5;" x1="594.3984" x2="594.3984" y1="321.7188" y2="327.7188"/><line style="stroke:#6C3483;stroke-width:0.5;" x1="600.3984" x2="594.3984" y1="327.7188" y2="327.7188"/><text fill="#000000" font-family="sans-serif" font-size="10" lengthAdjust="spacing" textLength="82.2559" x="472" y="340.0996">Sistema Operativo</text><text fill="#000000" font-family="sans-serif" font-size="10" lengthAdjust="spacing" textLength="113.3984" x="472" y="352.6777">Ubuntu Server 22.04 LTS</text></g><!--entity tomcat--><g id="elem_tomcat"><rect fill="#E8DAEF" height="48.1563" rx="2.5" ry="2.5" style="stroke:#6C3483;stroke-width:0.5;" width="113.9209" x="640.5" y="316.7188"/><polygon fill="#E8DAEF" points="737.4209,321.7188,737.4209,335.7188,749.4209,335.7188,749.4209,327.7188,743.4209,321.7188,737.4209,321.7188" style="stroke:#6C3483;stroke-width:0.5;"/><line style="stroke:#6C3483;stroke-width:0.5;" x1="743.4209" x2="743.4209" y1="321.7188" y2="327.7188"/><line style="stroke:#6C3483;stroke-width:0.5;" x1="749.4209" x2="743.4209" y1="327.7188" y2="327.7188"/><text fill="#000000" font-family="sans-serif" font-size="10" lengthAdjust="spacing" textLength="78.374" x="650.5" y="340.0996">Apache Tomcat 9</text><text fill="#000000" font-family="sans-serif" font-size="10" lengthAdjust="spacing" textLength="83.9209" x="650.5" y="352.6777">(Servlet Container)</text></g><!--entity auth--><g id="elem_auth"><rect fill="#E8DAEF" height="48.1563" rx="2.5" ry="2.5" style="stroke:#6C3483;stroke-width:0.5;" width="99.165" x="790" y="316.7188"/><polygon fill="#E8DAEF" points="872.165,321.7188,872.165,335.7188,884.165,335.7188,884.165,327.7188,878.165,321.7188,872.165,321.7188" style="stroke:#6C3483;stroke-width:0.5;"/><line style="stroke:#6C3483;stroke-width:0.5;" x1="878.165" x2="878.165" y1="321.7188" y2="327.7188"/><line style="stroke:#6C3483;stroke-width:0.5;" x1="884.165" x2="878.165" y1="327.7188" y2="327.7188"/><text fill="#000000" font-family="sans-serif" font-size="10" lengthAdjust="spacing" textLength="68.3594" x="800" y="340.0996">auth-service.jar</text><text fill="#000000" font-family="sans-serif" font-size="10" lengthAdjust="spacing" textLength="69.165" x="800" y="352.6777">(JWT + BCrypt)</text></g><!--entity reports--><g id="elem_reports"><rect fill="#E8DAEF" height="48.1563" rx="2.5" ry="2.5" style="stroke:#6C3483;stroke-width:0.5;" width="127.8223" x="469.5" y="476.2188"/><polygon fill="#E8DAEF" points="580.3223,481.2188,580.3223,495.2188,592.3223,495.2188,592.3223,487.2188,586.3223,481.2188,580.3223,481.2188" style="stroke:#6C3483;stroke-width:0.5;"/><line style="stroke:#6C3483;stroke-width:0.5;" x1="586.3223" x2="586.3223" y1="481.2188" y2="487.2188"/><line style="stroke:#6C3483;stroke-width:0.5;" x1="592.3223" x2="586.3223" y1="487.2188" y2="487.2188"/><text fill="#000000" font-family="sans-serif" font-size="10" lengthAdjust="spacing" textLength="73.374" x="479.5" y="499.5996">report-engine.jar</text><text fill="#000000" font-family="sans-serif" font-size="10" lengthAdjust="spacing" textLength="97.8223" x="479.5" y="512.1777">(Generador Reportes)</text></g><!--entity notifier--><g id="elem_notifier"><rect fill="#E8DAEF" height="48.1563" rx="2.5" ry="2.5" style="stroke:#6C3483;stroke-width:0.5;" width="108.9111" x="633" y="476.2188"/><polygon fill="#E8DAEF" points="724.9111,481.2188,724.9111,495.2188,736.9111,495.2188,736.9111,487.2188,730.9111,481.2188,724.9111,481.2188" style="stroke:#6C3483;stroke-width:0.5;"/><line style="stroke:#6C3483;stroke-width:0.5;" x1="730.9111" x2="730.9111" y1="481.2188" y2="487.2188"/><line style="stroke:#6C3483;stroke-width:0.5;" x1="736.9111" x2="730.9111" y1="487.2188" y2="487.2188"/><text fill="#000000" font-family="sans-serif" font-size="10" lengthAdjust="spacing" textLength="78.9111" x="643" y="499.5996">notifier-service.jar</text><text fill="#000000" font-family="sans-serif" font-size="10" lengthAdjust="spacing" textLength="61.6699" x="643" y="512.1777">(SMS / Email)</text></g><!--entity rest--><g id="elem_rest"><rect fill="#D5F5E3" height="47.6094" rx="2.5" ry="2.5" style="stroke:#117A65;stroke-width:0.5;" width="169.165" x="924" y="316.7188"/><rect fill="#D5F5E3" height="10" style="stroke:#117A65;stroke-width:0.5;" width="15" x="1073.165" y="321.7188"/><rect fill="#D5F5E3" height="2" style="stroke:#117A65;stroke-width:0.5;" width="4" x="1071.165" y="323.7188"/><rect fill="#D5F5E3" height="2" style="stroke:#117A65;stroke-width:0.5;" width="4" x="1071.165" y="327.7188"/><text fill="#000000" font-family="sans-serif" font-size="14" lengthAdjust="spacing" textLength="129.165" x="939" y="351.252">Controladores REST</text></g><!--entity services--><g id="elem_services"><rect fill="#D5F5E3" height="65.2188" rx="2.5" ry="2.5" style="stroke:#117A65;stroke-width:0.5;" width="110.8271" x="1128" y="308.2188"/><rect fill="#D5F5E3" height="10" style="stroke:#117A65;stroke-width:0.5;" width="15" x="1218.8271" y="313.2188"/><rect fill="#D5F5E3" height="2" style="stroke:#117A65;stroke-width:0.5;" width="4" x="1216.8271" y="315.2188"/><rect fill="#D5F5E3" height="2" style="stroke:#117A65;stroke-width:0.5;" width="4" x="1216.8271" y="319.2188"/><text fill="#000000" font-family="sans-serif" font-size="14" lengthAdjust="spacing" textLength="56.793" x="1143" y="342.752">Servicios</text><text fill="#000000" font-family="sans-serif" font-size="14" lengthAdjust="spacing" textLength="70.8271" x="1143" y="360.3613">de Negocio</text></g><!--entity daos--><g id="elem_daos"><rect fill="#D5F5E3" height="65.2188" rx="2.5" ry="2.5" style="stroke:#117A65;stroke-width:0.5;" width="179.2617" x="924" y="467.7188"/><rect fill="#D5F5E3" height="10" style="stroke:#117A65;stroke-width:0.5;" width="15" x="1083.2617" y="472.7188"/><rect fill="#D5F5E3" height="2" style="stroke:#117A65;stroke-width:0.5;" width="4" x="1081.2617" y="474.7188"/><rect fill="#D5F5E3" height="2" style="stroke:#117A65;stroke-width:0.5;" width="4" x="1081.2617" y="478.7188"/><text fill="#000000" font-family="sans-serif" font-size="14" lengthAdjust="spacing" textLength="30.3379" x="939" y="502.252">DAO</text><text fill="#000000" font-family="sans-serif" font-size="14" lengthAdjust="spacing" textLength="139.2617" x="939" y="519.8613">(Data Access Objects)</text></g><!--entity soBD--><g id="elem_soBD"><rect fill="#E8DAEF" height="48.1563" rx="2.5" ry="2.5" style="stroke:#6C3483;stroke-width:0.5;" width="127.8223" x="1517.5" y="316.7188"/><polygon fill="#E8DAEF" points="1628.3223,321.7188,1628.3223,335.7188,1640.3223,335.7188,1640.3223,327.7188,1634.3223,321.7188,1628.3223,321.7188" style="stroke:#6C3483;stroke-width:0.5;"/><line style="stroke:#6C3483;stroke-width:0.5;" x1="1634.3223" x2="1634.3223" y1="321.7188" y2="327.7188"/><line style="stroke:#6C3483;stroke-width:0.5;" x1="1640.3223" x2="1634.3223" y1="327.7188" y2="327.7188"/><text fill="#000000" font-family="sans-serif" font-size="10" lengthAdjust="spacing" textLength="82.2559" x="1527.5" y="340.0996">Sistema Operativo</text><text fill="#000000" font-family="sans-serif" font-size="10" lengthAdjust="spacing" textLength="97.8223" x="1527.5" y="352.6777">Windows Server 2022</text></g><!--entity agent--><g id="elem_agent"><rect fill="#E8DAEF" height="48.1563" rx="2.5" ry="2.5" style="stroke:#6C3483;stroke-width:0.5;" width="111.1523" x="1371" y="316.7188"/><polygon fill="#E8DAEF" points="1465.1523,321.7188,1465.1523,335.7188,1477.1523,335.7188,1477.1523,327.7188,1471.1523,321.7188,1465.1523,321.7188" style="stroke:#6C3483;stroke-width:0.5;"/><line style="stroke:#6C3483;stroke-width:0.5;" x1="1471.1523" x2="1471.1523" y1="321.7188" y2="327.7188"/><line style="stroke:#6C3483;stroke-width:0.5;" x1="1477.1523" x2="1471.1523" y1="327.7188" y2="327.7188"/><text fill="#000000" font-family="sans-serif" font-size="10" lengthAdjust="spacing" textLength="81.1523" x="1381" y="340.0996">SQL Server Agent</text><text fill="#000000" font-family="sans-serif" font-size="10" lengthAdjust="spacing" textLength="69.4727" x="1381" y="352.6777">(Jobs / Backup)</text></g><!--entity database--><g id="elem_database"><rect fill="#E8DAEF" height="48.1563" rx="2.5" ry="2.5" style="stroke:#6C3483;stroke-width:0.5;" width="96.1377" x="1680.5" y="316.7188"/><polygon fill="#E8DAEF" points="1759.6377,321.7188,1759.6377,335.7188,1771.6377,335.7188,1771.6377,327.7188,1765.6377,321.7188,1759.6377,321.7188" style="stroke:#6C3483;stroke-width:0.5;"/><line style="stroke:#6C3483;stroke-width:0.5;" x1="1765.6377" x2="1765.6377" y1="321.7188" y2="327.7188"/><line style="stroke:#6C3483;stroke-width:0.5;" x1="1771.6377" x2="1765.6377" y1="327.7188" y2="327.7188"/><text fill="#000000" font-family="sans-serif" font-size="10" lengthAdjust="spacing" textLength="65.5957" x="1690.5" y="340.0996">Base de Datos</text><text fill="#000000" font-family="sans-serif" font-size="10" lengthAdjust="spacing" textLength="66.1377" x="1690.5" y="352.6777">ClinicaTrinidad</text></g><!--entity Red--><g id="elem_Red"><polygon fill="#D6EAF8" points="379,72.2188,389,62.2188,505.7188,62.2188,505.7188,112.4063,495.7188,122.4063,379,122.4063,379,72.2188" style="stroke:#1B4F72;stroke-width:0.5;"/><line style="stroke:#1B4F72;stroke-width:0.5;" x1="495.7188" x2="505.7188" y1="72.2188" y2="62.2188"/><line style="stroke:#1B4F72;stroke-width:0.5;" x1="379" x2="495.7188" y1="72.2188" y2="72.2188"/><line style="stroke:#1B4F72;stroke-width:0.5;" x1="495.7188" x2="495.7188" y1="72.2188" y2="122.4063"/><text fill="#000000" font-family="sans-serif" font-size="12" lengthAdjust="spacing" textLength="86.6895" x="394" y="94.6758">Red LAN / WAN</text><text fill="#000000" font-family="sans-serif" font-size="12" lengthAdjust="spacing" textLength="86.7188" x="394" y="109.7695">Gigabit Ethernet</text></g><g id="elem_GMN29"><path d="M6,62.7188 L6,121.7734 L118.7554,121.7734 L118.7554,72.7188 L108.7554,62.7188 L6,62.7188 " fill="#FEFFDD" style="stroke:#181818;stroke-width:0.5;"/><path d="M108.7554,62.7188 L108.7554,72.7188 L118.7554,72.7188 L108.7554,62.7188 " fill="#FEFFDD" style="stroke:#181818;stroke-width:1;"/><text fill="#000000" font-family="sans-serif" font-size="13" lengthAdjust="spacing" textLength="86.7026" x="12" y="81.2139">5 workstations:</text><text fill="#000000" font-family="sans-serif" font-size="13" lengthAdjust="spacing" textLength="80.9263" x="12" y="97.5654">Recepci&#243;n (3)</text><text fill="#000000" font-family="sans-serif" font-size="13" lengthAdjust="spacing" textLength="91.7554" x="12" y="113.917">Consultorios (2)</text></g><g id="elem_GMN32"><path d="M1256.5,70.7188 L1256.5,113.4219 L1414.0698,113.4219 L1414.0698,80.7188 L1404.0698,70.7188 L1256.5,70.7188 " fill="#FEFFDD" style="stroke:#181818;stroke-width:0.5;"/><path d="M1404.0698,70.7188 L1404.0698,80.7188 L1414.0698,80.7188 L1404.0698,70.7188 " fill="#FEFFDD" style="stroke:#181818;stroke-width:1;"/><text fill="#000000" font-family="sans-serif" font-size="13" lengthAdjust="spacing" textLength="136.5698" x="1262.5" y="89.2139">Cluster de conmutaci&#243;n</text><text fill="#000000" font-family="sans-serif" font-size="13" lengthAdjust="spacing" textLength="101.8481" x="1262.5" y="105.5654">error (Always On)</text></g><!--link browser to frontend--><g id="link_browser_frontend"><path d="M298.37,364.9588 C293.55,392.0888 285.55,437.0888 280.15,467.4288 " fill="transparent" id="browser-frontend" style="stroke:#181818;stroke-width:1;"/></g><!--link Red to Cliente--><g id="link_Red_Cliente"><path d="M378.84,99.4987 C286.05,110.0487 120.45,134.5487 81.5,178.2188 C57.825,204.7638 52.8525,244.3012 53.9075,277.6113 C53.9734,279.6931 54.0629,281.7507 54.1729,283.7792 C54.2278,284.7935 54.2879,285.8005 54.3527,286.7996 C54.3851,287.2992 54.4187,287.7969 54.4534,288.2924 " fill="transparent" id="Red-Cliente" style="stroke:#181818;stroke-width:1;"/><text fill="#000000" font-family="sans-serif" font-size="13" lengthAdjust="spacing" textLength="80.1646" x="119.5" y="166.7139">HTTP/HTTPS</text></g><!--link Red to Servidor--><g id="link_Red_Servidor"><path d="M378.98,112.6488 C360.41,121.6087 342.24,134.3588 331.5,152.2188 C327.38,159.0788 326.44,164.0188 331.5,170.2188 C342.68,183.9287 357.19,166.5587 370.5,178.2188 C384.56,190.5413 395.0913,206.5794 402.9791,223.7581 C406.923,232.3475 410.206,241.222 412.9389,250.0598 C414.3053,254.4788 415.5342,258.8885 416.6393,263.2488 C417.1919,265.4289 417.7136,267.5967 418.206,269.7472 C418.2676,270.016 418.3287,270.2845 418.3893,270.5528 " fill="transparent" id="Red-Servidor" style="stroke:#181818;stroke-width:1;"/><text fill="#000000" font-family="sans-serif" font-size="13" lengthAdjust="spacing" textLength="174.1099" x="332.5" y="166.7139">HTTP/HTTPS (Puerto 443/80)</text></g><!--link Red to Servidor--><g id="link_Red_Servidor"><path d="M493.28,122.3988 C511.98,136.7688 525.55,154.3687 511.5,170.2188 C491.9,192.3288 466.36,157.2888 445.5,178.2188 C420.39,203.4138 415.395,242.9312 416.7975,276.5688 C416.9728,280.7734 417.2481,284.8863 417.5965,288.8677 C417.7707,290.8585 417.9633,292.8164 418.1707,294.7365 C418.2744,295.6966 418.3819,296.6472 418.4927,297.5878 " fill="transparent" id="Red-Servidor-1" style="stroke:#181818;stroke-width:1;"/><text fill="#000000" font-family="sans-serif" font-size="13" lengthAdjust="spacing" textLength="145.2344" x="517.5" y="166.7139">JDBC/SSL (Puerto 1433)</text></g><!--link Red to BD--><g id="link_Red_BD"><path d="M506.21,96.3587 C687.04,105.7688 1194.36,135.7188 1255.5,178.2188 C1287.87,200.7238 1307.755,240.1988 1319.6037,274.4875 C1322.5659,283.0597 1325.0259,291.3077 1327.053,298.8854 C1327.1797,299.3591 1327.3047,299.83 1327.4281,300.2983 " fill="transparent" id="Red-BD" style="stroke:#181818;stroke-width:1;"/><text fill="#000000" font-family="sans-serif" font-size="13" lengthAdjust="spacing" textLength="41.8945" x="1235.5" y="166.7139">TCP/IP</text></g><!--link GMN29 to Cliente--><g id="link_GMN29_Cliente"><path d="M62.5,121.9787 C62.5,153.9838 62.5,207.2313 62.5,253.0575 C62.5,253.4155 62.5,253.7731 62.5,254.1302 " fill="transparent" id="GMN29-Cliente" style="stroke:#181818;stroke-width:1;stroke-dasharray:7.0,7.0;"/></g><!--link GMN32 to BD--><g id="link_GMN32_BD"><path d="M1335.5,113.8087 C1335.5,128.3888 1335.5,149.4744 1335.5,172.9806 C1335.5,178.8572 1335.5,184.885 1335.5,191.0004 C1335.5,194.058 1335.5,197.1375 1335.5,200.2309 C1335.5,201.0043 1335.5,201.7785 1335.5,202.5535 " fill="transparent" id="GMN32-BD" style="stroke:#181818;stroke-width:1;stroke-dasharray:7.0,7.0;"/></g><!--SRC=[XLNDRjj64BxhAGOgq5eeP5a_TbpTA99A52YIAZ9L3xwio36zDhNBxYvj9460FaHVeYXowh6t-4tw99rTKR8e6mr42EBkp3SpttmpCjpa2Cs0iqon3OCK8K1Tv1op4gz4B0kPo-pnYxjvmrJwm1H26_pyyOlW2ODOSS5JbiBt4Ee24yvo-ueQtZt-cPA5RZOQ-ewBWb40MBFaBbEo5AbFm0g-6uVsSs0X94Nwr00OIPMYgiowey7uLS-U7WC45w4tlgIRiHGcuXyHkht6vmD0fWo_Pebv3dhXzmUN_PT0myl02ySrqBCQQ28tXHGeNa3jTbzv5-Slfde-FW_xXDFu0VxzutTwO3OFvj0TWZ-TXBCuh8uRZeJcJAQIcEOKXdhnzQ-LL7VQCCEbqFiEVFsd2Kplp5mw-ugRCtQF6Kif-0hNL-B4lr5oWz21CCsmvHpNIZveLEJsL5DpGb3gcdsqNN-lIwQu9E-n8ZPGfB14GZ-zrLk4w-gO82emQAVjm-EdX2Ak3PBEvWKgAkIUO5TSfEH537UwNLWewK2rf8fgL2t30ARUh4xH4bDts86LDxiIhtd6rjn0Q6vG2JGEYcoE6UyD8GgNlqo2-H9MuUW5sYDKzxmYhkFHG2Gi8TvHsqO4p33mBT_gk0zxlq_VgllzkXIcT0u4q-kTdWrW6aTLzP6whm5u1Kjk46AvIPY1dwWRrZ570pxHpBX0jUs6SHOrtoJdDiCsA_WfpI_vMcdQHaO5ZMz6-fLcwqtNBlEQ6cm49NEh8vhhPHZ5pfPUpB6fAv-88fg8oXbcabws9RaRrCSUWJUdX1oZNaBt6kRhMqnC9QwKIUlokLOGAyrDkm8ylNKLlLt5y2ECVFMXg4gnHZKlXOLKfeqY8xOgjzT8nBa1MRfRhC9kRNNDNqZwnL4THOxUHNQWDepdMz-TtVD1xmzXv4KX1FHuyJpwFztHoOXfT1kP6Ubqv-N4Ki0rSSVNt2tQIdQZuDk2smtQJd5dlLubjb5Gz_rvUcX4DOPMwgGLoYTCkLr0srBrRxdU6cv5yuHnbBk_bU3ktw9ghM5hCdlMteFuNaOYiUsLQqqiMzsMHTLVUrNZs9_FmbydzBKdThSLssNRhW4OGlDD72ywzYjgDkoHNLLxqcltSB8eKHa9Wq6_StdMQZRsTWTuRuEHtucYwTwwE-ZtMq_Or1coYlr5Px9erWGHUn5umSIdZBrfU206IjZ80kJrVgiFuHmU3hR_y4eiCS4YuOz_2pZfjuXXEYvp8sbLQpZfjMeuBWa_BxNTMDILH8fDQPXplw89K5JJYPS_i0yqVgBL-0y0]--></g></svg>