<svg xmlns="http://www.w3.org/2000/svg" xmlns:xlink="http://www.w3.org/1999/xlink" contentStyleType="text/css" data-diagram-type="SEQUENCE" height="392px" preserveAspectRatio="none" style="width:728px;height:392px;background:#FEFEFE;" version="1.1" viewBox="0 0 728 392" width="728px" zoomAndPan="magnify"><title>Diagrama de Comunicaci&#243;n</title><defs/><g><rect fill="#FEFEFE" height="392" style="stroke:transparent;stroke-width:1;" width="728" x="0" y="0"/><text fill="#000000" font-family="sans-serif" font-size="14" font-weight="bold" lengthAdjust="spacing" textLength="184.3789" x="270.9036" y="29.5332">Diagrama de Comunicaci&#243;n</text><text fill="#000000" font-family="sans-serif" font-size="14" font-weight="bold" lengthAdjust="spacing" textLength="180.4619" x="272.8621" y="47.1426">Flujo: Agendar Cita M&#233;dica</text><g><title>Recepcionista</title><rect fill="transparent" height="171.7578" width="8" x="47.9688" y="138.8281"/><line style="stroke:#181818;stroke-width:0.5;stroke-dasharray:5.0,5.0;" x1="51" x2="51" y1="138.8281" y2="310.5859"/></g><g><title>:IU_Agendamiento</title><rect fill="transparent" height="171.7578" width="8" x="185.3696" y="138.8281"/><line style="stroke:#181818;stroke-width:0.5;stroke-dasharray:5.0,5.0;" x1="188.3872" x2="188.3872" y1="138.8281" y2="310.5859"/></g><g><title>:ControladorCitas</title><rect fill="transparent" height="171.7578" width="8" x="345.1968" y="138.8281"/><line style="stroke:#181818;stroke-width:0.5;stroke-dasharray:5.0,5.0;" x1="348.728" x2="348.728" y1="138.8281" y2="310.5859"/></g><g><title>:Paciente</title><rect fill="transparent" height="171.7578" width="8" x="507.9248" y="138.8281"/><line style="stroke:#181818;stroke-width:0.5;stroke-dasharray:5.0,5.0;" x1="511.7388" x2="511.7388" y1="138.8281" y2="310.5859"/></g><g><title>:AgendaMedico</title><rect fill="transparent" height="171.7578" width="8" x="609.7554" y="138.8281"/><line style="stroke:#181818;stroke-width:0.5;stroke-dasharray:5.0,5.0;" x1="613.1108" x2="613.1108" y1="138.8281" y2="310.5859"/></g><g><title>:Cita</title><rect fill="transparent" height="171.7578" width="8" x="696.793" y="138.8281"/><line style="stroke:#181818;stroke-width:0.5;stroke-dasharray:5.0,5.0;" x1="700.3999" x2="700.3999" y1="138.8281" y2="310.5859"/></g><text fill="#000000" font-family="sans-serif" font-size="14" lengthAdjust="spacing" textLength="87.9375" x="5" y="135.752">Recepcionista</text><ellipse cx="51.9688" cy="69.7188" fill="#AED6F1" rx="8" ry="8" style="stroke:#1B4F72;stroke-width:0.5;"/><path d="M51.9688,77.7188 L51.9688,104.7188 M38.9688,85.7188 L64.9688,85.7188 M51.9688,104.7188 L38.9688,119.7188 M51.9688,104.7188 L64.9688,119.7188 " fill="transparent" style="stroke:#1B4F72;stroke-width:0.5;"/><text fill="#000000" font-family="sans-serif" font-size="14" lengthAdjust="spacing" textLength="87.9375" x="5" y="324.1191">Recepcionista</text><ellipse cx="51.9688" cy="335.6953" fill="#AED6F1" rx="8" ry="8" style="stroke:#1B4F72;stroke-width:0.5;"/><path d="M51.9688,343.6953 L51.9688,370.6953 M38.9688,351.6953 L64.9688,351.6953 M51.9688,370.6953 L38.9688,385.6953 M51.9688,370.6953 L64.9688,385.6953 " fill="transparent" style="stroke:#1B4F72;stroke-width:0.5;"/><rect fill="#EBF5FB" height="31.6094" rx="2.5" ry="2.5" style="stroke:#2E86C1;stroke-width:0.5;" width="129.9648" x="124.3872" y="106.2188"/><text fill="#000000" font-family="sans-serif" font-size="14" lengthAdjust="spacing" textLength="115.9648" x="131.3872" y="127.752">:IU_Agendamiento</text><rect fill="#EBF5FB" height="31.6094" rx="2.5" ry="2.5" style="stroke:#2E86C1;stroke-width:0.5;" width="129.9648" x="124.3872" y="309.5859"/><text fill="#000000" font-family="sans-serif" font-size="14" lengthAdjust="spacing" textLength="115.9648" x="131.3872" y="331.1191">:IU_Agendamiento</text><rect fill="#EBF5FB" height="31.6094" rx="2.5" ry="2.5" style="stroke:#2E86C1;stroke-width:0.5;" width="122.9375" x="287.728" y="106.2188"/><text fill="#000000" font-family="sans-serif" font-size="14" lengthAdjust="spacing" textLength="108.9375" x="294.728" y="127.752">:ControladorCitas</text><rect fill="#EBF5FB" height="31.6094" rx="2.5" ry="2.5" style="stroke:#2E86C1;stroke-width:0.5;" width="122.9375" x="287.728" y="309.5859"/><text fill="#000000" font-family="sans-serif" font-size="14" lengthAdjust="spacing" textLength="108.9375" x="294.728" y="331.1191">:ControladorCitas</text><rect fill="#EBF5FB" height="31.6094" rx="2.5" ry="2.5" style="stroke:#2E86C1;stroke-width:0.5;" width="72.3721" x="475.7388" y="106.2188"/><text fill="#000000" font-family="sans-serif" font-size="14" lengthAdjust="spacing" textLength="58.3721" x="482.7388" y="127.752">:Paciente</text><rect fill="#EBF5FB" height="31.6094" rx="2.5" ry="2.5" style="stroke:#2E86C1;stroke-width:0.5;" width="72.3721" x="475.7388" y="309.5859"/><text fill="#000000" font-family="sans-serif" font-size="14" lengthAdjust="spacing" textLength="58.3721" x="482.7388" y="331.1191">:Paciente</text><rect fill="#EBF5FB" height="31.6094" rx="2.5" ry="2.5" style="stroke:#2E86C1;stroke-width:0.5;" width="111.2891" x="558.1108" y="106.2188"/><text fill="#000000" font-family="sans-serif" font-size="14" lengthAdjust="spacing" textLength="97.2891" x="565.1108" y="127.752">:AgendaMedico</text><rect fill="#EBF5FB" height="31.6094" rx="2.5" ry="2.5" style="stroke:#2E86C1;stroke-width:0.5;" width="111.2891" x="558.1108" y="309.5859"/><text fill="#000000" font-family="sans-serif" font-size="14" lengthAdjust="spacing" textLength="97.2891" x="565.1108" y="331.1191">:AgendaMedico</text><rect fill="#EBF5FB" height="31.6094" rx="2.5" ry="2.5" style="stroke:#2E86C1;stroke-width:0.5;" width="42.7861" x="679.3999" y="106.2188"/><text fill="#000000" font-family="sans-serif" font-size="14" lengthAdjust="spacing" textLength="28.7861" x="686.3999" y="127.752">:Cita</text><rect fill="#EBF5FB" height="31.6094" rx="2.5" ry="2.5" style="stroke:#2E86C1;stroke-width:0.5;" width="42.7861" x="679.3999" y="309.5859"/><text fill="#000000" font-family="sans-serif" font-size="14" lengthAdjust="spacing" textLength="28.7861" x="686.3999" y="331.1191">:Cita</text><polygon fill="#181818" points="177.3696,167.1797,187.3696,171.1797,177.3696,175.1797,181.3696,171.1797" style="stroke:#181818;stroke-width:1;"/><line style="stroke:#181818;stroke-width:1;" x1="51.9688" x2="183.3696" y1="171.1797" y2="171.1797"/><text fill="#000000" font-family="sans-serif" font-size="13" font-weight="bold" lengthAdjust="spacing" textLength="11.5591" x="58.9688" y="166.3232">1:</text><text fill="#000000" font-family="sans-serif" font-size="13" lengthAdjust="spacing" textLength="98.23" x="74.1396" y="166.3232">solicitarCita(DNI)</text><polygon fill="#181818" points="337.1968,197.5313,347.1968,201.5313,337.1968,205.5313,341.1968,201.5313" style="stroke:#181818;stroke-width:1;"/><line style="stroke:#181818;stroke-width:1;" x1="189.3696" x2="343.1968" y1="201.5313" y2="201.5313"/><text fill="#000000" font-family="sans-serif" font-size="13" font-weight="bold" lengthAdjust="spacing" textLength="11.5591" x="196.3696" y="196.6748">2:</text><text fill="#000000" font-family="sans-serif" font-size="13" lengthAdjust="spacing" textLength="120.6563" x="211.5405" y="196.6748">buscarPaciente(DNI)</text><polygon fill="#181818" points="499.9248,227.8828,509.9248,231.8828,499.9248,235.8828,503.9248,231.8828" style="stroke:#181818;stroke-width:1;"/><line style="stroke:#181818;stroke-width:1;" x1="349.1968" x2="505.9248" y1="231.8828" y2="231.8828"/><text fill="#000000" font-family="sans-serif" font-size="13" font-weight="bold" lengthAdjust="spacing" textLength="22.4009" x="356.1968" y="227.0264">2.1:</text><text fill="#000000" font-family="sans-serif" font-size="13" lengthAdjust="spacing" textLength="112.7153" x="382.2095" y="227.0264">consultarDatos(dni)</text><polygon fill="#181818" points="601.7554,258.2344,611.7554,262.2344,601.7554,266.2344,605.7554,262.2344" style="stroke:#181818;stroke-width:1;"/><line style="stroke:#181818;stroke-width:1;" x1="349.1968" x2="607.7554" y1="262.2344" y2="262.2344"/><text fill="#000000" font-family="sans-serif" font-size="13" font-weight="bold" lengthAdjust="spacing" textLength="11.5591" x="356.1968" y="257.3779">3:</text><text fill="#000000" font-family="sans-serif" font-size="13" lengthAdjust="spacing" textLength="201.6016" x="371.3677" y="257.3779">obtenerDisponibilidad(fecha, CMP)</text><polygon fill="#181818" points="688.793,288.5859,698.793,292.5859,688.793,296.5859,692.793,292.5859" style="stroke:#181818;stroke-width:1;"/><line style="stroke:#181818;stroke-width:1;" x1="349.1968" x2="694.793" y1="292.5859" y2="292.5859"/><text fill="#000000" font-family="sans-serif" font-size="13" font-weight="bold" lengthAdjust="spacing" textLength="11.5591" x="356.1968" y="287.7295">4:</text><text fill="#000000" font-family="sans-serif" font-size="13" lengthAdjust="spacing" textLength="116.3145" x="371.3677" y="287.7295">crearCita(datosCita)</text><!--SRC=[RPBFIWCn4CRlUOgmNjgYmjPQPGz2zn_qK2b2RuBC9h76RfCboPx41_Bi8_J5d2ILbbKMbkpCRxxlox1EkbRGf9ImDR07oWKjzBvNaW6JXs_rhEgsVzSPNMo5uc1e8HtGrU6B8v4GOdTITO2Zj06ssnhTArxeLXjwKLV-EIFmxIIJ7IX7FmYbkJPSc2CzhUxdHUghGvqghs_hd7oUAG5psFcZaUQp-cxwdyQYAkTrYXeaZZu99ZecjP8MhmCs5iXvmYHRRbxYhVTIAASJpssM0wZGoXdT0jV6hyO6gd2c7N1ht2UgYD37Zq4x6gq4hZKQnSBG31sY0Hu82Q7frGEceXcTJD9iCg5MjpZW8CGPbO_BCS4sGZvKmAOUQthBmFocYbmWaCHg1A-38jFAzYqgbk2q7N4bJsYC6UWRp-h62ILCAMs7osraApdmqQjWRt19YzNwD1b-93yt2nv671DpR-9Funy0]--></g></svg>