<svg xmlns="http://www.w3.org/2000/svg" xmlns:xlink="http://www.w3.org/1999/xlink" version="1.1" style="width:498px;height:1104px;background:#FFFFFF;" width="498px" height="1104px" viewBox="0 0 498 1104" zoomAndPan="magnify" preserveAspectRatio="none" contentStyleType="text/css">
<defs/>
<g>
<rect x="184.45" y="7" width="305" height="1088" fill="#EBF5FB" style="stroke:#2E86C1;stroke-width:1;" rx="2.5" ry="2.5"/>
<text x="229.9375" y="19.8889" fill="#000000" font-size="14" font-weight="700" font-family="sans-serif">Sistema de Gestión de Citas Médicas</text>
<text x="192.05" y="33.8889" fill="#000000" font-size="14" font-weight="700" font-family="sans-serif">Clínica Trinidad &amp; Especialidades Médicas S.A.C.</text>

<ellipse cx="336.4456" cy="171.9996" rx="55.8056" ry="22.1296" fill="#F1F1F1" style="stroke:#181818;stroke-width:0.5;"/>
<text x="319.0831" y="162.4336" fill="#000000" font-size="12" font-family="sans-serif">CU-01</text>
<text x="286.7581" y="174.4336" fill="#000000" font-size="12" font-family="sans-serif">Gestionar Usuarios</text>
<text x="318.0706" y="186.4336" fill="#000000" font-size="12" font-family="sans-serif">y Roles</text>

<ellipse cx="336.4475" cy="252.9976" rx="62.6275" ry="23.4876" fill="#F1F1F1" style="stroke:#181818;stroke-width:0.5;"/>
<text x="319.085" y="241.8978" fill="#000000" font-size="12" font-family="sans-serif">CU-02</text>
<text x="284.06" y="253.8978" fill="#000000" font-size="12" font-family="sans-serif">Configurar Espacios</text>
<text x="300.71" y="265.8978" fill="#000000" font-size="12" font-family="sans-serif">y Ubicaciones</text>

<ellipse cx="336.4522" cy="333.9951" rx="52.9622" ry="22.5451" fill="#F1F1F1" style="stroke:#181818;stroke-width:0.5;"/>
<text x="319.0897" y="324.1681" fill="#000000" font-size="12" font-family="sans-serif">CU-03</text>
<text x="290.4397" y="336.1681" fill="#000000" font-size="12" font-family="sans-serif">Gestionar Precios</text>
<text x="315.1147" y="348.1681" fill="#000000" font-size="12" font-family="sans-serif">y Tarifas</text>

<ellipse cx="336.4468" cy="593.002" rx="41.1068" ry="23.552" fill="#F1F1F1" style="stroke:#181818;stroke-width:0.5;"/>
<text x="319.0843" y="583.2072" fill="#000000" font-size="12" font-family="sans-serif">CU-04</text>
<text x="303.0718" y="595.2072" fill="#000000" font-size="12" font-family="sans-serif">Agendar Cita</text>
<text x="317.0968" y="607.2072" fill="#000000" font-size="12" font-family="sans-serif">Médica</text>

<ellipse cx="336.4483" cy="496.9977" rx="56.3383" ry="23.1277" fill="#F1F1F1" style="stroke:#181818;stroke-width:0.5;"/>
<text x="319.0858" y="486.4662" fill="#000000" font-size="12" font-family="sans-serif">CU-05</text>
<text x="288.7483" y="498.4662" fill="#000000" font-size="12" font-family="sans-serif">Registrar Paciente</text>
<text x="307.7608" y="510.4662" fill="#000000" font-size="12" font-family="sans-serif">(Admisión)</text>

<ellipse cx="336.4456" cy="972.9986" rx="54.6256" ry="26.0086" fill="#F1F1F1" style="stroke:#181818;stroke-width:0.5;"/>
<text x="319.0831" y="959.8303" fill="#000000" font-size="12" font-family="sans-serif">CU-06</text>
<text x="297.0706" y="971.8303" fill="#000000" font-size="12" font-family="sans-serif">Registrar Triaje</text>
<text x="296.0581" y="983.8303" fill="#000000" font-size="12" font-family="sans-serif">(Signos Vitales)</text>

<ellipse cx="336.4472" cy="871.997" rx="64.0472" ry="25.857" fill="#F1F1F1" style="stroke:#181818;stroke-width:0.5;"/>
<text x="319.0847" y="858.5839" fill="#000000" font-size="12" font-family="sans-serif">CU-07</text>
<text x="290.0972" y="870.5839" fill="#000000" font-size="12" font-family="sans-serif">Gestionar Historia</text>
<text x="288.3722" y="882.5839" fill="#000000" font-size="12" font-family="sans-serif">Clínica Electrónica</text>

<ellipse cx="336.4513" cy="1057.0048" rx="47.3913" ry="22.4948" fill="#F1F1F1" style="stroke:#181818;stroke-width:0.5;"/>
<text x="319.0888" y="1047.563" fill="#000000" font-size="12" font-family="sans-serif">CU-08</text>
<text x="295.4638" y="1059.563" fill="#000000" font-size="12" font-family="sans-serif">Generar Receta</text>
<text x="319.7263" y="1071.563" fill="#000000" font-size="12" font-family="sans-serif">Digital</text>

<ellipse cx="336.4517" cy="774.0024" rx="50.2017" ry="22.5824" fill="#F1F1F1" style="stroke:#181818;stroke-width:0.5;"/>
<text x="319.0892" y="764.2929" fill="#000000" font-size="12" font-family="sans-serif">CU-09</text>
<text x="293.0642" y="776.2929" fill="#000000" font-size="12" font-family="sans-serif">Solicitar Examen</text>
<text x="316.7267" y="788.2929" fill="#000000" font-size="12" font-family="sans-serif">Auxiliar</text>

<ellipse cx="336.4463" cy="691.0036" rx="50.1163" ry="25.3036" fill="#F1F1F1" style="stroke:#181818;stroke-width:0.5;"/>
<text x="319.0838" y="678.7696" fill="#000000" font-size="12" font-family="sans-serif">CU-10</text>
<text x="298.4213" y="690.7696" fill="#000000" font-size="12" font-family="sans-serif">Procesar Pago</text>
<text x="302.0963" y="702.7696" fill="#000000" font-size="12" font-family="sans-serif">y Facturación</text>

<ellipse cx="336.4481" cy="415.0029" rx="56.1381" ry="23.6529" fill="#F1F1F1" style="stroke:#181818;stroke-width:0.5;"/>
<text x="319.0856" y="403.9836" fill="#000000" font-size="12" font-family="sans-serif">CU-11</text>
<text x="290.1356" y="415.9836" fill="#000000" font-size="12" font-family="sans-serif">Generar Reportes</text>
<text x="304.4231" y="427.9836" fill="#000000" font-size="12" font-family="sans-serif">Gerenciales</text>

<ellipse cx="336.4545" cy="77.0021" rx="59.8845" ry="23.0621" fill="#F1F1F1" style="stroke:#181818;stroke-width:0.5;"/>
<text x="319.092" y="66.3974" fill="#000000" font-size="12" font-family="sans-serif">CU-12</text>
<text x="285.417" y="78.3974" fill="#000000" font-size="12" font-family="sans-serif">Consultar Registros</text>
<text x="305.7795" y="90.3974" fill="#000000" font-size="12" font-family="sans-serif">de Auditoría</text>

<!-- Actores -->
<ellipse cx="43.7225" cy="138.5" rx="8" ry="8" fill="#F1F1F1" style="stroke:#181818;stroke-width:0.5;"/>
<path d="M43.7225,146.5 L43.7225,173.5 M30.7225,154.5 L56.7225,154.5 M43.7225,173.5 L30.7225,188.5 M43.7225,173.5 L56.7225,188.5" style="stroke:#181818;stroke-width:0.5;" fill="none"/>
<text x="6.71" y="199.3333" fill="#000000" font-size="12" font-family="sans-serif">Administrador</text>
<text x="6.71" y="211.3333" fill="#000000" font-size="12" font-family="sans-serif">del Sistema</text>

<ellipse cx="43.7225" cy="300.5" rx="8" ry="8" fill="#F1F1F1" style="stroke:#181818;stroke-width:0.5;"/>
<path d="M43.7225,308.5 L43.7225,335.5 M30.7225,316.5 L56.7225,316.5 M43.7225,335.5 L30.7225,350.5 M43.7225,335.5 L56.7225,350.5" style="stroke:#181818;stroke-width:0.5;" fill="none"/>
<text x="9.71" y="361.3333" fill="#000000" font-size="12" font-family="sans-serif">Gerente de</text>
<text x="9.71" y="373.3333" fill="#000000" font-size="12" font-family="sans-serif">Operaciones</text>

<ellipse cx="43.725" cy="540.5" rx="8" ry="8" fill="#F1F1F1" style="stroke:#181818;stroke-width:0.5;"/>
<path d="M43.725,548.5 L43.725,575.5 M30.725,556.5 L56.725,556.5 M43.725,575.5 L30.725,590.5 M43.725,575.5 L56.725,590.5" style="stroke:#181818;stroke-width:0.5;" fill="none"/>
<text x="6" y="601.3333" fill="#000000" font-size="12" font-family="sans-serif">Recepcionista</text>

<ellipse cx="43.73" cy="652.5" rx="8" ry="8" fill="#F1F1F1" style="stroke:#181818;stroke-width:0.5;"/>
<path d="M43.73,660.5 L43.73,687.5 M30.73,668.5 L56.73,668.5 M43.73,687.5 L30.73,702.5 M43.73,687.5 L56.73,702.5" style="stroke:#181818;stroke-width:0.5;" fill="none"/>
<text x="9.98" y="713.3333" fill="#000000" font-size="12" font-family="sans-serif">Usuario Final</text>
<text x="9.98" y="725.3333" fill="#000000" font-size="12" font-family="sans-serif">(Cliente)</text>

<ellipse cx="43.7225" cy="963.5" rx="8" ry="8" fill="#F1F1F1" style="stroke:#181818;stroke-width:0.5;"/>
<path d="M43.7225,971.5 L43.7225,998.5 M30.7225,979.5 L56.7225,979.5 M43.7225,998.5 L30.7225,1013.5 M43.7225,998.5 L56.7225,1013.5" style="stroke:#181818;stroke-width:0.5;" fill="none"/>
<text x="11.66" y="1024.3333" fill="#000000" font-size="12" font-family="sans-serif">Médico</text>
<text x="11.66" y="1036.3333" fill="#000000" font-size="12" font-family="sans-serif">Especialista</text>

<!-- Líneas de actores a CU -->
<path d="M80.96,172 C131.04,172 216.84,172 275.35,172" style="stroke:#181818;stroke-width:1;" fill="none"/>
<polygon points="280.35,172,271.35,168,275.35,172,271.35,176,280.35,172" fill="#181818" style="stroke:#181818;stroke-width:1;"/>

<path d="M81.23,183.54 C107.6,191.76 144.12,202.93 176.45,212 C211.99,221.97 247.4108,231.1315 278.5308,238.9515" style="stroke:#181818;stroke-width:1;" fill="none"/>
<polygon points="283.38,240.17,275.6262,234.0972,278.5308,238.9515,273.6765,241.856,283.38,240.17" fill="#181818" style="stroke:#181818;stroke-width:1;"/>

<path d="M80.91,157.35 C90.76,153.51 101.47,149.48 111.45,146 C171.59,125.05 237.109,105.3267 282.689,92.0667" style="stroke:#181818;stroke-width:1;" fill="none"/>
<polygon points="287.49,90.67,277.7309,89.3433,282.689,92.0667,279.9656,97.0248,287.49,90.67" fill="#181818" style="stroke:#181818;stroke-width:1;"/>

<path d="M78.02,320.04 C88.6,315.87 100.43,311.48 111.45,308 C168.53,289.96 230.4547,275.2947 276.1547,265.3347" style="stroke:#181818;stroke-width:1;" fill="none"/>
<polygon points="281.04,264.27,271.3946,262.2782,276.1547,265.3347,273.0982,270.0948,281.04,264.27" fill="#181818" style="stroke:#181818;stroke-width:1;"/>

<path d="M78.07,334 C128.26,334 218.65,334 278.15,334" style="stroke:#181818;stroke-width:1;" fill="none"/>
<polygon points="283.15,334,274.15,330,278.15,334,274.15,338,283.15,334" fill="#181818" style="stroke:#181818;stroke-width:1;"/>

<path d="M78.18,344.59 C104.73,352.89 142.85,364.57 176.45,374 C213.5,384.4 250.8399,394.0148 282.4499,401.9348" style="stroke:#181818;stroke-width:1;" fill="none"/>
<polygon points="287.3,403.15,279.542,397.0826,282.4499,401.9348,277.5977,404.8427,287.3,403.15" fill="#181818" style="stroke:#181818;stroke-width:1;"/>

<path d="M81.84,571.19 C136.64,575.9 233.8184,584.2614 290.3084,589.1214" style="stroke:#181818;stroke-width:1;" fill="none"/>
<polygon points="295.29,589.55,286.666,584.7933,290.3084,589.1214,285.9803,592.7638,295.29,589.55" fill="#181818" style="stroke:#181818;stroke-width:1;"/>

<path d="M81.73,557.8 C91.39,555.19 101.8,552.44 111.45,550 C171.5,534.8 236.0769,519.6994 281.5269,509.2594" style="stroke:#181818;stroke-width:1;" fill="none"/>
<polygon points="286.4,508.14,276.7329,506.2564,281.5269,509.2594,278.5239,514.0533,286.4,508.14" fill="#181818" style="stroke:#181818;stroke-width:1;"/>

<path d="M81.92,588.14 C108,601.89 143.88,620.06 176.45,634 C215.41,650.67 256.2966,665.0989 288.6666,675.8889" style="stroke:#181818;stroke-width:1;" fill="none"/>
<polygon points="293.41,677.47,286.1368,670.8292,288.6666,675.8889,283.6069,678.4187,293.41,677.47" fill="#181818" style="stroke:#181818;stroke-width:1;"/>

<path d="M76.04,997.86 C101.08,998.28 137.06,998.28 168.45,996 C207.56,993.16 246.5517,987.7731 279.5317,982.5431" style="stroke:#181818;stroke-width:1;" fill="none"/>
<polygon points="284.47,981.76,274.9546,979.219,279.5317,982.5431,276.2076,987.1202,284.47,981.76" fill="#181818" style="stroke:#181818;stroke-width:1;"/>

<path d="M76.13,994.28 C104.02,990.23 144.03,980.14 168.45,955 C176.88,946.33 168.1,937.74 176.45,929 C202.38,901.86 237.2515,888.7054 270.5215,881.2354" style="stroke:#181818;stroke-width:1;" fill="none"/>
<polygon points="275.4,880.14,265.7423,878.2088,270.5215,881.2354,267.4949,886.0145,275.4,880.14" fill="#181818" style="stroke:#181818;stroke-width:1;"/>

<path d="M76.11,1003.48 C128.38,1014.27 228.4432,1034.9193 287.5532,1047.1193" style="stroke:#181818;stroke-width:1;" fill="none"/>
<polygon points="292.45,1048.13,284.4443,1042.3934,287.5532,1047.1193,282.8272,1050.2282,292.45,1048.13" fill="#181818" style="stroke:#181818;stroke-width:1;"/>

<path d="M76.25,977.82 C111.04,956.36 162.88,923.36 168.45,914 C178.15,897.7 164.73,843.92 176.45,829 C202.61,795.69 245.2005,783.179 281.5005,777.979" style="stroke:#181818;stroke-width:1;" fill="none"/>
<polygon points="286.45,777.27,276.9737,774.5866,281.5005,777.979,278.1082,782.5058,286.45,777.27" fill="#181818" style="stroke:#181818;stroke-width:1;"/>

<path d="M77.79,675.42 C133.01,657.76 238.7278,623.9438 295.3878,605.8138" style="stroke:#181818;stroke-width:1;" fill="none"/>
<polygon points="300.15,604.29,290.3591,603.2231,295.3878,605.8138,292.7972,610.8425,300.15,604.29" fill="#181818" style="stroke:#181818;stroke-width:1;"/>

<path d="M77.79,686.57 C128.69,687.44 221.5507,689.0441 280.9307,690.0641" style="stroke:#181818;stroke-width:1;" fill="none"/>
<polygon points="285.93,690.15,277,685.996,280.9307,690.0641,276.8626,693.9948,285.93,690.15" fill="#181818" style="stroke:#181818;stroke-width:1;"/>

<!-- include/extend -->
<path d="M336.45,569.27 C336.45,554.39 336.45,540.29 336.45,525.46" style="stroke:#181818;stroke-width:1;stroke-dasharray:7,7;" fill="none"/>
<polygon points="336.45,520.46,332.45,529.46,336.45,525.46,340.45,529.46,336.45,520.46" fill="#181818" style="stroke:#181818;stroke-width:1;"/>
<text x="298.45" y="548.4011" fill="#000000" font-size="13" font-family="sans-serif">«include»</text>

<path d="M336.45,898.14 C336.45,913.08 336.45,926.76 336.45,941.73" style="stroke:#181818;stroke-width:1;stroke-dasharray:7,7;" fill="none"/>
<polygon points="336.45,946.73,340.45,937.73,336.45,941.73,332.45,937.73,336.45,946.73" fill="#181818" style="stroke:#181818;stroke-width:1;"/>
<text x="298.45" y="926.0311" fill="#000000" font-size="13" font-family="sans-serif">«include»</text>

<path d="M277.46,861.5 C233.69,857.45 176.23,860.75 144.03,897.5 C107.77,938.89 136.47,979.19 176.45,1017 C206.41,1045.33 248.3031,1054.0781 283.5831,1056.6381" style="stroke:#181818;stroke-width:1;stroke-dasharray:7,7;" fill="none"/>
<polygon points="288.57,1057,279.8831,1052.3591,283.5831,1056.6381,279.3041,1060.3382,288.57,1057" fill="#181818" style="stroke:#181818;stroke-width:1;"/>
<text x="112.45" y="908.6111" fill="#000000" font-size="13" font-family="sans-serif">«include»</text>

<path d="M336.45,845.74 C336.45,830.54 336.45,816.6 336.45,802" style="stroke:#181818;stroke-width:1;stroke-dasharray:7,7;" fill="none"/>
<polygon points="336.45,797,332.45,806,336.45,802,340.45,806,336.45,797" fill="#181818" style="stroke:#181818;stroke-width:1;"/>
<text x="298.45" y="824.9711" fill="#000000" font-size="13" font-family="sans-serif">«include»</text>

<path d="M336.45,665.25 C336.45,650.28 336.45,636.54 336.45,621.9" style="stroke:#181818;stroke-width:1;stroke-dasharray:7,7;" fill="none"/>
<polygon points="336.45,616.9,332.45,625.9,336.45,621.9,340.45,625.9,336.45,616.9" fill="#181818" style="stroke:#181818;stroke-width:1;"/>
<text x="299.45" y="644.7311" fill="#000000" font-size="13" font-family="sans-serif">«extend»</text>

<path d="M336.45,100.34 C336.45,115.32 336.45,129.67 336.45,144.49" style="stroke:#181818;stroke-width:1;stroke-dasharray:7,7;" fill="none"/>
<polygon points="336.45,149.49,340.45,140.49,336.45,144.49,332.45,140.49,336.45,149.49" fill="#181818" style="stroke:#181818;stroke-width:1;"/>
<text x="299.45" y="128.5811" fill="#000000" font-size="13" font-family="sans-serif">«extend»</text>
</g>
</svg>