<svg xmlns="http://www.w3.org/2000/svg" viewBox="0 0 800 1050" width="800" height="1050">
  <rect width="800" height="1050" fill="#FFFFFF"/>
  <rect x="20" y="20" width="760" height="1010" rx="4" fill="none" stroke="#1B4F72" stroke-width="2"/>
  <rect x="20" y="20" width="760" height="90" fill="#1B4F72"/>
  <text x="400" y="55" text-anchor="middle" fill="#FFFFFF" font-size="22" font-weight="800" letter-spacing="1">PRUEBA DE ACEPTACIÓN DE USUARIO</text>
  <text x="400" y="80" text-anchor="middle" fill="#AED6F1" font-size="13" font-weight="600">User Acceptance Testing — UAT</text>
  <text x="400" y="98" text-anchor="middle" fill="#D6EAF8" font-size="11">Clínica Trinidad &amp; Especialidades Médicas S.A.C.</text>
  <text x="40" y="140" fill="#1B4F72" font-size="11" font-weight="600">Código: UAT-FR-002</text>
  <text x="600" y="140" fill="#1B4F72" font-size="11" font-weight="600">Versión: 1.0</text>
  <line x1="40" y1="148" x2="760" y2="148" stroke="#D5D8DC" stroke-width="1"/>

  <rect x="40" y="160" width="720" height="130" rx="3" fill="#F8F9FA" stroke="#D5D8DC" stroke-width="1"/>
  <rect x="40" y="160" width="200" height="26" rx="3" fill="#2E86C1"/>
  <text x="140" y="177" text-anchor="middle" fill="#FFFFFF" font-size="11" font-weight="700">1. DATOS GENERALES</text>

  <text x="55" y="205" fill="#333" font-size="11" font-weight="600">Requerimiento:</text>
  <text x="180" y="205" fill="#1B4F72" font-size="11" font-weight="700">RF-02: Admisión de Pacientes</text>
  <text x="55" y="225" fill="#333" font-size="11" font-weight="600">Módulo:</text>
  <text x="160" y="225" fill="#333" font-size="11">Registro de Pacientes</text>
  <text x="55" y="245" fill="#333" font-size="11" font-weight="600">Fecha de Prueba:</text>
  <text x="180" y="245" fill="#333" font-size="11">05/07/2026</text>
  <text x="55" y="265" fill="#333" font-size="11" font-weight="600">Versión del Sistema:</text>
  <text x="180" y="265" fill="#333" font-size="11">1.0.0</text>
  <text x="500" y="205" fill="#333" font-size="11" font-weight="600">Prioridad:</text>
  <text x="610" y="205" fill="#E74C3C" font-size="11" font-weight="700">ALTA</text>
  <text x="500" y="225" fill="#333" font-size="11" font-weight="600">Ambiente:</text>
  <text x="610" y="225" fill="#333" font-size="11">Producción</text>
  <text x="500" y="245" fill="#333" font-size="11" font-weight="600">N° de Caso:</text>
  <text x="610" y="245" fill="#333" font-size="11">UAT-2026-002</text>

  <rect x="40" y="305" width="720" height="100" rx="3" fill="#F8F9FA" stroke="#D5D8DC" stroke-width="1"/>
  <rect x="40" y="305" width="220" height="26" rx="3" fill="#2E86C1"/>
  <text x="150" y="322" text-anchor="middle" fill="#FFFFFF" font-size="11" font-weight="700">2. USUARIO VALIDADOR</text>

  <text x="55" y="350" fill="#333" font-size="11" font-weight="600">Nombre Completo:</text>
  <text x="200" y="350" fill="#1B4F72" font-size="11" font-weight="600">Carmen Díaz López</text>
  <text x="500" y="350" fill="#333" font-size="11" font-weight="600">Cargo / Rol:</text>
  <text x="610" y="350" fill="#333" font-size="11">Recepcionista</text>
  <text x="55" y="375" fill="#333" font-size="11" font-weight="600">Área / Departamento:</text>
  <text x="220" y="375" fill="#333" font-size="11">Admisión</text>
  <text x="500" y="375" fill="#333" font-size="11" font-weight="600">Fecha de Validación:</text>
  <text x="630" y="375" fill="#333" font-size="11">05/07/2026</text>
  <text x="55" y="395" fill="#333" font-size="11" font-weight="600">Correo Electrónico:</text>
  <text x="220" y="395" fill="#333" font-size="11">cdiaz@clinicatrinidad.pe</text>

  <rect x="40" y="420" width="720" height="200" rx="3" fill="#F8F9FA" stroke="#D5D8DC" stroke-width="1"/>
  <rect x="40" y="420" width="240" height="26" rx="3" fill="#2E86C1"/>
  <text x="160" y="437" text-anchor="middle" fill="#FFFFFF" font-size="11" font-weight="700">3. PROCEDIMIENTO DE PRUEBA</text>
  <text x="55" y="462" fill="#1B4F72" font-size="11" font-weight="700">Pasos a ejecutar:</text>

  <rect x="55" y="472" width="14" height="14" rx="2" fill="#27AE60"/><text x="57" y="483" fill="#FFF" font-size="9" font-weight="700">✓</text>
  <text x="75" y="483" fill="#333" font-size="11">Ir al módulo "Pacientes" y hacer clic en "Nuevo Paciente"</text>

  <rect x="55" y="494" width="14" height="14" rx="2" fill="#27AE60"/><text x="57" y="505" fill="#FFF" font-size="9" font-weight="700">✓</text>
  <text x="75" y="505" fill="#333" font-size="11">Ingresar DNI, nombres, apellidos, fecha de nacimiento</text>

  <rect x="55" y="516" width="14" height="14" rx="2" fill="#27AE60"/><text x="57" y="527" fill="#FFF" font-size="9" font-weight="700">✓</text>
  <text x="75" y="527" fill="#333" font-size="11">Agregar teléfono, correo y dirección de contacto</text>

  <rect x="55" y="538" width="14" height="14" rx="2" fill="#27AE60"/><text x="57" y="549" fill="#FFF" font-size="9" font-weight="700">✓</text>
  <text x="75" y="549" fill="#333" font-size="11">Guardar el registro y verificar que se cree correctamente</text>

  <rect x="55" y="560" width="14" height="14" rx="2" fill="#27AE60"/><text x="57" y="571" fill="#FFF" font-size="9" font-weight="700">✓</text>
  <text x="75" y="571" fill="#333" font-size="11">Intentar registrar el mismo DNI nuevamente (debe rechazar)</text>

  <rect x="55" y="582" width="14" height="14" rx="2" fill="#27AE60"/><text x="57" y="593" fill="#FFF" font-size="9" font-weight="700">✓</text>
  <text x="75" y="593" fill="#333" font-size="11">Verificar que la historia clínica se cree automáticamente</text>

  <rect x="40" y="635" width="720" height="120" rx="3" fill="#F8F9FA" stroke="#D5D8DC" stroke-width="1"/>
  <rect x="40" y="635" width="240" height="26" rx="3" fill="#2E86C1"/>
  <text x="160" y="652" text-anchor="middle" fill="#FFFFFF" font-size="11" font-weight="700">4. CRITERIOS DE ACEPTACIÓN</text>
  <text x="55" y="680" fill="#1B4F72" font-size="11" font-weight="700">Criterio</text>
  <text x="420" y="680" fill="#1B4F72" font-size="11" font-weight="700">Cumple</text>
  <line x1="40" y1="686" x2="760" y2="686" stroke="#D5D8DC" stroke-width="1"/>

  <text x="55" y="705" fill="#333" font-size="11">Valida que el DNI no esté duplicado</text>
  <text x="450" y="705" fill="#27AE60" font-size="13" font-weight="700">✔ Sí</text>
  <text x="55" y="725" fill="#333" font-size="11">Campos obligatorios correctamente marcados</text>
  <text x="450" y="725" fill="#27AE60" font-size="13" font-weight="700">✔ Sí</text>
  <text x="55" y="745" fill="#333" font-size="11">Genera automáticamente la historia clínica del paciente</text>
  <text x="450" y="745" fill="#27AE60" font-size="13" font-weight="700">✔ Sí</text>

  <rect x="40" y="770" width="720" height="100" rx="3" fill="#F8F9FA" stroke="#D5D8DC" stroke-width="1"/>
  <rect x="40" y="770" width="200" height="26" rx="3" fill="#2E86C1"/>
  <text x="140" y="787" text-anchor="middle" fill="#FFFFFF" font-size="11" font-weight="700">5. RESULTADO</text>
  <rect x="80" y="810" width="160" height="36" rx="4" fill="#27AE60"/>
  <text x="160" y="833" text-anchor="middle" fill="#FFFFFF" font-size="14" font-weight="700">APROBADO</text>
  <rect x="260" y="810" width="160" height="36" rx="4" fill="#E74C3C"/>
  <text x="340" y="833" text-anchor="middle" fill="#FFFFFF" font-size="14" font-weight="700">RECHAZADO</text>
  <text x="470" y="828" fill="#333" font-size="11" font-weight="600">Observaciones:</text>
  <text x="565" y="828" fill="#333" font-size="11">Validación de DNI funciona correctamente.</text>

  <rect x="40" y="885" width="720" height="120" rx="3" fill="#F8F9FA" stroke="#D5D8DC" stroke-width="1"/>
  <rect x="40" y="885" width="160" height="26" rx="3" fill="#2E86C1"/>
  <text x="120" y="902" text-anchor="middle" fill="#FFFFFF" font-size="11" font-weight="700">6. FIRMAS</text>
  <text x="80" y="935" fill="#333" font-size="11" font-weight="600">Usuario Validador</text>
  <line x1="80" y1="958" x2="340" y2="958" stroke="#333" stroke-width="2"/>
  <text x="80" y="975" fill="#1B4F72" font-size="11">Carmen Díaz López</text>
  <text x="80" y="990" fill="#888" font-size="9">Recepcionista</text>
  <text x="460" y="935" fill="#333" font-size="11" font-weight="600">Analista / Responsable</text>
  <line x1="460" y1="958" x2="720" y2="958" stroke="#333" stroke-width="2"/>
  <text x="460" y="975" fill="#1B4F72" font-size="11">Jhunior Collantes Meza</text>
  <text x="460" y="990" fill="#888" font-size="9">Analista de Sistemas</text>
  <text x="80" y="1020" fill="#888" font-size="9">Este documento certifica que el software cumple con los requerimientos establecidos para el módulo evaluado.</text>
</svg>